<svg width="150" height="150" viewBox="0 0 150 150" version="1.1" xmlns="http://www.w3.org/2000/svg" xmlns:xlink="http://www.w3.org/1999/xlink">
<title>Mascot_003</title>
<desc>Created using Figma</desc>
<g id="Canvas" transform="translate(-1124 -5312)">
<clipPath id="clip-0" clip-rule="evenodd">
<path d="M 1124 5312L 1274 5312L 1274 5462L 1124 5462L 1124 5312Z" fill="#FFFFFF"/>
</clipPath>
<g id="Mascot_003" clip-path="url(#clip-0)">
<path d="M 1124 5312L 1274 5312L 1274 5462L 1124 5462L 1124 5312Z" fill="#FFFFFF"/>
<g id="mascot_arm_right copy">
<g id="Path 2">
<use xlink:href="#path0_stroke" transform="matrix(0.731354 -0.681998 0.681998 0.731354 1217.72 5394.35)" fill="#2F2B64"/>
</g>
<g id="Group 5">
<g id="Line">
<use xlink:href="#path1_stroke" transform="matrix(-0.965926 0.258819 0.258819 0.965926 1243.22 5364.05)" fill="#A499FF"/>
</g>
<g id="Line Copy">
<use xlink:href="#path2_stroke" transform="matrix(-0.965926 0.258819 0.258819 0.965926 1243.54 5369.14)" fill="#A499FF"/>
</g>
<g id="Line Copy">
<use xlink:href="#path3_stroke" transform="matrix(-0.965926 0.258819 0.258819 0.965926 1237.54 5358.32)" fill="#A499FF"/>
</g>
<g id="Line Copy 2">
<use xlink:href="#path4_stroke" transform="matrix(-0.965926 0.258819 0.258819 0.965926 1242.65 5373.52)" fill="#A499FF"/>
</g>
</g>
</g>
<g id="Group">
<g id="Rectangle 4" opacity="0.178159">
<use xlink:href="#path5_fill" transform="translate(1153.37 5400.05)" fill="url(#paint5_linear)"/>
</g>
<g id="Group 2">
<g id="Rectangle 5 Copy" filter="url(#filter0_i)">
<use xlink:href="#path6_fill" transform="matrix(0.978148 -0.207912 0.207912 0.978148 1170.94 5362.73)" fill="#2F2B64"/>
</g>
<g id="Line Copy 8">
<use xlink:href="#path7_stroke" transform="matrix(0.544639 -0.838671 0.838671 0.544639 1185.81 5362.94)" fill="#B0B1B1"/>
</g>
<g id="Rectangle 6 Copy">
<use xlink:href="#path8_fill" transform="matrix(0.978148 -0.207912 0.207912 0.978148 1176.48 5368.53)" fill="#FFFFFF"/>
</g>
<g id="Oval 7 Copy">
<use xlink:href="#path9_fill" transform="matrix(0.544639 -0.838671 0.838671 0.544639 1201.58 5426.85)" fill="#FFFFFF"/>
</g>
</g>
<g id="mascot_mouth_happy">
<g id="Oval">
<use xlink:href="#path10_stroke" transform="matrix(0.992546 -0.121869 0.121869 0.992546 1193.28 5396.84)" fill="#FF5657"/>
</g>
</g>
<g id="Page 1">
<g id="Group 3">
<mask id="mask0_outline" mask-type="alpha">
<g id="Clip 2">
<use xlink:href="#path11_fill" transform="matrix(0.97437 -0.224951 0.224951 0.97437 1187.35 5383.87)" fill="#FFFFFF"/>
</g>
</mask>
<g id="Fill 1" mask="url(#mask0_outline)">
<use xlink:href="#path12_fill" transform="matrix(0.97437 -0.224951 0.224951 0.97437 1187.35 5383.87)" fill="#2F2564"/>
</g>
</g>
<g id="Group 3">
<mask id="mask1_outline" mask-type="alpha">
<g id="Clip 2">
<use xlink:href="#path11_fill" transform="matrix(0.97437 -0.224951 0.224951 0.97437 1201.03 5381.03)" fill="#FFFFFF"/>
</g>
</mask>
<g id="Fill 1" mask="url(#mask1_outline)">
<use xlink:href="#path12_fill" transform="matrix(0.97437 -0.224951 0.224951 0.97437 1201.03 5381.03)" fill="#2F2564"/>
</g>
</g>
</g>
<g id="Path 8">
<use xlink:href="#path13_fill" transform="translate(1177 5365)" fill="#D8D8D8" fill-opacity="0.27" style="mix-blend-mode:multiply"/>
</g>
</g>
<g id="mascot_arm_left">
<g id="Group 4">
<g id="Path 2">
<use xlink:href="#path14_stroke" transform="matrix(0.731354 -0.681998 0.681998 0.731354 1158.27 5395.68)" fill="#2F2B64"/>
</g>
</g>
<g id="Group 5">
<g id="Line">
<use xlink:href="#path1_stroke" transform="matrix(0.997564 0.0697565 -0.0697565 0.997564 1154.18 5381.73)" fill="#A499FF"/>
</g>
<g id="Line Copy">
<use xlink:href="#path2_stroke" transform="matrix(0.997564 0.0697565 -0.0697565 0.997564 1154.83 5386.78)" fill="#A499FF"/>
</g>
<g id="Line Copy">
<use xlink:href="#path3_stroke" transform="matrix(0.997564 0.0697565 -0.0697565 0.997564 1158.66 5375.02)" fill="#A499FF"/>
</g>
<g id="Line Copy 2">
<use xlink:href="#path4_stroke" transform="matrix(0.997564 0.0697565 -0.0697565 0.997564 1156.55 5390.91)" fill="#A499FF"/>
</g>
</g>
</g>
</g>
</g>
<defs>
<filter id="filter0_i" filterUnits="userSpaceOnUse" x="1169" y="5355" width="59" height="82" color-interpolation-filters="sRGB">
<feFlood flood-opacity="0" result="BackgroundImageFix"/>
<feBlend mode="normal" in="SourceGraphic" in2="BackgroundImageFix" result="shape"/>
<feColorMatrix in="SourceAlpha" type="matrix" values="0 0 0 0 0 0 0 0 0 0 0 0 0 0 0 0 0 0 255 0" result="hardAlpha"/>
<feOffset dx="0" dy="3"/>
<feGaussianBlur stdDeviation="1.5"/>
<feComposite in2="hardAlpha" operator="arithmetic" k2="-1" k3="1"/>
<feColorMatrix type="matrix" values="0 0 0 0 0 0 0 0 0 0 0 0 0 0 0 0 0 0 0.064906 0"/>
<feBlend mode="normal" in2="shape" result="effect1_innerShadow"/>
</filter>
<linearGradient id="paint5_linear" x1="0" y1="0" x2="1" y2="0" gradientUnits="userSpaceOnUse" gradientTransform="matrix(-0.0125902 39.4036 -80.7141 -0.00614636 49.6664 -6.8802)">
<stop offset="0" stop-color="#FFFFFF"/>
<stop offset="0.637244" stop-color="#5D5D5D"/>
<stop offset="0.637244" stop-color="#5D5D5D"/>
<stop offset="1"/>
</linearGradient>
<path id="path0_stroke" d="M 1.55938 -2.32558C 0.274994 -3.1868 -1.46436 -2.84376 -2.32558 -1.55938C -3.1868 -0.274994 -2.84376 1.46436 -1.55938 2.32558L 1.55938 -2.32558ZM 29.7524 3.95747C 30.9585 2.98963 31.1516 1.22732 30.1838 0.0212349C 29.216 -1.18485 27.4537 -1.37798 26.2476 -0.410138L 29.7524 3.95747ZM 0 0C -1.55938 2.32558 -1.5585 2.32617 -1.55757 2.3268C -1.55717 2.32706 -1.55617 2.32773 -1.55538 2.32826C -1.55433 2.32896 -1.55194 2.33056 -1.54985 2.33195C -1.54675 2.33402 -1.54045 2.33821 -1.53425 2.34231C -1.52406 2.34906 -1.50538 2.36138 -1.48508 2.37466C -1.44894 2.39829 -1.38778 2.43793 -1.31648 2.48337C -1.18309 2.56829 -0.969169 2.70189 -0.711332 2.8568C -0.21525 3.15442 0.550647 3.59341 1.46722 4.06749C 3.25706 4.99062 5.92772 6.1878 8.89658 7.05064C 14.8211 8.75761 22.9408 9.42361 29.7524 3.95747L 26.2476 -0.410138C 21.5173 3.38573 15.637 3.16489 10.447 1.66954C 7.85859 0.931207 5.69335 -0.0516551 4.03662 -0.908276C 3.2299 -1.32407 2.61984 -1.67489 2.17078 -1.9446C 1.95605 -2.07336 1.80511 -2.16781 1.69178 -2.24002C 1.63972 -2.27315 1.60705 -2.29435 1.58021 -2.31191C 1.56902 -2.31923 1.56391 -2.3226 1.5582 -2.32639C 1.55644 -2.32755 1.55496 -2.32854 1.55586 -2.32794C 1.55576 -2.328 1.55692 -2.32723 1.55688 -2.32726C 1.55717 -2.32706 1.5578 -2.32664 1.55795 -2.32654C 1.55863 -2.32608 1.55938 -2.32558 0 0Z"/>
<path id="path1_stroke" d="M 8.48842 2.60473C 9.92697 1.7827 10.4268 -0.0498645 9.60473 -1.48842C 8.7827 -2.92697 6.95014 -3.42676 5.51158 -2.60473L 8.48842 2.60473ZM -1.48842 1.39527C -2.92697 2.2173 -3.42676 4.04986 -2.60473 5.48842C -1.7827 6.92697 0.0498645 7.42676 1.48842 6.60473L -1.48842 1.39527ZM 5.51158 -2.60473L -1.48842 1.39527L 1.48842 6.60473L 8.48842 2.60473L 5.51158 -2.60473Z"/>
<path id="path2_stroke" d="M 8.18176 2.75744C 9.70465 2.10477 10.4101 0.341131 9.75743 -1.18176C 9.10477 -2.70465 7.34113 -3.4101 5.81824 -2.75744L 8.18176 2.75744ZM -1.18176 0.242565C -2.70465 0.895232 -3.4101 2.65887 -2.75744 4.18176C -2.10477 5.70465 -0.341131 6.4101 1.18176 5.75744L -1.18176 0.242565ZM 5.81824 -2.75744L -1.18176 0.242565L 1.18176 5.75744L 8.18176 2.75744L 5.81824 -2.75744Z"/>
<path id="path3_stroke" d="M -0.431529 12.1373C -0.0795641 13.7563 1.51825 14.7835 3.13729 14.4315C 4.75633 14.0796 5.78349 12.4817 5.43153 10.8627L -0.431529 12.1373ZM 2.93153 -0.637289C 2.57956 -2.25633 0.98175 -3.28349 -0.637289 -2.93153C -2.25633 -2.57956 -3.28349 -0.98175 -2.93153 0.637289L 2.93153 -0.637289ZM 5.43153 10.8627L 2.93153 -0.637289L -2.93153 0.637289L -0.431529 12.1373L 5.43153 10.8627Z"/>
<path id="path4_stroke" d="M 6.54349 2.57248C 7.96423 1.72003 8.42492 -0.122746 7.57248 -1.54349C 6.72003 -2.96423 4.87725 -3.42492 3.45651 -2.57248L 6.54349 2.57248ZM -1.54349 0.427521C -2.96423 1.27997 -3.42492 3.12275 -2.57248 4.54349C -1.72003 5.96423 0.122746 6.42492 1.54349 5.57248L -1.54349 0.427521ZM 3.45651 -2.57248L -1.54349 0.427521L 1.54349 5.57248L 6.54349 2.57248L 3.45651 -2.57248Z"/>
<path id="path5_fill" fill-rule="evenodd" d="M 1.88448 12.9538C -1.09815 10.957 -0.144791 6.34627 3.38515 5.69607L 33.9595 0.0644337C 34.9724 -0.122138 36.0182 0.0891868 36.8792 0.654405L 64.4734 18.7692C 68.1548 21.1859 67.1402 26.8371 62.8481 27.8223L 45.3568 31.8372C 38.1019 33.5024 30.4813 32.0987 24.2959 27.9577L 1.88448 12.9538Z"/>
<path id="path6_fill" fill-rule="evenodd" d="M 0 8C 0 3.58172 3.58172 0 8 0L 32.7642 0C 37.1825 0 40.7642 3.58172 40.7642 8L 40.7642 66.1018C 40.7642 70.5201 37.1825 74.1018 32.7642 74.1018L 8 74.1018C 3.58172 74.1018 0 70.5201 0 66.1018L 0 8Z"/>
<path id="path7_stroke" d="M 8.07754 9.07878C 8.35072 9.35233 8.79394 9.35262 9.06749 9.07944C 9.34103 8.80625 9.34133 8.36303 9.06814 8.08949L 8.07754 9.07878ZM 0.771844 -0.217741C 0.498657 -0.491288 0.0554414 -0.49158 -0.218106 -0.218393C -0.491652 0.0547939 -0.491944 0.498009 -0.218757 0.771556L 0.771844 -0.217741ZM 9.06814 8.08949L 0.771844 -0.217741L -0.218757 0.771556L 8.07754 9.07878L 9.06814 8.08949Z"/>
<path id="path8_fill" fill-rule="evenodd" d="M 0 1C 0 0.447715 0.447715 0 1 0L 31.6025 0C 32.1548 0 32.6025 0.447715 32.6025 1L 32.6025 55.4138C 32.6025 55.9661 32.1548 56.4138 31.6025 56.4138L 1 56.4138C 0.447715 56.4138 0 55.9661 0 55.4138L 0 1Z"/>
<path id="path9_fill" fill-rule="evenodd" d="M 2.92617 5.86006C 4.54225 5.86006 5.85235 4.54824 5.85235 2.93003C 5.85235 1.31182 4.54225 0 2.92617 0C 1.31009 0 0 1.31182 0 2.93003C 0 4.54824 1.31009 5.86006 2.92617 5.86006Z"/>
<path id="path10_stroke" d="M 0.980674 -0.19565C 0.87262 -0.737261 0.345962 -1.08873 -0.19565 -0.980674C -0.737261 -0.87262 -1.08873 -0.345962 -0.980674 0.19565L 0.980674 -0.19565ZM 13.7088 0.294117C 13.8242 -0.245989 13.4798 -0.777334 12.9397 -0.892674C 12.3996 -1.00801 11.8683 -0.663673 11.7529 -0.123566L 13.7088 0.294117ZM -0.980674 0.19565C -0.295171 3.63166 2.73602 6.22122 6.37425 6.22122L 6.37425 4.22122C 3.7082 4.22122 1.48322 2.3233 0.980674 -0.19565L -0.980674 0.19565ZM 6.37425 6.22122C 9.97774 6.22122 12.9856 3.68089 13.7088 0.294117L 11.7529 -0.123566C 11.2227 2.35954 9.01471 4.22122 6.37425 4.22122L 6.37425 6.22122Z"/>
<path id="path11_fill" fill-rule="evenodd" d="M 0 5.51851L 0 0L 3.93976 0L 3.93976 5.51851L 0 5.51851Z"/>
<path id="path12_fill" fill-rule="evenodd" d="M 1.98964 0L 1.95027 0C 0.873158 0 0 0.888273 0 1.98389L 0 3.53467C 0 4.63029 0.873158 5.51856 1.95027 5.51856L 1.98964 5.51856C 3.06675 5.51856 3.93991 4.63029 3.93991 3.53467L 3.93991 1.98389C 3.93991 0.888273 3.06675 0 1.98964 0Z"/>
<path id="path13_fill" fill-rule="evenodd" d="M 16 0L 21 57L 11 59L 0 4L 16 0Z"/>
<path id="path14_stroke" d="M 7.66061 24.6228C 9.01574 25.3678 10.7182 24.8731 11.4632 23.518C 12.2081 22.1629 11.7135 20.4604 10.3584 19.7154L 7.66061 24.6228ZM 3.70894 0.695685C 4.09316 -0.802221 3.19033 -2.32798 1.69243 -2.7122C 0.194523 -3.09642 -1.33124 -2.19359 -1.71546 -0.695685L 3.70894 0.695685ZM 9.0095 22.1691C 10.3584 19.7154 10.3597 19.7162 10.361 19.7169C 10.3613 19.7171 10.3626 19.7177 10.3633 19.7181C 10.3627 19.7178 10.3683 19.7209 10.3672 19.7203C 10.3668 19.7201 10.3725 19.7233 10.3717 19.7228C 10.3737 19.724 10.3724 19.7232 10.3686 19.721C 10.3536 19.7125 10.3434 19.7066 10.3155 19.6898C 10.2447 19.6474 10.1674 19.5999 10.0405 19.516C 9.75564 19.329 9.41523 19.0914 8.95938 18.7196C 7.9819 17.93 6.88265 16.8987 5.80391 15.3236C 3.71924 12.3277 1.9343 7.61431 3.70894 0.695685L -1.71546 -0.695685C -3.93425 7.9545 -1.71281 14.3257 1.20725 18.5221C 2.63089 20.5432 4.2836 22.135 5.43248 23.0695C 6.03981 23.5598 6.60619 23.9594 6.96231 24.1942C 7.15594 24.3212 7.33267 24.4307 7.43573 24.4926C 7.4948 24.5279 7.55153 24.561 7.58177 24.5784C 7.60059 24.5891 7.62043 24.6004 7.62991 24.6057C 7.63648 24.6094 7.64419 24.6137 7.64748 24.6155C 7.65004 24.6169 7.65333 24.6188 7.65461 24.6195C 7.6557 24.6201 7.65721 24.6209 7.65775 24.6212C 7.65921 24.622 7.66061 24.6228 9.0095 22.1691Z"/>
</defs>
</svg>
