<svg width="150" height="150" viewBox="0 0 150 150" version="1.1" xmlns="http://www.w3.org/2000/svg" xmlns:xlink="http://www.w3.org/1999/xlink">
<title>Mascot_002</title>
<desc>Created using Figma</desc>
<g id="Canvas" transform="translate(-937 -5312)">
<clipPath id="clip-0" clip-rule="evenodd">
<path d="M 937 5312L 1087 5312L 1087 5462L 937 5462L 937 5312Z" fill="#FFFFFF"/>
</clipPath>
<g id="Mascot_002" clip-path="url(#clip-0)">
<path d="M 937 5312L 1087 5312L 1087 5462L 937 5462L 937 5312Z" fill="#FFFFFF"/>
<g id="mascot_arm_right copy">
<g id="Group 4">
<g id="Path 2">
<use xlink:href="#path0_stroke" transform="matrix(0.731354 -0.681998 0.681998 0.731354 1027.51 5391.37)" fill="#2F2B64"/>
</g>
</g>
<g id="Group 5">
<g id="Line">
<use xlink:href="#path1_stroke" transform="matrix(-0.939693 0.34202 0.34202 0.939693 1045.9 5361.78)" fill="#A499FF"/>
</g>
<g id="Line Copy">
<use xlink:href="#path2_stroke" transform="matrix(-0.939693 0.34202 0.34202 0.939693 1046.67 5366.82)" fill="#A499FF"/>
</g>
<g id="Line Copy">
<use xlink:href="#path3_stroke" transform="matrix(-0.939693 0.34202 0.34202 0.939693 1039.75 5356.57)" fill="#A499FF"/>
</g>
<g id="Line Copy 2">
<use xlink:href="#path4_stroke" transform="matrix(-0.939693 0.34202 0.34202 0.939693 1046.16 5371.27)" fill="#A499FF"/>
</g>
</g>
</g>
<g id="Group">
<g id="Rectangle 4" opacity="0.178159">
<use xlink:href="#path5_fill" transform="translate(966.369 5400.05)" fill="url(#paint5_linear)"/>
</g>
<g id="Group 2">
<g id="Rectangle 5 Copy" filter="url(#filter0_i)">
<use xlink:href="#path6_fill" transform="matrix(0.978148 -0.207912 0.207912 0.978148 983.943 5362.73)" fill="#2F2B64"/>
</g>
<g id="Line Copy 8">
<use xlink:href="#path7_stroke" transform="matrix(0.544639 -0.838671 0.838671 0.544639 998.808 5362.94)" fill="#B0B1B1"/>
</g>
<g id="Rectangle 6 Copy">
<use xlink:href="#path8_fill" transform="matrix(0.978148 -0.207912 0.207912 0.978148 989.478 5368.53)" fill="#FFFFFF"/>
</g>
<g id="Oval 7 Copy">
<use xlink:href="#path9_fill" transform="matrix(0.544639 -0.838671 0.838671 0.544639 1014.58 5426.85)" fill="#FFFFFF"/>
</g>
</g>
<g id="mascot_mouth_happy">
<g id="Oval">
<use xlink:href="#path10_stroke" transform="matrix(0.992546 -0.121869 0.121869 0.992546 1006.28 5396.84)" fill="#FF5657"/>
</g>
</g>
<g id="Page 1">
<g id="Group 3">
<mask id="mask0_outline" mask-type="alpha">
<g id="Clip 2">
<use xlink:href="#path11_fill" transform="matrix(0.97437 -0.224951 0.224951 0.97437 1000.35 5383.87)" fill="#FFFFFF"/>
</g>
</mask>
<g id="Fill 1" mask="url(#mask0_outline)">
<use xlink:href="#path12_fill" transform="matrix(0.97437 -0.224951 0.224951 0.97437 1000.35 5383.87)" fill="#2F2564"/>
</g>
</g>
<g id="Group 3">
<mask id="mask1_outline" mask-type="alpha">
<g id="Clip 2">
<use xlink:href="#path11_fill" transform="matrix(0.97437 -0.224951 0.224951 0.97437 1014.03 5381.03)" fill="#FFFFFF"/>
</g>
</mask>
<g id="Fill 1" mask="url(#mask1_outline)">
<use xlink:href="#path12_fill" transform="matrix(0.97437 -0.224951 0.224951 0.97437 1014.03 5381.03)" fill="#2F2564"/>
</g>
</g>
</g>
<g id="Path 8">
<use xlink:href="#path13_fill" transform="translate(990 5365)" fill="#D8D8D8" fill-opacity="0.27" style="mix-blend-mode:multiply"/>
</g>
</g>
<g id="mascot_arm_left">
<g id="Group 4">
<g id="Path 2">
<use xlink:href="#path14_stroke" transform="matrix(0.731354 -0.681998 0.681998 0.731354 973.343 5391.78)" fill="#2F2B64"/>
</g>
</g>
<g id="Group 5">
<g id="Line">
<use xlink:href="#path1_stroke" transform="translate(967 5377)" fill="#A499FF"/>
</g>
<g id="Line Copy">
<use xlink:href="#path2_stroke" transform="translate(968 5382)" fill="#A499FF"/>
</g>
<g id="Line Copy">
<use xlink:href="#path3_stroke" transform="translate(971 5370)" fill="#A499FF"/>
</g>
<g id="Line Copy 2">
<use xlink:href="#path4_stroke" transform="translate(970 5386)" fill="#A499FF"/>
</g>
</g>
</g>
</g>
</g>
<defs>
<filter id="filter0_i" filterUnits="userSpaceOnUse" x="982" y="5355" width="59" height="82" color-interpolation-filters="sRGB">
<feFlood flood-opacity="0" result="BackgroundImageFix"/>
<feBlend mode="normal" in="SourceGraphic" in2="BackgroundImageFix" result="shape"/>
<feColorMatrix in="SourceAlpha" type="matrix" values="0 0 0 0 0 0 0 0 0 0 0 0 0 0 0 0 0 0 255 0" result="hardAlpha"/>
<feOffset dx="0" dy="3"/>
<feGaussianBlur stdDeviation="1.5"/>
<feComposite in2="hardAlpha" operator="arithmetic" k2="-1" k3="1"/>
<feColorMatrix type="matrix" values="0 0 0 0 0 0 0 0 0 0 0 0 0 0 0 0 0 0 0.064906 0"/>
<feBlend mode="normal" in2="shape" result="effect1_innerShadow"/>
</filter>
<linearGradient id="paint5_linear" x1="0" y1="0" x2="1" y2="0" gradientUnits="userSpaceOnUse" gradientTransform="matrix(-0.0125902 39.4036 -80.7141 -0.00614636 49.6664 -6.8802)">
<stop offset="0" stop-color="#FFFFFF"/>
<stop offset="0.637244" stop-color="#5D5D5D"/>
<stop offset="0.637244" stop-color="#5D5D5D"/>
<stop offset="1"/>
</linearGradient>
<path id="path0_stroke" d="M 25.121 1.09428C 25.7253 -0.329137 25.0614 -1.97296 23.6379 -2.57732C 22.2145 -3.18167 20.5707 -2.51769 19.9664 -1.09428L 25.121 1.09428ZM 0.288019 6.12406C -1.25018 5.96499 -2.62608 7.08299 -2.78515 8.62119C -2.94422 10.1594 -1.82621 11.5353 -0.288019 11.6944L 0.288019 6.12406ZM 22.5437 0C 19.9664 -1.09428 19.9671 -1.0961 19.9679 -1.09787C 19.9681 -1.09841 19.9689 -1.10015 19.9693 -1.10123C 19.9689 -1.10031 19.9727 -1.10909 19.9719 -1.10725C 19.9714 -1.10605 19.977 -1.11894 19.9759 -1.11649C 19.976 -1.11659 19.9793 -1.1241 19.9793 -1.12404C 19.9837 -1.13399 19.9755 -1.11546 19.9666 -1.0973C 19.9393 -1.04055 19.9154 -0.992303 19.8593 -0.891429C 19.7257 -0.647596 19.5674 -0.380817 19.2801 0.0120356C 18.6513 0.886419 17.8211 1.8512 16.3668 2.88536C 13.5815 4.90655 8.64646 6.98843 0.288019 6.12406L -0.288019 11.6944C 9.32545 12.6885 15.6622 10.3158 19.6558 7.41773C 21.5909 5.99228 23.0269 4.38129 23.817 3.2948C 24.239 2.70722 24.5784 2.14729 24.7649 1.80952C 24.869 1.61959 24.9608 1.43832 25.0093 1.33825C 25.0382 1.27799 25.0668 1.21639 25.0807 1.18571C 25.0899 1.16533 25.1002 1.14232 25.1047 1.13208C 25.108 1.12447 25.1121 1.11498 25.1138 1.11117C 25.1151 1.10802 25.1169 1.10379 25.1176 1.10222C 25.1182 1.10081 25.1191 1.09882 25.1194 1.09812C 25.1202 1.09618 25.121 1.09428 22.5437 0Z"/>
<path id="path1_stroke" d="M 8.48842 2.60473C 9.92697 1.7827 10.4268 -0.0498645 9.60473 -1.48842C 8.7827 -2.92697 6.95014 -3.42676 5.51158 -2.60473L 8.48842 2.60473ZM -1.48842 1.39527C -2.92697 2.2173 -3.42676 4.04986 -2.60473 5.48842C -1.7827 6.92697 0.0498645 7.42676 1.48842 6.60473L -1.48842 1.39527ZM 5.51158 -2.60473L -1.48842 1.39527L 1.48842 6.60473L 8.48842 2.60473L 5.51158 -2.60473Z"/>
<path id="path2_stroke" d="M 8.18176 2.75744C 9.70465 2.10477 10.4101 0.341131 9.75743 -1.18176C 9.10477 -2.70465 7.34113 -3.4101 5.81824 -2.75744L 8.18176 2.75744ZM -1.18176 0.242565C -2.70465 0.895232 -3.4101 2.65887 -2.75744 4.18176C -2.10477 5.70465 -0.341131 6.4101 1.18176 5.75744L -1.18176 0.242565ZM 5.81824 -2.75744L -1.18176 0.242565L 1.18176 5.75744L 8.18176 2.75744L 5.81824 -2.75744Z"/>
<path id="path3_stroke" d="M -0.431529 12.1373C -0.0795641 13.7563 1.51825 14.7835 3.13729 14.4315C 4.75633 14.0796 5.78349 12.4817 5.43153 10.8627L -0.431529 12.1373ZM 2.93153 -0.637289C 2.57956 -2.25633 0.98175 -3.28349 -0.637289 -2.93153C -2.25633 -2.57956 -3.28349 -0.98175 -2.93153 0.637289L 2.93153 -0.637289ZM 5.43153 10.8627L 2.93153 -0.637289L -2.93153 0.637289L -0.431529 12.1373L 5.43153 10.8627Z"/>
<path id="path4_stroke" d="M 6.54349 2.57248C 7.96423 1.72003 8.42492 -0.122746 7.57248 -1.54349C 6.72003 -2.96423 4.87725 -3.42492 3.45651 -2.57248L 6.54349 2.57248ZM -1.54349 0.427521C -2.96423 1.27997 -3.42492 3.12275 -2.57248 4.54349C -1.72003 5.96423 0.122746 6.42492 1.54349 5.57248L -1.54349 0.427521ZM 3.45651 -2.57248L -1.54349 0.427521L 1.54349 5.57248L 6.54349 2.57248L 3.45651 -2.57248Z"/>
<path id="path5_fill" fill-rule="evenodd" d="M 1.88448 12.9538C -1.09815 10.957 -0.144791 6.34627 3.38515 5.69607L 33.9595 0.0644337C 34.9724 -0.122138 36.0182 0.0891868 36.8792 0.654405L 64.4734 18.7692C 68.1548 21.1859 67.1402 26.8371 62.8481 27.8223L 45.3568 31.8372C 38.1019 33.5024 30.4813 32.0987 24.2959 27.9577L 1.88448 12.9538Z"/>
<path id="path6_fill" fill-rule="evenodd" d="M 0 8C 0 3.58172 3.58172 0 8 0L 32.7642 0C 37.1825 0 40.7642 3.58172 40.7642 8L 40.7642 66.1018C 40.7642 70.5201 37.1825 74.1018 32.7642 74.1018L 8 74.1018C 3.58172 74.1018 0 70.5201 0 66.1018L 0 8Z"/>
<path id="path7_stroke" d="M 8.07754 9.07878C 8.35072 9.35233 8.79394 9.35262 9.06749 9.07944C 9.34103 8.80625 9.34133 8.36303 9.06814 8.08949L 8.07754 9.07878ZM 0.771844 -0.217741C 0.498657 -0.491288 0.0554414 -0.49158 -0.218106 -0.218393C -0.491652 0.0547939 -0.491944 0.498009 -0.218757 0.771556L 0.771844 -0.217741ZM 9.06814 8.08949L 0.771844 -0.217741L -0.218757 0.771556L 8.07754 9.07878L 9.06814 8.08949Z"/>
<path id="path8_fill" fill-rule="evenodd" d="M 0 1C 0 0.447715 0.447715 0 1 0L 31.6025 0C 32.1548 0 32.6025 0.447715 32.6025 1L 32.6025 55.4138C 32.6025 55.9661 32.1548 56.4138 31.6025 56.4138L 1 56.4138C 0.447715 56.4138 0 55.9661 0 55.4138L 0 1Z"/>
<path id="path9_fill" fill-rule="evenodd" d="M 2.92617 5.86006C 4.54225 5.86006 5.85235 4.54824 5.85235 2.93003C 5.85235 1.31182 4.54225 0 2.92617 0C 1.31009 0 0 1.31182 0 2.93003C 0 4.54824 1.31009 5.86006 2.92617 5.86006Z"/>
<path id="path10_stroke" d="M 0.980674 -0.19565C 0.87262 -0.737261 0.345962 -1.08873 -0.19565 -0.980674C -0.737261 -0.87262 -1.08873 -0.345962 -0.980674 0.19565L 0.980674 -0.19565ZM 13.7088 0.294117C 13.8242 -0.245989 13.4798 -0.777334 12.9397 -0.892674C 12.3996 -1.00801 11.8683 -0.663673 11.7529 -0.123566L 13.7088 0.294117ZM -0.980674 0.19565C -0.295171 3.63166 2.73602 6.22122 6.37425 6.22122L 6.37425 4.22122C 3.7082 4.22122 1.48322 2.3233 0.980674 -0.19565L -0.980674 0.19565ZM 6.37425 6.22122C 9.97774 6.22122 12.9856 3.68089 13.7088 0.294117L 11.7529 -0.123566C 11.2227 2.35954 9.01471 4.22122 6.37425 4.22122L 6.37425 6.22122Z"/>
<path id="path11_fill" fill-rule="evenodd" d="M 0 5.51851L 0 0L 3.93976 0L 3.93976 5.51851L 0 5.51851Z"/>
<path id="path12_fill" fill-rule="evenodd" d="M 1.98964 0L 1.95027 0C 0.873158 0 0 0.888273 0 1.98389L 0 3.53467C 0 4.63029 0.873158 5.51856 1.95027 5.51856L 1.98964 5.51856C 3.06675 5.51856 3.93991 4.63029 3.93991 3.53467L 3.93991 1.98389C 3.93991 0.888273 3.06675 0 1.98964 0Z"/>
<path id="path13_fill" fill-rule="evenodd" d="M 16 0L 21 57L 11 59L 0 4L 16 0Z"/>
<path id="path14_stroke" d="M 2.77504 25.5108C 3.82436 26.6467 5.59583 26.7169 6.73174 25.6676C 7.86764 24.6182 7.93782 22.8468 6.8885 21.7109L 2.77504 25.5108ZM 4.10835 0.695685C 4.49257 -0.802221 3.58974 -2.32798 2.09184 -2.7122C 0.59393 -3.09642 -0.931831 -2.19359 -1.31605 -0.695685L 4.10835 0.695685ZM 4.83177 23.6108C 6.8885 21.7109 6.88962 21.7121 6.89071 21.7133C 6.89103 21.7136 6.89209 21.7148 6.89274 21.7155C 6.8922 21.7149 6.8974 21.7206 6.89632 21.7194C 6.89568 21.7187 6.9028 21.7265 6.90151 21.7251C 6.90198 21.7256 6.90501 21.729 6.90421 21.7281C 6.8965 21.7194 6.89465 21.7174 6.8804 21.7005C 6.83964 21.6528 6.80011 21.6055 6.72774 21.5122C 6.55847 21.2959 6.36256 21.0304 6.09618 20.6086C 5.51473 19.6976 4.86067 18.4997 4.26476 16.7347C 3.0765 13.2729 2.25326 7.92792 4.10835 0.695685L -1.31605 -0.695685C -3.4544 7.64089 -2.55982 14.1014 -1.03191 18.5527C -0.26974 20.7444 0.683872 22.53 1.37058 23.6134C 1.73827 24.1888 2.09156 24.6733 2.31297 24.9575C 2.43594 25.1146 2.55212 25.2552 2.61823 25.3329C 2.65742 25.3788 2.6968 25.4238 2.71695 25.4465C 2.73009 25.4613 2.74466 25.4775 2.7513 25.4848C 2.75614 25.4902 2.76209 25.4967 2.76452 25.4994C 2.7665 25.5015 2.76913 25.5044 2.77012 25.5055C 2.771 25.5064 2.77223 25.5078 2.77267 25.5082C 2.77387 25.5095 2.77504 25.5108 4.83177 23.6108Z"/>
</defs>
</svg>
