<svg width="150" height="150" viewBox="0 0 150 150" version="1.1" xmlns="http://www.w3.org/2000/svg" xmlns:xlink="http://www.w3.org/1999/xlink">
<title>Mascot_004</title>
<desc>Created using Figma</desc>
<g id="Canvas" transform="translate(-1323 -5312)">
<clipPath id="clip-0" clip-rule="evenodd">
<path d="M 1323 5312L 1473 5312L 1473 5462L 1323 5462L 1323 5312Z" fill="#FFFFFF"/>
</clipPath>
<g id="Mascot_004" clip-path="url(#clip-0)">
<path d="M 1323 5312L 1473 5312L 1473 5462L 1323 5462L 1323 5312Z" fill="#FFFFFF"/>
<g id="mascot_arm_right copy">
<g id="Group 4">
<g id="Path 2">
<use xlink:href="#path0_stroke" transform="matrix(0.731354 -0.681998 0.681998 0.731354 1416.34 5394.4)" fill="#2F2B64"/>
</g>
</g>
<g id="Group 5">
<g id="Line">
<use xlink:href="#path1_stroke" transform="matrix(-0.93358 0.358368 0.358368 0.93358 1437.84 5364.73)" fill="#A499FF"/>
</g>
<g id="Line Copy">
<use xlink:href="#path2_stroke" transform="matrix(-0.93358 0.358368 0.358368 0.93358 1438.7 5369.76)" fill="#A499FF"/>
</g>
<g id="Line Copy">
<use xlink:href="#path3_stroke" transform="matrix(-0.93358 0.358368 0.358368 0.93358 1431.6 5359.63)" fill="#A499FF"/>
</g>
<g id="Line Copy 2">
<use xlink:href="#path4_stroke" transform="matrix(-0.93358 0.358368 0.358368 0.93358 1438.26 5374.21)" fill="#A499FF"/>
</g>
</g>
</g>
<g id="Group">
<g id="Rectangle 4" opacity="0.178159">
<use xlink:href="#path5_fill" transform="translate(1352.37 5400.05)" fill="url(#paint5_linear)"/>
</g>
<g id="Group 2">
<g id="Rectangle 5 Copy" filter="url(#filter0_i)">
<use xlink:href="#path6_fill" transform="matrix(0.978148 -0.207912 0.207912 0.978148 1369.94 5362.73)" fill="#2F2B64"/>
</g>
<g id="Line Copy 8">
<use xlink:href="#path7_stroke" transform="matrix(0.544639 -0.838671 0.838671 0.544639 1384.81 5362.94)" fill="#B0B1B1"/>
</g>
<g id="Rectangle 6 Copy">
<use xlink:href="#path8_fill" transform="matrix(0.978148 -0.207912 0.207912 0.978148 1375.48 5368.53)" fill="#FFFFFF"/>
</g>
<g id="Oval 7 Copy">
<use xlink:href="#path9_fill" transform="matrix(0.544639 -0.838671 0.838671 0.544639 1400.58 5426.85)" fill="#FFFFFF"/>
</g>
</g>
<g id="mascot_mouth_happy">
<g id="Oval">
<use xlink:href="#path10_stroke" transform="matrix(0.992546 -0.121869 0.121869 0.992546 1393.02 5398.35)" fill="#FF5657"/>
</g>
</g>
<g id="Page 1">
<g id="Group 3">
<mask id="mask0_outline" mask-type="alpha">
<g id="Clip 2">
<use xlink:href="#path11_fill" transform="matrix(0.97437 -0.224951 0.224951 0.97437 1386.35 5383.87)" fill="#FFFFFF"/>
</g>
</mask>
<g id="Fill 1" mask="url(#mask0_outline)">
<use xlink:href="#path12_fill" transform="matrix(0.97437 -0.224951 0.224951 0.97437 1386.35 5383.87)" fill="#2F2564"/>
</g>
</g>
<g id="Group 3">
<mask id="mask1_outline" mask-type="alpha">
<g id="Clip 2">
<use xlink:href="#path11_fill" transform="matrix(0.97437 -0.224951 0.224951 0.97437 1400.03 5381.03)" fill="#FFFFFF"/>
</g>
</mask>
<g id="Fill 1" mask="url(#mask1_outline)">
<use xlink:href="#path12_fill" transform="matrix(0.97437 -0.224951 0.224951 0.97437 1400.03 5381.03)" fill="#2F2564"/>
</g>
</g>
</g>
<g id="Path 8">
<use xlink:href="#path13_fill" transform="translate(1376 5365)" fill="#D8D8D8" fill-opacity="0.27" style="mix-blend-mode:multiply"/>
</g>
</g>
<g id="mascot_arm_left">
<g id="Group 4">
<g id="Path 2">
<use xlink:href="#path14_stroke" transform="matrix(0.731354 -0.681998 0.681998 0.731354 1358 5400.71)" fill="#2F2B64"/>
</g>
</g>
<g id="Group 5">
<g id="Line">
<use xlink:href="#path1_stroke" transform="translate(1349 5387)" fill="#A499FF"/>
</g>
<g id="Line Copy">
<use xlink:href="#path2_stroke" transform="translate(1350 5392)" fill="#A499FF"/>
</g>
<g id="Line Copy">
<use xlink:href="#path3_stroke" transform="translate(1353 5380)" fill="#A499FF"/>
</g>
<g id="Line Copy 2">
<use xlink:href="#path4_stroke" transform="translate(1352 5396)" fill="#A499FF"/>
</g>
</g>
</g>
</g>
</g>
<defs>
<filter id="filter0_i" filterUnits="userSpaceOnUse" x="1368" y="5355" width="59" height="82" color-interpolation-filters="sRGB">
<feFlood flood-opacity="0" result="BackgroundImageFix"/>
<feBlend mode="normal" in="SourceGraphic" in2="BackgroundImageFix" result="shape"/>
<feColorMatrix in="SourceAlpha" type="matrix" values="0 0 0 0 0 0 0 0 0 0 0 0 0 0 0 0 0 0 255 0" result="hardAlpha"/>
<feOffset dx="0" dy="3"/>
<feGaussianBlur stdDeviation="1.5"/>
<feComposite in2="hardAlpha" operator="arithmetic" k2="-1" k3="1"/>
<feColorMatrix type="matrix" values="0 0 0 0 0 0 0 0 0 0 0 0 0 0 0 0 0 0 0.064906 0"/>
<feBlend mode="normal" in2="shape" result="effect1_innerShadow"/>
</filter>
<linearGradient id="paint5_linear" x1="0" y1="0" x2="1" y2="0" gradientUnits="userSpaceOnUse" gradientTransform="matrix(-0.0125902 39.4036 -80.7141 -0.00614636 49.6664 -6.8802)">
<stop offset="0" stop-color="#FFFFFF"/>
<stop offset="0.637244" stop-color="#5D5D5D"/>
<stop offset="0.637244" stop-color="#5D5D5D"/>
<stop offset="1"/>
</linearGradient>
<path id="path0_stroke" d="M 27.7177 1.73294C 28.6748 0.5183 28.466 -1.24222 27.2514 -2.1993C 26.0367 -3.15638 24.2762 -2.94758 23.3191 -1.73294L 27.7177 1.73294ZM 0.703629 2.05771C -0.793145 1.66911 -2.32154 2.56746 -2.71015 4.06423C -3.09875 5.56101 -2.2004 7.08941 -0.703629 7.47801L 0.703629 2.05771ZM 25.5184 0C 23.3191 -1.73294 23.3203 -1.73443 23.3215 -1.73588C 23.3218 -1.73632 23.3229 -1.73774 23.3236 -1.73862C 23.323 -1.73788 23.3286 -1.74492 23.3275 -1.74345C 23.3267 -1.74255 23.3347 -1.75249 23.3332 -1.75065C 23.3335 -1.75105 23.3376 -1.75593 23.337 -1.75534C 23.3293 -1.74597 23.3286 -1.74504 23.3136 -1.72784C 23.2697 -1.67695 23.2281 -1.63006 23.1414 -1.54008C 22.9376 -1.32676 22.6919 -1.08592 22.2844 -0.750821C 21.3986 -0.0129042 20.2364 0.805135 18.4246 1.57193C 14.8991 3.09308 9.15925 4.25302 0.703629 2.05771L -0.703629 7.47801C 8.90656 9.97308 15.9259 8.74909 20.6432 6.71372C 22.9527 5.70225 24.7828 4.44888 25.859 3.55995C 26.4324 3.08163 26.9102 2.62018 27.1845 2.33458C 27.3368 2.17509 27.473 2.02336 27.547 1.93799C 27.591 1.88706 27.6344 1.83546 27.656 1.80932C 27.6701 1.79216 27.6857 1.77298 27.6927 1.76432C 27.6978 1.75795 27.7041 1.75009 27.7067 1.74689C 27.7088 1.74428 27.7115 1.74079 27.7126 1.73948C 27.7135 1.73832 27.7148 1.73668 27.7152 1.7361C 27.7165 1.7345 27.7177 1.73294 25.5184 0Z"/>
<path id="path1_stroke" d="M 8.48842 2.60473C 9.92697 1.7827 10.4268 -0.0498645 9.60473 -1.48842C 8.7827 -2.92697 6.95014 -3.42676 5.51158 -2.60473L 8.48842 2.60473ZM -1.48842 1.39527C -2.92697 2.2173 -3.42676 4.04986 -2.60473 5.48842C -1.7827 6.92697 0.0498645 7.42676 1.48842 6.60473L -1.48842 1.39527ZM 5.51158 -2.60473L -1.48842 1.39527L 1.48842 6.60473L 8.48842 2.60473L 5.51158 -2.60473Z"/>
<path id="path2_stroke" d="M 8.18176 2.75744C 9.70465 2.10477 10.4101 0.341131 9.75743 -1.18176C 9.10477 -2.70465 7.34113 -3.4101 5.81824 -2.75744L 8.18176 2.75744ZM -1.18176 0.242565C -2.70465 0.895232 -3.4101 2.65887 -2.75744 4.18176C -2.10477 5.70465 -0.341131 6.4101 1.18176 5.75744L -1.18176 0.242565ZM 5.81824 -2.75744L -1.18176 0.242565L 1.18176 5.75744L 8.18176 2.75744L 5.81824 -2.75744Z"/>
<path id="path3_stroke" d="M -0.431529 12.1373C -0.0795641 13.7563 1.51825 14.7835 3.13729 14.4315C 4.75633 14.0796 5.78349 12.4817 5.43153 10.8627L -0.431529 12.1373ZM 2.93153 -0.637289C 2.57956 -2.25633 0.98175 -3.28349 -0.637289 -2.93153C -2.25633 -2.57956 -3.28349 -0.98175 -2.93153 0.637289L 2.93153 -0.637289ZM 5.43153 10.8627L 2.93153 -0.637289L -2.93153 0.637289L -0.431529 12.1373L 5.43153 10.8627Z"/>
<path id="path4_stroke" d="M 6.54349 2.57248C 7.96423 1.72003 8.42492 -0.122746 7.57248 -1.54349C 6.72003 -2.96423 4.87725 -3.42492 3.45651 -2.57248L 6.54349 2.57248ZM -1.54349 0.427521C -2.96423 1.27997 -3.42492 3.12275 -2.57248 4.54349C -1.72003 5.96423 0.122746 6.42492 1.54349 5.57248L -1.54349 0.427521ZM 3.45651 -2.57248L -1.54349 0.427521L 1.54349 5.57248L 6.54349 2.57248L 3.45651 -2.57248Z"/>
<path id="path5_fill" fill-rule="evenodd" d="M 1.88448 12.9538C -1.09815 10.957 -0.144791 6.34627 3.38515 5.69607L 33.9595 0.0644337C 34.9724 -0.122138 36.0182 0.0891868 36.8792 0.654405L 64.4734 18.7692C 68.1548 21.1859 67.1402 26.8371 62.8481 27.8223L 45.3568 31.8372C 38.1019 33.5024 30.4813 32.0987 24.2959 27.9577L 1.88448 12.9538Z"/>
<path id="path6_fill" fill-rule="evenodd" d="M 0 8C 0 3.58172 3.58172 0 8 0L 32.7642 0C 37.1825 0 40.7642 3.58172 40.7642 8L 40.7642 66.1018C 40.7642 70.5201 37.1825 74.1018 32.7642 74.1018L 8 74.1018C 3.58172 74.1018 0 70.5201 0 66.1018L 0 8Z"/>
<path id="path7_stroke" d="M 8.07754 9.07878C 8.35072 9.35233 8.79394 9.35262 9.06749 9.07944C 9.34103 8.80625 9.34133 8.36303 9.06814 8.08949L 8.07754 9.07878ZM 0.771844 -0.217741C 0.498657 -0.491288 0.0554414 -0.49158 -0.218106 -0.218393C -0.491652 0.0547939 -0.491944 0.498009 -0.218757 0.771556L 0.771844 -0.217741ZM 9.06814 8.08949L 0.771844 -0.217741L -0.218757 0.771556L 8.07754 9.07878L 9.06814 8.08949Z"/>
<path id="path8_fill" fill-rule="evenodd" d="M 0 1C 0 0.447715 0.447715 0 1 0L 31.6025 0C 32.1548 0 32.6025 0.447715 32.6025 1L 32.6025 55.4138C 32.6025 55.9661 32.1548 56.4138 31.6025 56.4138L 1 56.4138C 0.447715 56.4138 0 55.9661 0 55.4138L 0 1Z"/>
<path id="path9_fill" fill-rule="evenodd" d="M 2.92617 5.86006C 4.54225 5.86006 5.85235 4.54824 5.85235 2.93003C 5.85235 1.31182 4.54225 0 2.92617 0C 1.31009 0 0 1.31182 0 2.93003C 0 4.54824 1.31009 5.86006 2.92617 5.86006Z"/>
<path id="path10_stroke" d="M 0.894862 -0.421956C 0.648354 -0.916175 0.0478766 -1.11698 -0.446342 -0.870476C -0.940561 -0.623968 -1.14137 -0.0234905 -0.894862 0.470728L 0.894862 -0.421956ZM 12.5491 0.442576C 12.7935 -0.052675 12.5902 -0.652303 12.0949 -0.896731C 11.5997 -1.14116 11 -0.937827 10.7556 -0.442576L 12.5491 0.442576ZM -0.894862 0.470728C 0.33304 2.93252 2.87779 4.62702 5.82013 4.62702L 5.82013 2.62702C 3.66494 2.62702 1.79743 1.38758 0.894862 -0.421956L -0.894862 0.470728ZM 5.82013 4.62702C 8.77365 4.62702 11.3265 2.91964 12.5491 0.442576L 10.7556 -0.442576C 9.85703 1.37811 7.9835 2.62702 5.82013 2.62702L 5.82013 4.62702Z"/>
<path id="path11_fill" fill-rule="evenodd" d="M 0 5.51851L 0 0L 3.93976 0L 3.93976 5.51851L 0 5.51851Z"/>
<path id="path12_fill" fill-rule="evenodd" d="M 1.98964 0L 1.95027 0C 0.873158 0 0 0.888273 0 1.98389L 0 3.53467C 0 4.63029 0.873158 5.51856 1.95027 5.51856L 1.98964 5.51856C 3.06675 5.51856 3.93991 4.63029 3.93991 3.53467L 3.93991 1.98389C 3.93991 0.888273 3.06675 0 1.98964 0Z"/>
<path id="path13_fill" fill-rule="evenodd" d="M 16 0L 21 57L 11 59L 0 4L 16 0Z"/>
<path id="path14_stroke" d="M 10.4591 20.3848C 11.7817 21.186 13.5035 20.7634 14.3047 19.4407C 15.106 18.1181 14.6833 16.3964 13.3607 15.5951L 10.4591 20.3848ZM 2.74424 -0.555995C 2.43718 -2.0716 0.959608 -3.05131 -0.555995 -2.74424C -2.0716 -2.43718 -3.05131 -0.959608 -2.74424 0.555995L 2.74424 -0.555995ZM 11.9099 17.99C 13.3607 15.5951 13.3616 15.5957 13.3625 15.5962C 13.3628 15.5964 13.3636 15.5969 13.3642 15.5972C 13.3638 15.597 13.3675 15.5993 13.3668 15.5988C 13.3666 15.5987 13.37 15.6008 13.3696 15.6006C 13.3715 15.6017 13.3689 15.6002 13.3653 15.5979C 13.3529 15.5901 13.3426 15.5837 13.3188 15.5683C 13.2604 15.5308 13.1923 15.4862 13.0841 15.4118C 12.8457 15.2484 12.5431 15.0321 12.1324 14.7074C 11.2654 14.025 10.1867 13.0877 8.96919 11.7276C 6.43568 8.92459 3.83149 5.07067 2.74424 -0.555995L -2.74424 0.555995C -1.343 7.21185 2.00775 12.3529 4.80706 15.4742C 6.25597 17.0763 7.68813 18.3335 8.6654 19.1051C 9.17685 19.5074 9.62975 19.8329 9.91631 20.0297C 10.0706 20.1353 10.2073 20.2253 10.2881 20.2774C 10.3339 20.3068 10.3769 20.3339 10.4002 20.3485C 10.4145 20.3574 10.4293 20.3666 10.4365 20.371C 10.4414 20.374 10.4471 20.3775 10.4495 20.379C 10.4514 20.3801 10.4538 20.3816 10.4548 20.3821C 10.4556 20.3826 10.4566 20.3833 10.457 20.3835C 10.4581 20.3842 10.4591 20.3848 11.9099 17.99Z"/>
</defs>
</svg>
