<svg width="150" height="150" viewBox="0 0 150 150" version="1.1" xmlns="http://www.w3.org/2000/svg" xmlns:xlink="http://www.w3.org/1999/xlink">
<title>Mascot_007</title>
<desc>Created using Figma</desc>
<g id="Canvas" transform="translate(-1970 -5312)">
<clipPath id="clip-0" clip-rule="evenodd">
<path d="M 1970 5312L 2120 5312L 2120 5462L 1970 5462L 1970 5312Z" fill="#FFFFFF"/>
</clipPath>
<g id="Mascot_007" clip-path="url(#clip-0)">
<path d="M 1970 5312L 2120 5312L 2120 5462L 1970 5462L 1970 5312Z" fill="#FFFFFF"/>
<g id="mascot_arm_right copy">
<g id="Path 2">
<use xlink:href="#path0_stroke" transform="matrix(0.731354 -0.681998 0.681998 0.731354 2064.39 5398.91)" fill="#2F2B64"/>
</g>
<g id="Group 5">
<g id="Line">
<use xlink:href="#path1_stroke" transform="matrix(-0.999848 -0.0174524 -0.0174524 0.999848 2095.04 5384.07)" fill="#A499FF"/>
</g>
<g id="Line Copy">
<use xlink:href="#path2_stroke" transform="matrix(-0.999848 -0.0174524 -0.0174524 0.999848 2093.96 5389.05)" fill="#A499FF"/>
</g>
<g id="Line Copy">
<use xlink:href="#path3_stroke" transform="matrix(-0.999848 -0.0174524 -0.0174524 0.999848 2091.17 5377)" fill="#A499FF"/>
</g>
<g id="Line Copy 2">
<use xlink:href="#path4_stroke" transform="matrix(-0.999848 -0.0174524 -0.0174524 0.999848 2091.89 5393.02)" fill="#A499FF"/>
</g>
</g>
</g>
<g id="mascot_arm_left">
<g id="Group 4">
<g id="Path 2">
<use xlink:href="#path5_stroke" transform="matrix(0.731354 -0.681998 0.681998 0.731354 2003 5404)" fill="#2F2B64"/>
</g>
</g>
<g id="Group 5">
<g id="Line">
<use xlink:href="#path1_stroke" transform="translate(1998 5392)" fill="#A499FF"/>
</g>
<g id="Line Copy">
<use xlink:href="#path2_stroke" transform="translate(1999 5397)" fill="#A499FF"/>
</g>
<g id="Line Copy">
<use xlink:href="#path3_stroke" transform="translate(2002 5385)" fill="#A499FF"/>
</g>
<g id="Line Copy 2">
<use xlink:href="#path4_stroke" transform="translate(2001 5401)" fill="#A499FF"/>
</g>
</g>
</g>
<g id="Group">
<g id="Rectangle 4" opacity="0.178159">
<use xlink:href="#path6_fill" transform="translate(1999.37 5400.05)" fill="url(#paint10_linear)"/>
</g>
<g id="Group 2">
<g id="Rectangle 5 Copy" filter="url(#filter0_i)">
<use xlink:href="#path7_fill" transform="matrix(0.978148 -0.207912 0.207912 0.978148 2016.94 5362.73)" fill="#2F2B64"/>
</g>
<g id="Line Copy 8">
<use xlink:href="#path8_stroke" transform="matrix(0.544639 -0.838671 0.838671 0.544639 2031.81 5362.94)" fill="#B0B1B1"/>
</g>
<g id="Rectangle 6 Copy">
<use xlink:href="#path9_fill" transform="matrix(0.978148 -0.207912 0.207912 0.978148 2022.48 5368.53)" fill="#FFFFFF"/>
</g>
<g id="Oval 7 Copy">
<use xlink:href="#path10_fill" transform="matrix(0.544639 -0.838671 0.838671 0.544639 2047.58 5426.85)" fill="#FFFFFF"/>
</g>
</g>
<g id="Page 1">
<g id="Group 3">
<mask id="mask0_outline" mask-type="alpha">
<g id="Clip 2">
<use xlink:href="#path11_fill" transform="matrix(0.97437 -0.224951 0.224951 0.97437 2033.35 5383.87)" fill="#FFFFFF"/>
</g>
</mask>
<g id="Fill 1" mask="url(#mask0_outline)">
<use xlink:href="#path12_fill" transform="matrix(0.97437 -0.224951 0.224951 0.97437 2033.35 5383.87)" fill="#2F2564"/>
</g>
</g>
<g id="Group 3">
<mask id="mask1_outline" mask-type="alpha">
<g id="Clip 2">
<use xlink:href="#path11_fill" transform="matrix(0.97437 -0.224951 0.224951 0.97437 2047.03 5381.03)" fill="#FFFFFF"/>
</g>
</mask>
<g id="Fill 1" mask="url(#mask1_outline)">
<use xlink:href="#path12_fill" transform="matrix(0.97437 -0.224951 0.224951 0.97437 2047.03 5381.03)" fill="#2F2564"/>
</g>
</g>
</g>
<g id="Path 8">
<use xlink:href="#path13_fill" transform="translate(2023 5365)" fill="#D8D8D8" fill-opacity="0.27" style="mix-blend-mode:multiply"/>
</g>
</g>
<g id="mascot_mouth_happy">
<g id="Path 6">
<use xlink:href="#path14_stroke" transform="translate(2042 5400)" fill="#FF5657"/>
</g>
</g>
</g>
</g>
<defs>
<filter id="filter0_i" filterUnits="userSpaceOnUse" x="2015" y="5355" width="59" height="82" color-interpolation-filters="sRGB">
<feFlood flood-opacity="0" result="BackgroundImageFix"/>
<feBlend mode="normal" in="SourceGraphic" in2="BackgroundImageFix" result="shape"/>
<feColorMatrix in="SourceAlpha" type="matrix" values="0 0 0 0 0 0 0 0 0 0 0 0 0 0 0 0 0 0 255 0" result="hardAlpha"/>
<feOffset dx="0" dy="3"/>
<feGaussianBlur stdDeviation="1.5"/>
<feComposite in2="hardAlpha" operator="arithmetic" k2="-1" k3="1"/>
<feColorMatrix type="matrix" values="0 0 0 0 0 0 0 0 0 0 0 0 0 0 0 0 0 0 0.064906 0"/>
<feBlend mode="normal" in2="shape" result="effect1_innerShadow"/>
</filter>
<linearGradient id="paint10_linear" x1="0" y1="0" x2="1" y2="0" gradientUnits="userSpaceOnUse" gradientTransform="matrix(-0.0125902 39.4036 -80.7141 -0.00614636 49.6664 -6.8802)">
<stop offset="0" stop-color="#FFFFFF"/>
<stop offset="0.637244" stop-color="#5D5D5D"/>
<stop offset="0.637244" stop-color="#5D5D5D"/>
<stop offset="1"/>
</linearGradient>
<path id="path0_stroke" d="M 2.0055 -1.95396C 0.926363 -3.06157 -0.846348 -3.08465 -1.95396 -2.0055C -3.06157 -0.926363 -3.08465 0.846348 -2.0055 1.95396L 2.0055 -1.95396ZM 20.426 15.7405C 21.9395 16.0576 23.4235 15.0876 23.7405 13.574C 24.0576 12.0605 23.0876 10.5765 21.574 10.2595L 20.426 15.7405ZM 0 0C -2.0055 1.95396 -2.00509 1.95439 -2.00463 1.95486C -2.00442 1.95507 -2.00392 1.95558 -2.00351 1.956C -2.00293 1.95659 -2.00169 1.95787 -2.00054 1.95904C -1.99875 1.96087 -1.9953 1.96441 -1.99172 1.96806C -1.98558 1.97432 -1.97481 1.98527 -1.96259 1.99766C -1.94021 2.02034 -1.90349 2.05739 -1.85926 2.10163C -1.77505 2.18585 -1.64272 2.31696 -1.47892 2.47625C -1.16027 2.78599 -0.674663 3.24833 -0.0760008 3.79349C 1.10182 4.86526 2.84314 6.36759 4.88615 7.9121C 8.92373 10.9608 14.575 14.515 20.426 15.7405L 21.574 10.2595C 16.9541 9.2918 12.1053 6.34603 8.26064 3.44301C 6.36252 2.01167 4.81714 0.675224 3.69355 -0.347825C 3.1415 -0.85007 2.72272 -1.24915 2.42467 -1.53897C 2.2801 -1.67947 2.176 -1.78267 2.10087 -1.85783C 2.06542 -1.89327 2.04174 -1.91718 2.02364 -1.93553C 2.01562 -1.94365 2.01112 -1.94823 2.00706 -1.95238C 2.00554 -1.95393 2.00516 -1.95432 2.00439 -1.9551C 2.00426 -1.95524 2.0044 -1.95509 2.00447 -1.95502C 2.00456 -1.95492 2.00482 -1.95466 2.00487 -1.95461C 2.00517 -1.9543 2.0055 -1.95396 0 0Z"/>
<path id="path1_stroke" d="M 8.48842 2.60473C 9.92697 1.7827 10.4268 -0.0498645 9.60473 -1.48842C 8.7827 -2.92697 6.95014 -3.42676 5.51158 -2.60473L 8.48842 2.60473ZM -1.48842 1.39527C -2.92697 2.2173 -3.42676 4.04986 -2.60473 5.48842C -1.7827 6.92697 0.0498645 7.42676 1.48842 6.60473L -1.48842 1.39527ZM 5.51158 -2.60473L -1.48842 1.39527L 1.48842 6.60473L 8.48842 2.60473L 5.51158 -2.60473Z"/>
<path id="path2_stroke" d="M 8.18176 2.75744C 9.70465 2.10477 10.4101 0.341131 9.75743 -1.18176C 9.10477 -2.70465 7.34113 -3.4101 5.81824 -2.75744L 8.18176 2.75744ZM -1.18176 0.242565C -2.70465 0.895232 -3.4101 2.65887 -2.75744 4.18176C -2.10477 5.70465 -0.341131 6.4101 1.18176 5.75744L -1.18176 0.242565ZM 5.81824 -2.75744L -1.18176 0.242565L 1.18176 5.75744L 8.18176 2.75744L 5.81824 -2.75744Z"/>
<path id="path3_stroke" d="M -0.431529 12.1373C -0.0795641 13.7563 1.51825 14.7835 3.13729 14.4315C 4.75633 14.0796 5.78349 12.4817 5.43153 10.8627L -0.431529 12.1373ZM 2.93153 -0.637289C 2.57956 -2.25633 0.98175 -3.28349 -0.637289 -2.93153C -2.25633 -2.57956 -3.28349 -0.98175 -2.93153 0.637289L 2.93153 -0.637289ZM 5.43153 10.8627L 2.93153 -0.637289L -2.93153 0.637289L -0.431529 12.1373L 5.43153 10.8627Z"/>
<path id="path4_stroke" d="M 6.54349 2.57248C 7.96423 1.72003 8.42492 -0.122746 7.57248 -1.54349C 6.72003 -2.96423 4.87725 -3.42492 3.45651 -2.57248L 6.54349 2.57248ZM -1.54349 0.427521C -2.96423 1.27997 -3.42492 3.12275 -2.57248 4.54349C -1.72003 5.96423 0.122746 6.42492 1.54349 5.57248L -1.54349 0.427521ZM 3.45651 -2.57248L -1.54349 0.427521L 1.54349 5.57248L 6.54349 2.57248L 3.45651 -2.57248Z"/>
<path id="path5_stroke" d="M 14.6751 19.589C 16.1321 20.1072 17.7333 19.3462 18.2515 17.8893C 18.7698 16.4323 18.0088 14.8311 16.5518 14.3128L 14.6751 19.589ZM 2.74424 -0.555995C 2.43718 -2.0716 0.959608 -3.05131 -0.555995 -2.74424C -2.0716 -2.43718 -3.05131 -0.959608 -2.74424 0.555995L 2.74424 -0.555995ZM 15.6135 16.9509C 16.5518 14.3128 16.5527 14.3132 16.5536 14.3135C 16.5539 14.3136 16.5547 14.3139 16.5552 14.314C 16.5549 14.3139 16.5579 14.315 16.5574 14.3148C 16.5576 14.3149 16.5588 14.3153 16.5583 14.3152C 16.5547 14.3139 16.5535 14.3134 16.5465 14.3108C 16.5272 14.3037 16.5072 14.2962 16.4702 14.282C 16.3852 14.2493 16.2794 14.2077 16.122 14.1419C 15.7845 14.0013 15.3456 13.8085 14.7679 13.5212C 13.5638 12.925 12.0678 12.0888 10.4232 10.8439C 7.02671 8.30319 3.73794 4.86788 2.74424 -0.555995L -2.74424 0.555995C -1.24945 7.41465 3.26851 12.4548 7.05665 15.319C 9.00429 16.7765 10.9451 17.875 12.2797 18.538C 12.9713 18.8802 13.5773 19.148 13.9672 19.3108C 14.1736 19.3967 14.3522 19.4673 14.4607 19.509C 14.5204 19.532 14.5744 19.5522 14.6049 19.5635C 14.6228 19.5701 14.6405 19.5765 14.6495 19.5798C 14.6554 19.5819 14.6618 19.5842 14.6647 19.5853C 14.6669 19.5861 14.6695 19.587 14.6705 19.5874C 14.6714 19.5877 14.6725 19.5881 14.673 19.5883C 14.6741 19.5886 14.6751 19.589 15.6135 16.9509Z"/>
<path id="path6_fill" fill-rule="evenodd" d="M 1.88448 12.9538C -1.09815 10.957 -0.144791 6.34627 3.38515 5.69607L 33.9595 0.0644337C 34.9724 -0.122138 36.0182 0.0891868 36.8792 0.654405L 64.4734 18.7692C 68.1548 21.1859 67.1402 26.8371 62.8481 27.8223L 45.3568 31.8372C 38.1019 33.5024 30.4813 32.0987 24.2959 27.9577L 1.88448 12.9538Z"/>
<path id="path7_fill" fill-rule="evenodd" d="M 0 8C 0 3.58172 3.58172 0 8 0L 32.7642 0C 37.1825 0 40.7642 3.58172 40.7642 8L 40.7642 66.1018C 40.7642 70.5201 37.1825 74.1018 32.7642 74.1018L 8 74.1018C 3.58172 74.1018 0 70.5201 0 66.1018L 0 8Z"/>
<path id="path8_stroke" d="M 8.07754 9.07878C 8.35072 9.35233 8.79394 9.35262 9.06749 9.07944C 9.34103 8.80625 9.34133 8.36303 9.06814 8.08949L 8.07754 9.07878ZM 0.771844 -0.217741C 0.498657 -0.491288 0.0554414 -0.49158 -0.218106 -0.218393C -0.491652 0.0547939 -0.491944 0.498009 -0.218757 0.771556L 0.771844 -0.217741ZM 9.06814 8.08949L 0.771844 -0.217741L -0.218757 0.771556L 8.07754 9.07878L 9.06814 8.08949Z"/>
<path id="path9_fill" fill-rule="evenodd" d="M 0 1C 0 0.447715 0.447715 0 1 0L 31.6025 0C 32.1548 0 32.6025 0.447715 32.6025 1L 32.6025 55.4138C 32.6025 55.9661 32.1548 56.4138 31.6025 56.4138L 1 56.4138C 0.447715 56.4138 0 55.9661 0 55.4138L 0 1Z"/>
<path id="path10_fill" fill-rule="evenodd" d="M 2.92617 5.86006C 4.54225 5.86006 5.85235 4.54824 5.85235 2.93003C 5.85235 1.31182 4.54225 0 2.92617 0C 1.31009 0 0 1.31182 0 2.93003C 0 4.54824 1.31009 5.86006 2.92617 5.86006Z"/>
<path id="path11_fill" fill-rule="evenodd" d="M 0 5.51851L 0 0L 3.93976 0L 3.93976 5.51851L 0 5.51851Z"/>
<path id="path12_fill" fill-rule="evenodd" d="M 1.98964 0L 1.95027 0C 0.873158 0 0 0.888273 0 1.98389L 0 3.53467C 0 4.63029 0.873158 5.51856 1.95027 5.51856L 1.98964 5.51856C 3.06675 5.51856 3.93991 4.63029 3.93991 3.53467L 3.93991 1.98389C 3.93991 0.888273 3.06675 0 1.98964 0Z"/>
<path id="path13_fill" fill-rule="evenodd" d="M 16 0L 21 57L 11 59L 0 4L 16 0Z"/>
<path id="path14_stroke" d="M -0.124035 0.00772212C -0.672055 0.0762246 -1.06078 0.576015 -0.992278 1.12403C -0.923775 1.67205 -0.423985 2.06078 0.124035 1.99228L -0.124035 0.00772212ZM 8.12403 0.992278C 8.67205 0.923775 9.06078 0.423985 8.99228 -0.124035C 8.92378 -0.672055 8.42399 -1.06078 7.87597 -0.992278L 8.12403 0.992278ZM 0.124035 1.99228L 8.12403 0.992278L 7.87597 -0.992278L -0.124035 0.00772212L 0.124035 1.99228Z"/>
</defs>
</svg>
