<svg width="86" height="79" viewBox="0 0 86 79" version="1.1" xmlns="http://www.w3.org/2000/svg" xmlns:xlink="http://www.w3.org/1999/xlink">
    <title>Group 20</title>
    <desc>Created using Figma</desc>
    <g id="Canvas" transform="translate(-1315 -5788)">
        <g id="Group 20">
            <g id="Group 8">
                <g id="Rectangle 4" opacity="0.178159">
                    <use xlink:href="#path0_fill" transform="translate(1320.37 5833.05)" fill="url(#paint0_linear)"/>
                </g>
                <g id="Mascot">
                    <g id="Path 5 Copy">
                        <use xlink:href="#path1_stroke" transform="matrix(0.906308 -0.422618 0.422618 0.906308 1390.33 5843.73)" fill="#A499FF"/>
                    </g>
                    <g id="Group 7">
                        <g id="Group 4">
                            <g id="Group">
                                <g id="Group 2">
                                    <g id="Rectangle 5 Copy" filter="url(#filter0_i)">
                                        <use xlink:href="#path2_fill" transform="matrix(0.978148 -0.207912 0.207912 0.978148 1337.94 5795.73)" fill="#2F2B64"/>
                                    </g>
                                    <g id="Line Copy 8">
                                        <use xlink:href="#path3_stroke" transform="matrix(0.544639 -0.838671 0.838671 0.544639 1352.81 5795.94)" fill="#B0B1B1"/>
                                    </g>
                                    <g id="Rectangle 6 Copy">
                                        <use xlink:href="#path4_fill" transform="matrix(0.978148 -0.207912 0.207912 0.978148 1343.48 5801.53)" fill="#FFFFFF"/>
                                    </g>
                                    <g id="Oval 7 Copy">
                                        <use xlink:href="#path5_fill" transform="matrix(0.544639 -0.838671 0.838671 0.544639 1368.58 5859.85)" fill="#FFFFFF"/>
                                    </g>
                                </g>
                                <g id="Page 1">
                                    <g id="Group 3">
                                        <mask id="mask0_outline" mask-type="alpha">
                                            <g id="Clip 2">
                                                <use xlink:href="#path6_fill" transform="matrix(0.97437 -0.224951 0.224951 0.97437 1354.35 5816.87)" fill="#FFFFFF"/>
                                            </g>
                                        </mask>
                                        <g id="Fill 1" mask="url(#mask0_outline)">
                                            <use xlink:href="#path7_fill" transform="matrix(0.97437 -0.224951 0.224951 0.97437 1354.35 5816.87)" fill="#2F2564"/>
                                        </g>
                                    </g>
                                    <g id="Group 6">
                                        <mask id="mask1_outline" mask-type="alpha">
                                            <g id="Clip 5">
                                                <use xlink:href="#path8_fill" transform="matrix(0.97437 -0.224951 0.224951 0.97437 1365.75 5814.5)" fill="#FFFFFF"/>
                                            </g>
                                        </mask>
                                        <g id="Fill 4" mask="url(#mask1_outline)">
                                            <use xlink:href="#path9_fill" transform="matrix(0.97437 -0.224951 0.224951 0.97437 1365.75 5814.5)" fill="#2F2564"/>
                                        </g>
                                    </g>
                                    <g id="Fill 7">
                                        <use xlink:href="#path10_fill" transform="matrix(0.97437 -0.224951 0.224951 0.97437 1358.34 5827.62)" fill="#FF585B"/>
                                    </g>
                                </g>
                                <g id="Path 2">
                                    <use xlink:href="#path11_stroke" transform="matrix(0.642788 -0.766044 0.766044 0.642788 1331.56 5828.22)" fill="#2F2B64"/>
                                </g>
                                <g id="Rectangle">
                                    <use xlink:href="#path12_fill" transform="matrix(0.642788 -0.766044 0.766044 0.642788 1317.89 5820.97)" fill="#A49EFC"/>
                                    <mask id="mask2_outline_ins">
                                        <use xlink:href="#path12_fill" fill="white" transform="matrix(0.642788 -0.766044 0.766044 0.642788 1317.89 5820.97)"/>
                                    </mask>
                                    <g mask="url(#mask2_outline_ins)">
                                        <use xlink:href="#path13_stroke_2x" transform="matrix(0.642788 -0.766044 0.766044 0.642788 1317.89 5820.97)" fill="#A49EFC"/>
                                    </g>
                                </g>
                                <g id="Group 5">
                                    <g id="Line">
                                        <use xlink:href="#path14_stroke" transform="matrix(0.207912 -0.978148 0.978148 0.207912 1316.82 5822.2)" fill="#A49EFC"/>
                                    </g>
                                    <g id="Line">
                                        <use xlink:href="#path15_stroke" transform="matrix(0.207912 -0.978148 0.978148 0.207912 1315.98 5826.15)" fill="#A49EFC"/>
                                    </g>
                                    <g id="Line Copy">
                                        <use xlink:href="#path14_stroke" transform="matrix(0.207912 -0.978148 0.978148 0.207912 1317.49 5819.04)" fill="#A49EFC"/>
                                    </g>
                                    <g id="Line Copy 2">
                                        <use xlink:href="#path16_stroke" transform="matrix(0.207912 -0.978148 0.978148 0.207912 1317.82 5817.46)" fill="#A49EFC"/>
                                    </g>
                                </g>
                            </g>
                            <g id="Path 7">
                                <use xlink:href="#path17_stroke" transform="matrix(0.920505 -0.390731 0.390731 0.920505 1323.72 5811.51)" fill="#A49EFC"/>
                            </g>
                        </g>
                        <g id="Path 4">
                            <use xlink:href="#path18_stroke" transform="matrix(0.838671 -0.544639 0.544639 0.838671 1384.9 5828.57)" fill="#2F2564"/>
                        </g>
                        <g id="Path 5 Copy 2">
                            <use xlink:href="#path19_stroke" transform="matrix(0.906308 -0.422618 0.422618 0.906308 1389.67 5841.32)" fill="#A499FF"/>
                        </g>
                    </g>
                    <g id="Path 5">
                        <use xlink:href="#path1_stroke" transform="matrix(0.978148 -0.207912 0.207912 0.978148 1389.58 5844.74)" fill="#A499FF"/>
                    </g>
                </g>
            </g>
            <g id="Path 8">
                <use xlink:href="#path20_fill" transform="translate(1344 5798)" fill="#D8D8D8" fill-opacity="0.27" style="mix-blend-mode:multiply"/>
            </g>
        </g>
    </g>
    <defs>
        <filter id="filter0_i" filterUnits="userSpaceOnUse" x="1339" y="5788" width="53" height="82" color-interpolation-filters="sRGB">
            <feFlood flood-opacity="0" result="BackgroundImageFix"/>
            <feBlend mode="normal" in="SourceGraphic" in2="BackgroundImageFix" result="shape"/>
            <feColorMatrix in="SourceAlpha" type="matrix" values="0 0 0 0 0 0 0 0 0 0 0 0 0 0 0 0 0 0 255 0" result="hardAlpha"/>
            <feOffset dx="0" dy="3"/>
            <feGaussianBlur stdDeviation="1.5"/>
            <feComposite in2="hardAlpha" operator="arithmetic" k2="-1" k3="1"/>
            <feColorMatrix type="matrix" values="0 0 0 0 0 0 0 0 0 0 0 0 0 0 0 0 0 0 0.064906 0"/>
            <feBlend mode="normal" in2="shape" result="effect1_innerShadow"/>
        </filter>
        <linearGradient id="paint0_linear" x1="0" y1="0" x2="1" y2="0" gradientUnits="userSpaceOnUse" gradientTransform="matrix(-0.0125902 39.4036 -80.7141 -0.00614636 49.6664 -6.8802)">
            <stop offset="0" stop-color="#FFFFFF"/>
            <stop offset="0.637244" stop-color="#5D5D5D"/>
            <stop offset="0.637244" stop-color="#5D5D5D"/>
            <stop offset="1"/>
        </linearGradient>
        <path id="path0_fill" fill-rule="evenodd" d="M 1.88448 12.9538C -1.09815 10.957 -0.144791 6.34627 3.38515 5.69607L 33.9595 0.0644337C 34.9724 -0.122138 36.0182 0.0891868 36.8792 0.654405L 64.4734 18.7692C 68.1548 21.1859 67.1402 26.8371 62.8481 27.8223L 45.3568 31.8372C 38.1019 33.5024 30.4813 32.0987 24.2959 27.9577L 1.88448 12.9538Z"/>
        <path id="path1_stroke" d="M 4.21737 1.55C 5.07341 0.262155 4.72336 -1.47581 3.43552 -2.33185C 2.14768 -3.18789 0.409715 -2.83784 -0.446325 -1.55L 4.21737 1.55ZM 0 2.83661L -2.33185 1.28662C -3.13418 2.49366 -2.88276 4.11349 -1.75228 5.02053L 0 2.83661ZM 2.96152 8.80269C 4.16767 9.77045 5.92996 9.5772 6.89772 8.37105C 7.86548 7.1649 7.67223 5.40261 6.46609 4.43485L 2.96152 8.80269ZM -0.446325 -1.55L -2.33185 1.28662L 2.33185 4.38661L 4.21737 1.55L -0.446325 -1.55ZM -1.75228 5.02053L 2.96152 8.80269L 6.46609 4.43485L 1.75228 0.652695L -1.75228 5.02053Z"/>
        <path id="path2_fill" fill-rule="evenodd" d="M 0 8C 0 3.58172 3.58172 0 8 0L 32.7642 0C 37.1825 0 40.7642 3.58172 40.7642 8L 40.7642 66.1018C 40.7642 70.5201 37.1825 74.1018 32.7642 74.1018L 8 74.1018C 3.58172 74.1018 0 70.5201 0 66.1018L 0 8Z"/>
        <path id="path3_stroke" d="M 8.07754 9.07878C 8.35072 9.35233 8.79394 9.35262 9.06749 9.07944C 9.34103 8.80625 9.34133 8.36303 9.06814 8.08949L 8.07754 9.07878ZM 0.771844 -0.217741C 0.498657 -0.491288 0.0554414 -0.49158 -0.218106 -0.218393C -0.491652 0.0547939 -0.491944 0.498009 -0.218757 0.771556L 0.771844 -0.217741ZM 9.06814 8.08949L 0.771844 -0.217741L -0.218757 0.771556L 8.07754 9.07878L 9.06814 8.08949Z"/>
        <path id="path4_fill" fill-rule="evenodd" d="M 0 1C 0 0.447715 0.447715 0 1 0L 31.6025 0C 32.1548 0 32.6025 0.447715 32.6025 1L 32.6025 55.4138C 32.6025 55.9661 32.1548 56.4138 31.6025 56.4138L 1 56.4138C 0.447715 56.4138 0 55.9661 0 55.4138L 0 1Z"/>
        <path id="path5_fill" fill-rule="evenodd" d="M 2.92617 5.86006C 4.54225 5.86006 5.85235 4.54824 5.85235 2.93003C 5.85235 1.31182 4.54225 0 2.92617 0C 1.31009 0 0 1.31182 0 2.93003C 0 4.54824 1.31009 5.86006 2.92617 5.86006Z"/>
        <path id="path6_fill" fill-rule="evenodd" d="M 0 5.51851L 0 0L 3.93976 0L 3.93976 5.51851L 0 5.51851Z"/>
        <path id="path7_fill" fill-rule="evenodd" d="M 1.98964 0L 1.95027 0C 0.873158 0 0 0.888273 0 1.98389L 0 3.53467C 0 4.63029 0.873158 5.51856 1.95027 5.51856L 1.98964 5.51856C 3.06675 5.51856 3.93991 4.63029 3.93991 3.53467L 3.93991 1.98389C 3.93991 0.888273 3.06675 0 1.98964 0Z"/>
        <path id="path8_fill" fill-rule="evenodd" d="M 6.93207 0L 6.93207 4.94658L 0 4.94658L 0 1.89736e-15L 6.93207 1.89736e-15L 6.93207 0Z"/>
        <path id="path9_fill" fill-rule="evenodd" d="M 6.03441 4.94658C 5.53871 4.94658 5.13671 4.53749 5.13671 4.03334L 5.13671 3.50009C 5.13671 2.57737 4.3986 1.82635 3.49158 1.82635C 2.53338 1.82635 1.79527 2.57737 1.79527 3.50009L 1.79527 4.03334C 1.79527 4.53749 1.39354 4.94658 0.89757 4.94658C 0.401734 4.94658 0 4.53749 0 4.03334L 0 3.50009C 0 1.57013 1.54342 0 3.4404 0C 5.38857 0 6.93211 1.57013 6.93211 3.50009L 6.93211 4.03334C 6.93211 4.53749 6.53025 4.94658 6.03441 4.94658Z"/>
        <path id="path10_fill" fill-rule="evenodd" d="M 7.07095 5.96487C 2.83273 5.96487 0.626667 2.86133 0.0522173 1.22043C -0.113936 0.745388 0.129519 0.223346 0.596744 0.0540494C 1.06331 -0.115514 1.57503 0.131888 1.74236 0.604664C 1.79919 0.76141 3.07159 4.13839 7.07095 4.13839C 11.1156 4.13839 12.3863 0.643116 12.3986 0.608001C 12.5648 0.132422 13.0768 -0.11725 13.5456 0.0540494C 14.0125 0.223346 14.2562 0.745388 14.0898 1.22043C 13.5155 2.86133 11.3092 5.96487 7.07095 5.96487Z"/>
        <path id="path11_stroke" d="M 3.10477 19.2949C 4.32199 20.2487 6.08194 20.0352 7.03574 18.818C 7.98953 17.6008 7.77599 15.8408 6.55877 14.887L 3.10477 19.2949ZM 4.03535 0.935209C 4.55185 -0.522382 3.78895 -2.1227 2.33136 -2.6392C 0.873769 -3.1557 -0.726549 -2.3928 -1.24305 -0.935209L 4.03535 0.935209ZM 4.83177 17.091C 6.55877 14.887 6.56004 14.888 6.56128 14.889C 6.56165 14.8893 6.56286 14.8902 6.56361 14.8908C 6.56297 14.8903 6.56909 14.8951 6.5678 14.8941C 6.56696 14.8934 6.57598 14.9006 6.57426 14.8992C 6.5743 14.8993 6.57979 14.9037 6.57967 14.9036C 6.58641 14.9091 6.57411 14.8992 6.56195 14.8888C 6.52349 14.8562 6.49155 14.8286 6.4245 14.766C 6.2615 14.6153 6.08767 14.4454 5.83702 14.1574C 5.27591 13.5221 4.69511 12.7608 4.1464 11.5719C 3.08436 9.33222 2.3021 5.82653 4.03535 0.935209L -1.24305 -0.935209C -3.50323 5.44313 -2.56768 10.4829 -0.913552 13.9713C -0.104178 15.6464 0.922692 17.0448 1.62974 17.8532C 2.01317 18.2871 2.38853 18.66 2.61621 18.8717C 2.7445 18.9903 2.86827 19.0987 2.93668 19.1569C 2.97795 19.1919 3.02038 19.227 3.0415 19.2443C 3.05555 19.2557 3.07147 19.2685 3.07854 19.2742C 3.08382 19.2784 3.0904 19.2836 3.09304 19.2857C 3.09522 19.2874 3.09816 19.2897 3.09925 19.2906C 3.10023 19.2914 3.10161 19.2925 3.1021 19.2928C 3.10345 19.2939 3.10477 19.2949 4.83177 17.091Z"/>
        <path id="path12_fill" fill-rule="evenodd" d="M 0 4.19038C 0 1.8761 1.8761 0 4.19038 0C 6.50466 0 8.38076 1.8761 8.38076 4.19038L 8.38076 7.91945C 8.38076 10.2337 6.50466 12.1098 4.19038 12.1098C 1.8761 12.1098 0 10.2337 0 7.91945L 0 4.19038Z"/>
        <path id="path13_stroke_2x" d="M 5.58076 4.19038L 5.58076 7.91945L 11.1808 7.91945L 11.1808 4.19038L 5.58076 4.19038ZM 2.8 7.91945L 2.8 4.19038L -2.8 4.19038L -2.8 7.91945L 2.8 7.91945ZM 4.19038 -2.8C 0.329699 -2.8 -2.8 0.329699 -2.8 4.19038L 2.8 4.19038C 2.8 3.42249 3.42249 2.8 4.19038 2.8L 4.19038 -2.8ZM 4.19038 2.8C 4.95826 2.8 5.58076 3.42249 5.58076 4.19038L 11.1808 4.19038C 11.1808 0.329698 8.05106 -2.8 4.19038 -2.8L 4.19038 2.8ZM 5.58076 7.91945C 5.58076 8.68734 4.95826 9.30983 4.19038 9.30983L 4.19038 14.9098C 8.05106 14.9098 11.1808 11.7801 11.1808 7.91945L 5.58076 7.91945ZM 4.19038 9.30983C 3.42249 9.30983 2.8 8.68734 2.8 7.91945L -2.8 7.91945C -2.8 11.7801 0.329699 14.9098 4.19038 14.9098L 4.19038 9.30983Z"/>
        <path id="path14_stroke" d="M 4.4145 0.809628C 4.4145 -0.736769 3.1609 -1.99037 1.6145 -1.99037C 0.0681018 -1.99037 -1.1855 -0.736769 -1.1855 0.809628L 4.4145 0.809628ZM -1.1855 6.63143C -1.1855 8.17782 0.0681018 9.43143 1.6145 9.43143C 3.1609 9.43143 4.4145 8.17782 4.4145 6.63143L -1.1855 6.63143ZM -1.1855 0.809628L -1.1855 6.63143L 4.4145 6.63143L 4.4145 0.809628L -1.1855 0.809628Z"/>
        <path id="path15_stroke" d="M 4.9033 0.505919C 4.73556 -0.641686 3.66927 -1.43603 2.52166 -1.26829C 1.37406 -1.10056 0.579717 -0.0342679 0.747451 1.11334L 4.9033 0.505919ZM 1.68053 7.49733C 1.84827 8.64493 2.91456 9.43927 4.06217 9.27154C 5.20977 9.10381 6.00411 8.03751 5.83638 6.88991L 1.68053 7.49733ZM 0.747451 1.11334L 1.68053 7.49733L 5.83638 6.88991L 4.9033 0.505919L 0.747451 1.11334Z"/>
        <path id="path16_stroke" d="M 6.00594 1.16819C 6.20398 -0.365471 5.12123 -1.76929 3.58756 -1.96732C 2.0539 -2.16535 0.650083 -1.0826 0.452052 0.451061L 6.00594 1.16819ZM -0.276088 6.0902C -0.474119 7.62386 0.608627 9.02768 2.14229 9.22571C 3.67596 9.42374 5.07977 8.341 5.2778 6.80733L -0.276088 6.0902ZM 0.452052 0.451061L -0.276088 6.0902L 5.2778 6.80733L 6.00594 1.16819L 0.452052 0.451061Z"/>
        <path id="path17_stroke" d="M -2.39878 13.7521C -2.11461 15.2721 -0.651984 16.274 0.868079 15.9899C 2.38814 15.7057 3.39003 14.2431 3.10585 12.723L -2.39878 13.7521ZM 6.97723 2.46898C 8.34081 1.73959 8.85492 0.0429112 8.12554 -1.32067C 7.39616 -2.68424 5.69948 -3.19836 4.3359 -2.46898L 6.97723 2.46898ZM 0.353535 13.2375C 3.10585 12.723 3.10604 12.724 3.10623 12.725C 3.10628 12.7253 3.10646 12.7263 3.10657 12.7268C 3.10649 12.7264 3.10729 12.7307 3.10713 12.7299C 3.10707 12.7296 3.1079 12.7341 3.10778 12.7335C 3.10807 12.7351 3.10786 12.734 3.10734 12.7309C 3.10526 12.719 3.10386 12.7109 3.10029 12.6883C 3.09113 12.6312 3.0816 12.5686 3.06809 12.4634C 3.0373 12.2275 3.00582 11.942 2.98305 11.5377C 2.93138 10.6738 2.92422 9.67153 3.12016 8.46809C 3.48844 6.10418 4.51287 3.78718 6.97723 2.46898L 4.3359 -2.46898C -0.270443 -0.00502247 -1.89753 4.29674 -2.41309 7.60606C -2.65907 9.23923 -2.66623 10.8372 -2.60742 11.8643C -2.57495 12.4057 -2.52357 12.8883 -2.48531 13.1843C -2.4643 13.3451 -2.44275 13.4893 -2.42947 13.5725C -2.42182 13.6201 -2.41416 13.6656 -2.40998 13.6897C -2.40737 13.7046 -2.40457 13.7204 -2.40322 13.7279C -2.40228 13.7331 -2.40117 13.7392 -2.40069 13.7417C -2.40032 13.7438 -2.39985 13.7464 -2.39966 13.7474C -2.3995 13.7482 -2.39928 13.7494 -2.3992 13.7498C -2.39899 13.751 -2.39878 13.7521 0.353535 13.2375Z"/>
        <path id="path18_stroke" d="M 2.68874 -1.25443C 1.99594 -2.63695 0.313556 -3.19608 -1.06897 -2.50328C -2.45149 -1.81047 -3.01062 -0.12809 -2.31781 1.25443L 2.68874 -1.25443ZM 6.92287 8.75613L 9.72287 8.75613C 9.72287 7.87621 9.30923 7.04746 8.60604 6.51851L 6.92287 8.75613ZM -2.16513 12.1488C -3.14568 13.3446 -2.97121 15.1089 -1.77544 16.0894C -0.579673 17.07 1.18458 16.8955 2.16513 15.6997L -2.16513 12.1488ZM 0.185466 0C -2.31781 1.25443 -2.31761 1.25484 -2.31739 1.25528C -2.3173 1.25545 -2.31707 1.25591 -2.3169 1.25626C -2.31667 1.2567 -2.31615 1.25775 -2.3157 1.25863C -2.31508 1.25987 -2.31375 1.26252 -2.3125 1.265C -2.31052 1.26892 -2.30675 1.27638 -2.3028 1.28416C -2.29597 1.29762 -2.28405 1.32101 -2.27045 1.34746C -2.24546 1.39606 -2.20445 1.47509 -2.15522 1.56827C -2.06139 1.74574 -1.91338 2.02016 -1.73266 2.34175C -1.38141 2.96602 -0.84096 3.88093 -0.19557 4.85867C 1.07418 6.77575 3.06829 9.32851 5.23971 10.9938L 8.60604 6.51851C 7.00641 5.34715 5.63182 3.52183 4.47563 1.77C 3.90805 0.913284 3.47122 0.171032 3.14842 -0.403255C 2.99213 -0.680944 2.87893 -0.891151 2.7958 -1.04848C 2.75655 -1.1227 2.73016 -1.17362 2.70986 -1.21311C 2.7008 -1.23071 2.69561 -1.24091 2.69098 -1.25003C 2.6892 -1.25353 2.68866 -1.2546 2.68776 -1.2564C 2.68757 -1.25677 2.68762 -1.25667 2.68772 -1.25647C 2.68764 -1.25663 2.68814 -1.25564 2.6881 -1.25572C 2.68818 -1.25555 2.68835 -1.25523 2.68839 -1.25514C 2.68856 -1.2548 2.68874 -1.25443 0.185466 0ZM 6.92287 8.75613C 5.53917 6.32193 5.53893 6.32207 5.53867 6.32221C 5.53856 6.32228 5.53828 6.32243 5.53805 6.32256C 5.53775 6.32273 5.53708 6.32312 5.53648 6.32346C 5.53557 6.32398 5.53376 6.32501 5.53195 6.32604C 5.52892 6.32777 5.52348 6.33088 5.51747 6.33431C 5.50666 6.3405 5.48864 6.35084 5.46746 6.36305C 5.42754 6.38607 5.36446 6.42263 5.28834 6.46718C 5.14124 6.55332 4.91839 6.6853 4.65478 6.84523C 4.13849 7.15863 3.39629 7.62249 2.61049 8.14976C 1.11929 9.15125 -0.929365 10.6418 -2.16513 12.1488L 2.16513 15.6997C 2.82307 14.8974 4.23586 13.8039 5.73266 12.7986C 6.44087 12.3225 7.07432 11.9274 7.56017 11.6326C 7.79764 11.4884 7.98249 11.379 8.11781 11.2998C 8.18292 11.2617 8.22974 11.2345 8.26441 11.2146C 8.28052 11.2053 8.29098 11.1993 8.29931 11.1945C 8.30288 11.1925 8.30467 11.1914 8.30649 11.1904C 8.30711 11.19 8.30713 11.19 8.30744 11.1899C 8.30745 11.1898 8.30724 11.19 8.30724 11.19C 8.30717 11.19 8.307 11.1901 8.30697 11.1901C 8.30678 11.1902 8.30658 11.1903 6.92287 8.75613Z"/>
        <path id="path19_stroke" d="M 2.07573 0L 4.30857 -1.6895C 3.74778 -2.43064 2.85579 -2.84522 1.9277 -2.79608C 0.999608 -2.74695 0.156377 -2.2405 -0.323022 -1.4443L 2.07573 0ZM 0 3.44746L -2.39875 2.00316C -3.12172 3.2039 -2.84549 4.75423 -1.75228 5.63138L 0 3.44746ZM 4.7138 7.22961L 2.96152 9.41353C 3.95492 10.2106 5.36109 10.2368 6.3835 9.4773L 4.7138 7.22961ZM 6.52694 5.88272L 8.19664 8.13041C 8.79621 7.68502 9.19298 7.01854 9.29873 6.27917C 9.40448 5.5398 9.21045 4.78883 8.75978 4.19322L 6.52694 5.88272ZM -0.323022 -1.4443L -2.39875 2.00316L 2.39875 4.89175L 4.47448 1.4443L -0.323022 -1.4443ZM -1.75228 5.63138L 2.96152 9.41353L 6.46609 5.04569L 1.75228 1.26354L -1.75228 5.63138ZM 6.3835 9.4773L 8.19664 8.13041L 4.85724 3.63503L 3.04411 4.98192L 6.3835 9.4773ZM 8.75978 4.19322L 4.30857 -1.6895L -0.157115 1.6895L 4.2941 7.57222L 8.75978 4.19322Z"/>
        <path id="path20_fill" fill-rule="evenodd" d="M 16 0L 21 57L 11 59L 0 4L 16 0Z"/>
    </defs>
</svg>
