<svg width="150" height="150" viewBox="0 0 150 150" version="1.1" xmlns="http://www.w3.org/2000/svg" xmlns:xlink="http://www.w3.org/1999/xlink">
<title>Mascot_012</title>
<desc>Created using Figma</desc>
<g id="Canvas" transform="translate(-3010 -5312)">
<clipPath id="clip-0" clip-rule="evenodd">
<path d="M 3010 5312L 3160 5312L 3160 5462L 3010 5462L 3010 5312Z" fill="#FFFFFF"/>
</clipPath>
<g id="Mascot_012" clip-path="url(#clip-0)">
<path d="M 3010 5312L 3160 5312L 3160 5462L 3010 5462L 3010 5312Z" fill="#FFFFFF"/>
<g id="Rectangle 4" opacity="0.178159">
<use xlink:href="#path0_fill" transform="translate(3039.37 5400.05)" fill="url(#paint0_linear)"/>
</g>
<g id="mascot_arm_right copy">
<g id="Path 2">
<use xlink:href="#path1_stroke" transform="matrix(0.731354 -0.681998 0.681998 0.731354 3104.1 5399.02)" fill="#2F2B64"/>
</g>
<g id="Group 4">
<g id="Line">
<use xlink:href="#path2_stroke" transform="matrix(0.848048 -0.529919 -0.529919 -0.848048 3132.37 5422.35)" fill="#A499FF"/>
</g>
<g id="Group">
<g id="Line">
<use xlink:href="#path3_stroke" transform="matrix(0.848048 -0.529919 -0.529919 -0.848048 3130.72 5428.5)" fill="#A499FF"/>
</g>
</g>
<g id="Line Copy">
<use xlink:href="#path4_stroke" transform="matrix(0.848048 -0.529919 -0.529919 -0.848048 3134.23 5416.36)" fill="#A499FF"/>
</g>
<g id="Oval">
<use xlink:href="#path5_fill" transform="matrix(-0.981627 0.190809 -0.190809 -0.981627 3135.22 5422.1)" fill="#A499FF"/>
</g>
<g id="Line Copy 2">
<use xlink:href="#path6_stroke" transform="matrix(0.848048 -0.529919 -0.529919 -0.848048 3133.01 5413.96)" fill="#A499FF"/>
</g>
</g>
</g>
<g id="Group">
<g id="Group 2">
<g id="Rectangle 5 Copy" filter="url(#filter0_i)">
<use xlink:href="#path7_fill" transform="matrix(0.978148 -0.207912 0.207912 0.978148 3056.94 5362.73)" fill="#2F2B64"/>
</g>
<g id="Line Copy 8">
<use xlink:href="#path8_stroke" transform="matrix(0.544639 -0.838671 0.838671 0.544639 3071.81 5362.94)" fill="#B0B1B1"/>
</g>
<g id="Rectangle 6 Copy">
<use xlink:href="#path9_fill" transform="matrix(0.978148 -0.207912 0.207912 0.978148 3062.48 5368.53)" fill="#FFFFFF"/>
</g>
<g id="Oval 7 Copy">
<use xlink:href="#path10_fill" transform="matrix(0.544639 -0.838671 0.838671 0.544639 3087.58 5426.85)" fill="#FFFFFF"/>
</g>
</g>
<g id="mascot_mouth_happy">
<g id="Path 6">
<use xlink:href="#path11_stroke" transform="translate(3082 5399)" fill="#FF5657"/>
</g>
</g>
<g id="Page 1">
<g id="Group 3">
<mask id="mask0_outline" mask-type="alpha">
<g id="Clip 2">
<use xlink:href="#path12_fill" transform="matrix(0.97437 -0.224951 0.224951 0.97437 3073.35 5383.87)" fill="#FFFFFF"/>
</g>
</mask>
<g id="Fill 1" mask="url(#mask0_outline)">
<use xlink:href="#path13_fill" transform="matrix(0.97437 -0.224951 0.224951 0.97437 3073.35 5383.87)" fill="#2F2564"/>
</g>
</g>
<g id="Group 3">
<mask id="mask1_outline" mask-type="alpha">
<g id="Clip 2">
<use xlink:href="#path12_fill" transform="matrix(0.97437 -0.224951 0.224951 0.97437 3087.03 5381.03)" fill="#FFFFFF"/>
</g>
</mask>
<g id="Fill 1" mask="url(#mask1_outline)">
<use xlink:href="#path13_fill" transform="matrix(0.97437 -0.224951 0.224951 0.97437 3087.03 5381.03)" fill="#2F2564"/>
</g>
</g>
</g>
<g id="Path 8">
<use xlink:href="#path14_fill" transform="translate(3063 5365)" fill="#D8D8D8" fill-opacity="0.27" style="mix-blend-mode:multiply"/>
</g>
</g>
<g id="mascot_arm_left">
<g id="Group 4">
<g id="Path 2">
<use xlink:href="#path15_stroke" transform="matrix(0.731354 -0.681998 0.681998 0.731354 3041 5413.61)" fill="#2F2B64"/>
</g>
</g>
<g id="Group 5">
<g id="Line">
<use xlink:href="#path16_stroke" transform="translate(3034 5407)" fill="#A499FF"/>
</g>
<g id="Line Copy">
<use xlink:href="#path17_stroke" transform="translate(3035 5412)" fill="#A499FF"/>
</g>
<g id="Line Copy">
<use xlink:href="#path18_stroke" transform="translate(3038 5400)" fill="#A499FF"/>
</g>
<g id="Line Copy 2">
<use xlink:href="#path19_stroke" transform="translate(3037 5416)" fill="#A499FF"/>
</g>
</g>
</g>
</g>
</g>
<defs>
<filter id="filter0_i" filterUnits="userSpaceOnUse" x="3055" y="5355" width="59" height="82" color-interpolation-filters="sRGB">
<feFlood flood-opacity="0" result="BackgroundImageFix"/>
<feBlend mode="normal" in="SourceGraphic" in2="BackgroundImageFix" result="shape"/>
<feColorMatrix in="SourceAlpha" type="matrix" values="0 0 0 0 0 0 0 0 0 0 0 0 0 0 0 0 0 0 255 0" result="hardAlpha"/>
<feOffset dx="0" dy="3"/>
<feGaussianBlur stdDeviation="1.5"/>
<feComposite in2="hardAlpha" operator="arithmetic" k2="-1" k3="1"/>
<feColorMatrix type="matrix" values="0 0 0 0 0 0 0 0 0 0 0 0 0 0 0 0 0 0 0.064906 0"/>
<feBlend mode="normal" in2="shape" result="effect1_innerShadow"/>
</filter>
<linearGradient id="paint0_linear" x1="0" y1="0" x2="1" y2="0" gradientUnits="userSpaceOnUse" gradientTransform="matrix(-0.0125902 39.4036 -80.7141 -0.00614636 49.6664 -6.8802)">
<stop offset="0" stop-color="#FFFFFF"/>
<stop offset="0.637244" stop-color="#5D5D5D"/>
<stop offset="0.637244" stop-color="#5D5D5D"/>
<stop offset="1"/>
</linearGradient>
<path id="path0_fill" fill-rule="evenodd" d="M 1.88448 12.9538C -1.09815 10.957 -0.144791 6.34627 3.38515 5.69607L 33.9595 0.0644337C 34.9724 -0.122138 36.0182 0.0891868 36.8792 0.654405L 64.4734 18.7692C 68.1548 21.1859 67.1402 26.8371 62.8481 27.8223L 45.3568 31.8372C 38.1019 33.5024 30.4813 32.0987 24.2959 27.9577L 1.88448 12.9538Z"/>
<path id="path1_stroke" d="M 1.9096 -2.04779C 0.778632 -3.10243 -0.99315 -3.04056 -2.04779 -1.9096C -3.10243 -0.778632 -3.04056 0.99315 -1.9096 2.04779L 1.9096 -2.04779ZM 4.86303 27.3134C 4.11459 28.6666 4.60485 30.3703 5.95807 31.1188C 7.31128 31.8672 9.015 31.377 9.76344 30.0238L 4.86303 27.3134ZM 0 0C -1.9096 2.04779 -1.9103 2.04713 -1.91095 2.04652C -1.91109 2.04639 -1.91168 2.04584 -1.91196 2.04558C -1.91192 2.04562 -1.91307 2.04454 -1.91297 2.04464C -1.91378 2.04388 -1.9125 2.04507 -1.91092 2.04657C -1.9057 2.0515 -1.90113 2.05582 -1.89102 2.06549C -1.86664 2.08878 -1.83733 2.11701 -1.7911 2.16239C -1.69019 2.26135 -1.55804 2.39323 -1.37576 2.58273C -0.993697 2.9793 -0.492822 3.52095 0.117649 4.25075C 1.37525 5.7498 2.86488 7.73885 4.16869 10.2333C 6.77622 15.1859 8.20219 21.2761 4.86303 27.3134L 9.76344 30.0238C 14.3967 21.6466 12.166 13.4025 9.12385 7.62441C 7.6028 4.75353 5.7693 2.27816 4.40998 0.654103C 3.71199 -0.17764 3.08096 -0.862207 2.65823 -1.30146C 2.43811 -1.52988 2.24965 -1.71831 2.13054 -1.83519C 2.06676 -1.89773 2.01121 -1.9513 1.97823 -1.98283C 1.95966 -2.00057 1.94243 -2.01691 1.93302 -2.0258C 1.92728 -2.03121 1.92141 -2.03673 1.91853 -2.03943C 1.91657 -2.04127 1.91434 -2.04336 1.91336 -2.04427C 1.91262 -2.04497 1.91167 -2.04585 1.9113 -2.0462C 1.91042 -2.04702 1.9096 -2.04779 0 0Z"/>
<path id="path2_stroke" d="M 5.58743 3.66044C 7.06714 2.91504 7.66241 1.11122 6.917 -0.368484C 6.1716 -1.84819 4.36779 -2.44346 2.88808 -1.69806L 5.58743 3.66044ZM -1.34968 0.436719C -2.82938 1.18212 -3.42465 2.98594 -2.67925 4.46564C -1.93384 5.94535 -0.130032 6.54062 1.34968 5.79522L -1.34968 0.436719ZM 2.88808 -1.69806L -1.34968 0.436719L 1.34968 5.79522L 5.58743 3.66044L 2.88808 -1.69806Z"/>
<path id="path3_stroke" d="M -0.614798 -2.92691C -2.23649 -2.58737 -3.27587 -0.997477 -2.93633 0.624213C -2.59678 2.2459 -1.00689 3.28529 0.614798 2.94574L -0.614798 -2.92691ZM -0.26626 9.38421C -0.327852 11.0399 0.964435 12.4321 2.62014 12.4937C 4.27585 12.5552 5.668 11.263 5.72959 9.60725L -0.26626 9.38421ZM 0 0.00941466C 0.614798 2.94574 0.609339 2.94688 0.603882 2.94801C 0.602063 2.94838 0.596589 2.9495 0.592943 2.95023C 0.596584 2.9495 0.563683 2.956 0.570996 2.95457C 0.578292 2.95317 0.512122 2.96545 0.526835 2.96279C 0.541474 2.96022 0.407748 2.98181 0.437492 2.97729C 0.46692 2.97315 0.194744 3.00379 0.255271 2.99813C 0.132122 3.00824 0.00767068 3.0104 -0.117213 3.00392C -0.370206 2.9908 -0.608114 2.94309 -0.82433 2.86905C -1.26216 2.71913 -1.51488 2.49595 -1.60836 2.39934C -1.74192 2.26128 -1.45436 2.48982 -1.00587 3.88766L 4.70727 2.05464C 4.14883 0.314084 3.51104 -0.938247 2.70385 -1.77257C 2.27357 -2.21732 1.74697 -2.59248 1.11947 -2.80736C 0.804741 -2.90147 0.356894 -2.97634 0.193658 -2.98802C 0.0461337 -2.99263 -0.163978 -2.98692 -0.235828 -2.98174C -0.30278 -2.97555 -0.399908 -2.96391 -0.43259 -2.95929C -0.463962 -2.95453 -0.510146 -2.9469 -0.525604 -2.94419C -0.540727 -2.94146 -0.563187 -2.93725 -0.570688 -2.93581C -0.578105 -2.93436 -0.589173 -2.93216 -0.592866 -2.93142C -0.596537 -2.93068 -0.602031 -2.92956 -0.603863 -2.92918C -0.609333 -2.92805 -0.614798 -2.92691 0 0.00941466ZM -1.00587 3.88766C -0.571988 5.20189 -0.409032 6.48628 -0.32255 7.63822C -0.279803 8.18896 -0.267683 8.61238 -0.264213 8.94972C -0.262417 9.10666 -0.263232 9.21268 -0.264552 9.2992C -0.265094 9.33693 -0.265581 9.3576 -0.266114 9.37755C -0.266302 9.38486 -0.266352 9.38638 -0.266475 9.39019C -0.266493 9.39078 -0.266465 9.38989 -0.266453 9.38957C -0.266471 9.39006 -0.266371 9.38724 -0.26638 9.38749C -0.266396 9.38793 -0.266318 9.38577 -0.266326 9.386C -0.266316 9.38572 -0.266299 9.38528 -0.266294 9.38514C -0.266277 9.38468 -0.26626 9.38421 2.73167 9.49573C 5.72959 9.60725 5.72961 9.60675 5.72963 9.60624C 5.72964 9.60605 5.72966 9.60553 5.72967 9.60515C 5.72969 9.60472 5.72973 9.60359 5.72976 9.60274C 5.7298 9.60167 5.72989 9.59909 5.72996 9.59696C 5.73006 9.594 5.73028 9.58756 5.73047 9.58165C 5.73076 9.57245 5.7313 9.55458 5.73178 9.53632C 5.7326 9.50514 5.73384 9.44999 5.73478 9.389C 5.73641 9.27807 5.73757 9.09503 5.73544 8.88548C 5.73107 8.48983 5.71174 7.87057 5.66011 7.18246C 5.55785 5.85671 5.28032 3.87881 4.70727 2.05464L -1.00587 3.88766Z"/>
<path id="path4_stroke" d="M 5.53454 1.96346C 6.61893 0.71075 6.48248 -1.18384 5.22977 -2.26822C 3.97707 -3.35261 2.08248 -3.21616 0.998095 -1.96346L 5.53454 1.96346ZM -2.26822 1.80986C -3.35261 3.06257 -3.21616 4.95716 -1.96346 6.04154C -0.71075 7.12593 1.18384 6.98948 2.26822 5.73677L -2.26822 1.80986ZM 0.998095 -1.96346L -2.26822 1.80986L 2.26822 5.73677L 5.53454 1.96346L 0.998095 -1.96346Z"/>
<path id="path5_fill" fill-rule="evenodd" d="M 5 15C 7.76142 15 10 11.6421 10 7.5C 10 3.35786 7.76142 0 5 0C 2.23858 0 0 3.35786 0 7.5C 0 11.6421 2.23858 15 5 15Z"/>
<path id="path6_stroke" d="M 5.2811 2.54218C 6.68511 1.66245 7.11011 -0.188891 6.23038 -1.5929C 5.35065 -2.9969 3.49931 -3.42191 2.0953 -2.54218L 5.2811 2.54218ZM -1.41094 -0.345209C -2.81495 0.534524 -3.23996 2.38586 -2.36022 3.78987C -1.48049 5.19388 0.370846 5.61888 1.77485 4.73915L -1.41094 -0.345209ZM 2.0953 -2.54218L -1.41094 -0.345209L 1.77485 4.73915L 5.2811 2.54218L 2.0953 -2.54218Z"/>
<path id="path7_fill" fill-rule="evenodd" d="M 0 8C 0 3.58172 3.58172 0 8 0L 32.7642 0C 37.1825 0 40.7642 3.58172 40.7642 8L 40.7642 66.1018C 40.7642 70.5201 37.1825 74.1018 32.7642 74.1018L 8 74.1018C 3.58172 74.1018 0 70.5201 0 66.1018L 0 8Z"/>
<path id="path8_stroke" d="M 8.07754 9.07878C 8.35072 9.35233 8.79394 9.35262 9.06749 9.07944C 9.34103 8.80625 9.34133 8.36303 9.06814 8.08949L 8.07754 9.07878ZM 0.771844 -0.217741C 0.498657 -0.491288 0.0554414 -0.49158 -0.218106 -0.218393C -0.491652 0.0547939 -0.491944 0.498009 -0.218757 0.771556L 0.771844 -0.217741ZM 9.06814 8.08949L 0.771844 -0.217741L -0.218757 0.771556L 8.07754 9.07878L 9.06814 8.08949Z"/>
<path id="path9_fill" fill-rule="evenodd" d="M 0 1C 0 0.447715 0.447715 0 1 0L 31.6025 0C 32.1548 0 32.6025 0.447715 32.6025 1L 32.6025 55.4138C 32.6025 55.9661 32.1548 56.4138 31.6025 56.4138L 1 56.4138C 0.447715 56.4138 0 55.9661 0 55.4138L 0 1Z"/>
<path id="path10_fill" fill-rule="evenodd" d="M 2.92617 5.86006C 4.54225 5.86006 5.85235 4.54824 5.85235 2.93003C 5.85235 1.31182 4.54225 0 2.92617 0C 1.31009 0 0 1.31182 0 2.93003C 0 4.54824 1.31009 5.86006 2.92617 5.86006Z"/>
<path id="path11_stroke" d="M -0.707107 1.29289C -1.09763 1.68342 -1.09763 2.31658 -0.707107 2.70711C -0.316583 3.09763 0.316583 3.09763 0.707107 2.70711L -0.707107 1.29289ZM 7.55279 1.89443C 8.04677 2.14142 8.64744 1.94119 8.89443 1.44721C 9.14142 0.953235 8.94119 0.352562 8.44721 0.105573L 7.55279 1.89443ZM 0 2C 0.707107 2.70711 0.706941 2.70727 0.706784 2.70743C 0.706741 2.70747 0.706591 2.70762 0.706505 2.70771C 0.70656 2.70765 0.70597 2.70824 0.706081 2.70813C 0.706072 2.70814 0.70575 2.70846 0.705764 2.70845C 0.706257 2.70796 0.706268 2.70794 0.707226 2.707C 0.71009 2.70418 0.712826 2.7015 0.718371 2.69614C 0.731411 2.68352 0.74733 2.66827 0.772162 2.64512C 0.825948 2.59489 0.896178 2.53093 0.994541 2.44676C 1.20033 2.27017 1.46525 2.05722 1.8047 1.83205C 2.50489 1.36525 3.30058 1 4 1L 4 -1C 2.69942 -1 1.49511 -0.365254 0.6953 0.16795C 0.284747 0.442781 -0.0753348 0.729827 -0.307041 0.928243C -0.427428 1.03157 -0.529073 1.12386 -0.592475 1.18301C -0.626236 1.21454 -0.655239 1.24227 -0.672472 1.25894C -0.682064 1.26822 -0.690802 1.27677 -0.695629 1.28152C -0.698516 1.28436 -0.701405 1.28722 -0.702849 1.28865C -0.703805 1.2896 -0.704874 1.29067 -0.705351 1.29114C -0.705705 1.29149 -0.706146 1.29193 -0.706322 1.29211C -0.706469 1.29226 -0.706665 1.29245 -0.706738 1.29252C -0.706926 1.29271 -0.707107 1.29289 0 2ZM 4 1C 4.87782 0.992508 5.72041 1.21012 6.43377 1.44868C 6.78104 1.56399 7.05482 1.67388 7.26233 1.76289C 7.36174 1.80543 7.43321 1.83797 7.48727 1.86321C 7.51228 1.87487 7.5284 1.88259 7.54149 1.88893C 7.54706 1.89162 7.54983 1.89298 7.55269 1.89439C 7.55365 1.89486 7.55366 1.89486 7.55415 1.89511C 7.55416 1.89511 7.55383 1.89495 7.55383 1.89495C 7.55394 1.895 7.55334 1.8947 7.5534 1.89473C 7.55331 1.89469 7.55316 1.89461 7.55311 1.89459C 7.55295 1.89451 7.55279 1.89443 8 1C 8.44721 0.105573 8.44703 0.105482 8.44684 0.105387C 8.44677 0.10535 8.44657 0.105251 8.44642 0.105177C 8.44624 0.105088 8.4458 0.104867 8.44544 0.10469C 8.44496 0.104451 8.44389 0.103917 8.44293 0.103442C 8.44149 0.102725 8.4386 0.101295 8.43571 0.0998739C 8.43089 0.0975016 8.42218 0.0932414 8.41261 0.0886103C 8.39542 0.0802962 8.36663 0.0665343 8.33304 0.0508481C 8.26991 0.0214013 8.16951 -0.0241848 8.05017 -0.075395C 7.82018 -0.17388 7.46896 -0.313985 7.06623 -0.448683C 6.27959 -0.71012 5.12218 -0.992508 4 -1L 4 1Z"/>
<path id="path12_fill" fill-rule="evenodd" d="M 0 5.51851L 0 0L 3.93976 0L 3.93976 5.51851L 0 5.51851Z"/>
<path id="path13_fill" fill-rule="evenodd" d="M 1.98964 0L 1.95027 0C 0.873158 0 0 0.888273 0 1.98389L 0 3.53467C 0 4.63029 0.873158 5.51856 1.95027 5.51856L 1.98964 5.51856C 3.06675 5.51856 3.93991 4.63029 3.93991 3.53467L 3.93991 1.98389C 3.93991 0.888273 3.06675 0 1.98964 0Z"/>
<path id="path14_fill" fill-rule="evenodd" d="M 16 0L 21 57L 11 59L 0 4L 16 0Z"/>
<path id="path15_stroke" d="M 21.336 12.8969C 22.2241 14.1628 23.9703 14.4691 25.2362 13.5809C 26.5022 12.6928 26.8084 10.9466 25.9203 9.68068L 21.336 12.8969ZM 0.0732861 -2.79904C -1.47258 -2.83952 -2.75857 -1.61915 -2.79904 -0.0732861C -2.83952 1.47258 -1.61915 2.75857 -0.0732861 2.79904L 0.0732861 -2.79904ZM 23.6281 11.2888C 25.9203 9.68068 25.9195 9.67955 25.9187 9.67838C 25.9184 9.67794 25.9175 9.67673 25.9169 9.67584C 25.9161 9.67478 25.9142 9.6721 25.9128 9.66999C 25.9108 9.66722 25.9063 9.66086 25.9023 9.65532C 25.8965 9.64716 25.8846 9.63049 25.8728 9.61428C 25.8535 9.58772 25.8178 9.53904 25.7789 9.48707C 25.7098 9.39496 25.5908 9.2401 25.4508 9.06577C 25.1895 8.74123 24.7584 8.23269 24.2258 7.66512C 23.2031 6.57994 21.5433 5.02097 19.4343 3.51734C 15.3265 0.617551 8.6556 -2.51294 0.0732861 -2.79904L -0.0732861 2.79904C 7.34655 2.93191 12.4897 5.44582 16.1954 8.08568C 17.9932 9.35188 19.2401 10.5366 20.1473 11.5025C 20.5796 11.9606 20.8694 12.3045 21.0876 12.5761C 21.1873 12.6998 21.2478 12.7788 21.2982 12.8462C 21.3191 12.8739 21.3281 12.8863 21.3387 12.9009C 21.3419 12.9053 21.3444 12.9088 21.3427 12.9065C 21.343 12.9068 21.3406 12.9035 21.3407 12.9036C 21.3413 12.9044 21.3384 12.9004 21.3387 12.9008C 21.3383 12.9002 21.3376 12.8992 21.3374 12.899C 21.3367 12.8979 21.336 12.8969 23.6281 11.2888Z"/>
<path id="path16_stroke" d="M 8.48842 2.60473C 9.92697 1.7827 10.4268 -0.0498645 9.60473 -1.48842C 8.7827 -2.92697 6.95014 -3.42676 5.51158 -2.60473L 8.48842 2.60473ZM -1.48842 1.39527C -2.92697 2.2173 -3.42676 4.04986 -2.60473 5.48842C -1.7827 6.92697 0.0498645 7.42676 1.48842 6.60473L -1.48842 1.39527ZM 5.51158 -2.60473L -1.48842 1.39527L 1.48842 6.60473L 8.48842 2.60473L 5.51158 -2.60473Z"/>
<path id="path17_stroke" d="M 8.18176 2.75744C 9.70465 2.10477 10.4101 0.341131 9.75743 -1.18176C 9.10477 -2.70465 7.34113 -3.4101 5.81824 -2.75744L 8.18176 2.75744ZM -1.18176 0.242565C -2.70465 0.895232 -3.4101 2.65887 -2.75744 4.18176C -2.10477 5.70465 -0.341131 6.4101 1.18176 5.75744L -1.18176 0.242565ZM 5.81824 -2.75744L -1.18176 0.242565L 1.18176 5.75744L 8.18176 2.75744L 5.81824 -2.75744Z"/>
<path id="path18_stroke" d="M -0.431529 12.1373C -0.0795641 13.7563 1.51825 14.7835 3.13729 14.4315C 4.75633 14.0796 5.78349 12.4817 5.43153 10.8627L -0.431529 12.1373ZM 2.93153 -0.637289C 2.57956 -2.25633 0.98175 -3.28349 -0.637289 -2.93153C -2.25633 -2.57956 -3.28349 -0.98175 -2.93153 0.637289L 2.93153 -0.637289ZM 5.43153 10.8627L 2.93153 -0.637289L -2.93153 0.637289L -0.431529 12.1373L 5.43153 10.8627Z"/>
<path id="path19_stroke" d="M 6.54349 2.57248C 7.96423 1.72003 8.42492 -0.122746 7.57248 -1.54349C 6.72003 -2.96423 4.87725 -3.42492 3.45651 -2.57248L 6.54349 2.57248ZM -1.54349 0.427521C -2.96423 1.27997 -3.42492 3.12275 -2.57248 4.54349C -1.72003 5.96423 0.122746 6.42492 1.54349 5.57248L -1.54349 0.427521ZM 3.45651 -2.57248L -1.54349 0.427521L 1.54349 5.57248L 6.54349 2.57248L 3.45651 -2.57248Z"/>
</defs>
</svg>
