<svg width="150" height="150" viewBox="0 0 150 150" version="1.1" xmlns="http://www.w3.org/2000/svg" xmlns:xlink="http://www.w3.org/1999/xlink">
<title>Mascot_013</title>
<desc>Created using Figma</desc>
<g id="Canvas" transform="translate(-3241 -5312)">
<clipPath id="clip-0" clip-rule="evenodd">
<path d="M 3241 5312L 3391 5312L 3391 5462L 3241 5462L 3241 5312Z" fill="#FFFFFF"/>
</clipPath>
<g id="Mascot_013" clip-path="url(#clip-0)">
<path d="M 3241 5312L 3391 5312L 3391 5462L 3241 5462L 3241 5312Z" fill="#FFFFFF"/>
<g id="Rectangle 4" opacity="0.178159">
<use xlink:href="#path0_fill" transform="translate(3270.37 5400.05)" fill="url(#paint0_linear)"/>
</g>
<g id="mascot_arm_right copy">
<g id="Path 2">
<use xlink:href="#path1_stroke" transform="matrix(0.731354 -0.681998 0.681998 0.731354 3335.1 5399.02)" fill="#2F2B64"/>
</g>
<g id="Group 4">
<g id="Line">
<use xlink:href="#path2_stroke" transform="matrix(0.848048 -0.529919 -0.529919 -0.848048 3363.37 5422.35)" fill="#A499FF"/>
</g>
<g id="Group">
<g id="Line">
<use xlink:href="#path3_stroke" transform="matrix(0.848048 -0.529919 -0.529919 -0.848048 3361.72 5428.5)" fill="#A499FF"/>
</g>
</g>
<g id="Line Copy">
<use xlink:href="#path4_stroke" transform="matrix(0.848048 -0.529919 -0.529919 -0.848048 3365.23 5416.36)" fill="#A499FF"/>
</g>
<g id="Oval">
<use xlink:href="#path5_fill" transform="matrix(-0.981627 0.190809 -0.190809 -0.981627 3366.22 5422.1)" fill="#A499FF"/>
</g>
<g id="Line Copy 2">
<use xlink:href="#path6_stroke" transform="matrix(0.848048 -0.529919 -0.529919 -0.848048 3364.01 5413.96)" fill="#A499FF"/>
</g>
</g>
</g>
<g id="mascot_arm_left">
<g id="Group 2">
<g id="Path 2">
<use xlink:href="#path7_stroke" transform="matrix(-0.731354 -0.681998 -0.681998 0.731354 3296.9 5406.02)" fill="#2F2B64"/>
</g>
<g id="Group 4">
<g id="Line">
<use xlink:href="#path2_stroke" transform="matrix(-0.848048 -0.529919 0.529919 -0.848048 3274.63 5429.35)" fill="#A499FF"/>
</g>
<g id="Group">
<g id="Line">
<use xlink:href="#path3_stroke" transform="matrix(-0.848048 -0.529919 0.529919 -0.848048 3276.28 5435.5)" fill="#A499FF"/>
</g>
</g>
<g id="Line Copy">
<use xlink:href="#path4_stroke" transform="matrix(-0.848048 -0.529919 0.529919 -0.848048 3272.77 5423.36)" fill="#A499FF"/>
</g>
<g id="Oval">
<use xlink:href="#path5_fill" transform="matrix(0.981627 0.190809 0.190809 -0.981627 3271.78 5429.1)" fill="#A499FF"/>
</g>
<g id="Line Copy 2">
<use xlink:href="#path8_stroke" transform="matrix(-0.848048 -0.529919 0.529919 -0.848048 3276.53 5421.55)" fill="#A499FF"/>
</g>
</g>
</g>
</g>
<g id="Group">
<g id="Group 2">
<g id="Rectangle 5 Copy" filter="url(#filter0_i)">
<use xlink:href="#path9_fill" transform="matrix(0.978148 -0.207912 0.207912 0.978148 3287.94 5362.73)" fill="#2F2B64"/>
</g>
<g id="Line Copy 8">
<use xlink:href="#path10_stroke" transform="matrix(0.544639 -0.838671 0.838671 0.544639 3302.81 5362.94)" fill="#B0B1B1"/>
</g>
<g id="Rectangle 6 Copy">
<use xlink:href="#path11_fill" transform="matrix(0.978148 -0.207912 0.207912 0.978148 3293.48 5368.53)" fill="#FFFFFF"/>
</g>
<g id="Oval 7 Copy">
<use xlink:href="#path12_fill" transform="matrix(0.544639 -0.838671 0.838671 0.544639 3318.58 5426.85)" fill="#FFFFFF"/>
</g>
</g>
<g id="mascot_mouth_happy">
<g id="Path 6">
<use xlink:href="#path13_stroke" transform="translate(3313 5398)" fill="#FF5657"/>
</g>
</g>
<g id="Page 1">
<g id="Group 3">
<mask id="mask0_outline" mask-type="alpha">
<g id="Clip 2">
<use xlink:href="#path14_fill" transform="matrix(0.97437 -0.224951 0.224951 0.97437 3304.35 5383.87)" fill="#FFFFFF"/>
</g>
</mask>
<g id="Fill 1" mask="url(#mask0_outline)">
<use xlink:href="#path15_fill" transform="matrix(0.97437 -0.224951 0.224951 0.97437 3304.35 5383.87)" fill="#2F2564"/>
</g>
</g>
<g id="Group 3">
<mask id="mask1_outline" mask-type="alpha">
<g id="Clip 2">
<use xlink:href="#path14_fill" transform="matrix(0.97437 -0.224951 0.224951 0.97437 3318.03 5381.03)" fill="#FFFFFF"/>
</g>
</mask>
<g id="Fill 1" mask="url(#mask1_outline)">
<use xlink:href="#path15_fill" transform="matrix(0.97437 -0.224951 0.224951 0.97437 3318.03 5381.03)" fill="#2F2564"/>
</g>
</g>
</g>
<g id="Path 8">
<use xlink:href="#path16_fill" transform="translate(3294 5365)" fill="#D8D8D8" fill-opacity="0.27" style="mix-blend-mode:multiply"/>
</g>
</g>
</g>
</g>
<defs>
<filter id="filter0_i" filterUnits="userSpaceOnUse" x="3286" y="5355" width="59" height="82" color-interpolation-filters="sRGB">
<feFlood flood-opacity="0" result="BackgroundImageFix"/>
<feBlend mode="normal" in="SourceGraphic" in2="BackgroundImageFix" result="shape"/>
<feColorMatrix in="SourceAlpha" type="matrix" values="0 0 0 0 0 0 0 0 0 0 0 0 0 0 0 0 0 0 255 0" result="hardAlpha"/>
<feOffset dx="0" dy="3"/>
<feGaussianBlur stdDeviation="1.5"/>
<feComposite in2="hardAlpha" operator="arithmetic" k2="-1" k3="1"/>
<feColorMatrix type="matrix" values="0 0 0 0 0 0 0 0 0 0 0 0 0 0 0 0 0 0 0.064906 0"/>
<feBlend mode="normal" in2="shape" result="effect1_innerShadow"/>
</filter>
<linearGradient id="paint0_linear" x1="0" y1="0" x2="1" y2="0" gradientUnits="userSpaceOnUse" gradientTransform="matrix(-0.0125902 39.4036 -80.7141 -0.00614636 49.6664 -6.8802)">
<stop offset="0" stop-color="#FFFFFF"/>
<stop offset="0.637244" stop-color="#5D5D5D"/>
<stop offset="0.637244" stop-color="#5D5D5D"/>
<stop offset="1"/>
</linearGradient>
<path id="path0_fill" fill-rule="evenodd" d="M 1.88448 12.9538C -1.09815 10.957 -0.144791 6.34627 3.38515 5.69607L 33.9595 0.0644337C 34.9724 -0.122138 36.0182 0.0891868 36.8792 0.654405L 64.4734 18.7692C 68.1548 21.1859 67.1402 26.8371 62.8481 27.8223L 45.3568 31.8372C 38.1019 33.5024 30.4813 32.0987 24.2959 27.9577L 1.88448 12.9538Z"/>
<path id="path1_stroke" d="M 1.9096 -2.04779C 0.778632 -3.10243 -0.99315 -3.04056 -2.04779 -1.9096C -3.10243 -0.778632 -3.04056 0.99315 -1.9096 2.04779L 1.9096 -2.04779ZM 4.86303 27.3134C 4.11459 28.6666 4.60485 30.3703 5.95807 31.1188C 7.31128 31.8672 9.015 31.377 9.76344 30.0238L 4.86303 27.3134ZM 0 0C -1.9096 2.04779 -1.9103 2.04713 -1.91095 2.04652C -1.91109 2.04639 -1.91168 2.04584 -1.91196 2.04558C -1.91192 2.04562 -1.91307 2.04454 -1.91297 2.04464C -1.91378 2.04388 -1.9125 2.04507 -1.91092 2.04657C -1.9057 2.0515 -1.90113 2.05582 -1.89102 2.06549C -1.86664 2.08878 -1.83733 2.11701 -1.7911 2.16239C -1.69019 2.26135 -1.55804 2.39323 -1.37576 2.58273C -0.993697 2.9793 -0.492822 3.52095 0.117649 4.25075C 1.37525 5.7498 2.86488 7.73885 4.16869 10.2333C 6.77622 15.1859 8.20219 21.2761 4.86303 27.3134L 9.76344 30.0238C 14.3967 21.6466 12.166 13.4025 9.12385 7.62441C 7.6028 4.75353 5.7693 2.27816 4.40998 0.654103C 3.71199 -0.17764 3.08096 -0.862207 2.65823 -1.30146C 2.43811 -1.52988 2.24965 -1.71831 2.13054 -1.83519C 2.06676 -1.89773 2.01121 -1.9513 1.97823 -1.98283C 1.95966 -2.00057 1.94243 -2.01691 1.93302 -2.0258C 1.92728 -2.03121 1.92141 -2.03673 1.91853 -2.03943C 1.91657 -2.04127 1.91434 -2.04336 1.91336 -2.04427C 1.91262 -2.04497 1.91167 -2.04585 1.9113 -2.0462C 1.91042 -2.04702 1.9096 -2.04779 0 0Z"/>
<path id="path2_stroke" d="M 5.58743 3.66044C 7.06714 2.91504 7.66241 1.11122 6.917 -0.368484C 6.1716 -1.84819 4.36779 -2.44346 2.88808 -1.69806L 5.58743 3.66044ZM -1.34968 0.436719C -2.82938 1.18212 -3.42465 2.98594 -2.67925 4.46564C -1.93384 5.94535 -0.130032 6.54062 1.34968 5.79522L -1.34968 0.436719ZM 2.88808 -1.69806L -1.34968 0.436719L 1.34968 5.79522L 5.58743 3.66044L 2.88808 -1.69806Z"/>
<path id="path3_stroke" d="M -0.614798 -2.92691C -2.23649 -2.58737 -3.27587 -0.997477 -2.93633 0.624213C -2.59678 2.2459 -1.00689 3.28529 0.614798 2.94574L -0.614798 -2.92691ZM -0.26626 9.38421C -0.327852 11.0399 0.964435 12.4321 2.62014 12.4937C 4.27585 12.5552 5.668 11.263 5.72959 9.60725L -0.26626 9.38421ZM 0 0.00941466C 0.614798 2.94574 0.609339 2.94688 0.603882 2.94801C 0.602063 2.94838 0.596589 2.9495 0.592943 2.95023C 0.596584 2.9495 0.563683 2.956 0.570996 2.95457C 0.578292 2.95317 0.512122 2.96545 0.526835 2.96279C 0.541474 2.96022 0.407748 2.98181 0.437492 2.97729C 0.46692 2.97315 0.194744 3.00379 0.255271 2.99813C 0.132122 3.00824 0.00767068 3.0104 -0.117213 3.00392C -0.370206 2.9908 -0.608114 2.94309 -0.82433 2.86905C -1.26216 2.71913 -1.51488 2.49595 -1.60836 2.39934C -1.74192 2.26128 -1.45436 2.48982 -1.00587 3.88766L 4.70727 2.05464C 4.14883 0.314084 3.51104 -0.938247 2.70385 -1.77257C 2.27357 -2.21732 1.74697 -2.59248 1.11947 -2.80736C 0.804741 -2.90147 0.356894 -2.97634 0.193658 -2.98802C 0.0461337 -2.99263 -0.163978 -2.98692 -0.235828 -2.98174C -0.30278 -2.97555 -0.399908 -2.96391 -0.43259 -2.95929C -0.463962 -2.95453 -0.510146 -2.9469 -0.525604 -2.94419C -0.540727 -2.94146 -0.563187 -2.93725 -0.570688 -2.93581C -0.578105 -2.93436 -0.589173 -2.93216 -0.592866 -2.93142C -0.596537 -2.93068 -0.602031 -2.92956 -0.603863 -2.92918C -0.609333 -2.92805 -0.614798 -2.92691 0 0.00941466ZM -1.00587 3.88766C -0.571988 5.20189 -0.409032 6.48628 -0.32255 7.63822C -0.279803 8.18896 -0.267683 8.61238 -0.264213 8.94972C -0.262417 9.10666 -0.263232 9.21268 -0.264552 9.2992C -0.265094 9.33693 -0.265581 9.3576 -0.266114 9.37755C -0.266302 9.38486 -0.266352 9.38638 -0.266475 9.39019C -0.266493 9.39078 -0.266465 9.38989 -0.266453 9.38957C -0.266471 9.39006 -0.266371 9.38724 -0.26638 9.38749C -0.266396 9.38793 -0.266318 9.38577 -0.266326 9.386C -0.266316 9.38572 -0.266299 9.38528 -0.266294 9.38514C -0.266277 9.38468 -0.26626 9.38421 2.73167 9.49573C 5.72959 9.60725 5.72961 9.60675 5.72963 9.60624C 5.72964 9.60605 5.72966 9.60553 5.72967 9.60515C 5.72969 9.60472 5.72973 9.60359 5.72976 9.60274C 5.7298 9.60167 5.72989 9.59909 5.72996 9.59696C 5.73006 9.594 5.73028 9.58756 5.73047 9.58165C 5.73076 9.57245 5.7313 9.55458 5.73178 9.53632C 5.7326 9.50514 5.73384 9.44999 5.73478 9.389C 5.73641 9.27807 5.73757 9.09503 5.73544 8.88548C 5.73107 8.48983 5.71174 7.87057 5.66011 7.18246C 5.55785 5.85671 5.28032 3.87881 4.70727 2.05464L -1.00587 3.88766Z"/>
<path id="path4_stroke" d="M 5.53454 1.96346C 6.61893 0.71075 6.48248 -1.18384 5.22977 -2.26822C 3.97707 -3.35261 2.08248 -3.21616 0.998095 -1.96346L 5.53454 1.96346ZM -2.26822 1.80986C -3.35261 3.06257 -3.21616 4.95716 -1.96346 6.04154C -0.71075 7.12593 1.18384 6.98948 2.26822 5.73677L -2.26822 1.80986ZM 0.998095 -1.96346L -2.26822 1.80986L 2.26822 5.73677L 5.53454 1.96346L 0.998095 -1.96346Z"/>
<path id="path5_fill" fill-rule="evenodd" d="M 5 15C 7.76142 15 10 11.6421 10 7.5C 10 3.35786 7.76142 0 5 0C 2.23858 0 0 3.35786 0 7.5C 0 11.6421 2.23858 15 5 15Z"/>
<path id="path6_stroke" d="M 5.2811 2.54218C 6.68511 1.66245 7.11011 -0.188891 6.23038 -1.5929C 5.35065 -2.9969 3.49931 -3.42191 2.0953 -2.54218L 5.2811 2.54218ZM -1.41094 -0.345209C -2.81495 0.534524 -3.23996 2.38586 -2.36022 3.78987C -1.48049 5.19388 0.370846 5.61888 1.77485 4.73915L -1.41094 -0.345209ZM 2.0953 -2.54218L -1.41094 -0.345209L 1.77485 4.73915L 5.2811 2.54218L 2.0953 -2.54218Z"/>
<path id="path7_stroke" d="M 1.31337 -2.47286C -0.0523543 -3.19822 -1.74751 -2.6791 -2.47286 -1.31337C -3.19822 0.0523543 -2.6791 1.74751 -1.31337 2.47286L 1.31337 -2.47286ZM 3.2029 20.296C 2.45446 21.6492 2.94472 23.3529 4.29794 24.1014C 5.65115 24.8498 7.35487 24.3596 8.10331 23.0063L 3.2029 20.296ZM 0 0C -1.31337 2.47286 -1.31461 2.47221 -1.3158 2.47157C -1.31613 2.4714 -1.31727 2.47079 -1.31792 2.47044C -1.31747 2.47068 -1.32219 2.46816 -1.32127 2.46865C -1.32117 2.4687 -1.32469 2.46681 -1.32443 2.46695C -1.3274 2.46534 -1.3225 2.46798 -1.31692 2.47108C -1.29871 2.48114 -1.28335 2.48972 -1.24946 2.50935C -1.16726 2.55677 -1.07354 2.61229 -0.927917 2.70481C -0.606628 2.90785 -0.221145 3.16693 0.277029 3.55962C 1.33743 4.3876 2.47798 5.42821 3.48721 6.97444C 5.35533 9.77369 6.64885 14.0656 3.2029 20.296L 8.10331 23.0063C 12.6298 14.8223 11.0967 8.28859 8.1452 3.86588C 6.74461 1.80112 4.97706 0.131652 3.73181 -0.847702C 3.07716 -1.35868 2.46043 -1.77757 2.06772 -2.0266C 1.85634 -2.16011 1.66511 -2.27414 1.55161 -2.33977C 1.48765 -2.37666 1.42747 -2.41048 1.3946 -2.42868C 1.37465 -2.43971 1.35419 -2.45089 1.34412 -2.45635C 1.33735 -2.46002 1.32962 -2.46418 1.32623 -2.466C 1.32367 -2.46737 1.32045 -2.46909 1.31917 -2.46978C 1.31809 -2.47035 1.31664 -2.47112 1.31611 -2.47141C 1.31471 -2.47215 1.31337 -2.47286 0 0Z"/>
<path id="path8_stroke" d="M 8.27978 2.54301C 9.68424 1.664 10.1102 -0.187115 9.23121 -1.59158C 8.3522 -2.99604 6.50109 -3.42201 5.09662 -2.54301L 8.27978 2.54301ZM -0.953768 1.24372C -2.35823 2.12273 -2.7842 3.97384 -1.9052 5.37831C -1.02619 6.78277 0.824926 7.20874 2.22939 6.32973L -0.953768 1.24372ZM 5.09662 -2.54301L -0.953768 1.24372L 2.22939 6.32973L 8.27978 2.54301L 5.09662 -2.54301Z"/>
<path id="path9_fill" fill-rule="evenodd" d="M 0 8C 0 3.58172 3.58172 0 8 0L 32.7642 0C 37.1825 0 40.7642 3.58172 40.7642 8L 40.7642 66.1018C 40.7642 70.5201 37.1825 74.1018 32.7642 74.1018L 8 74.1018C 3.58172 74.1018 0 70.5201 0 66.1018L 0 8Z"/>
<path id="path10_stroke" d="M 8.07754 9.07878C 8.35072 9.35233 8.79394 9.35262 9.06749 9.07944C 9.34103 8.80625 9.34133 8.36303 9.06814 8.08949L 8.07754 9.07878ZM 0.771844 -0.217741C 0.498657 -0.491288 0.0554414 -0.49158 -0.218106 -0.218393C -0.491652 0.0547939 -0.491944 0.498009 -0.218757 0.771556L 0.771844 -0.217741ZM 9.06814 8.08949L 0.771844 -0.217741L -0.218757 0.771556L 8.07754 9.07878L 9.06814 8.08949Z"/>
<path id="path11_fill" fill-rule="evenodd" d="M 0 1C 0 0.447715 0.447715 0 1 0L 31.6025 0C 32.1548 0 32.6025 0.447715 32.6025 1L 32.6025 55.4138C 32.6025 55.9661 32.1548 56.4138 31.6025 56.4138L 1 56.4138C 0.447715 56.4138 0 55.9661 0 55.4138L 0 1Z"/>
<path id="path12_fill" fill-rule="evenodd" d="M 2.92617 5.86006C 4.54225 5.86006 5.85235 4.54824 5.85235 2.93003C 5.85235 1.31182 4.54225 0 2.92617 0C 1.31009 0 0 1.31182 0 2.93003C 0 4.54824 1.31009 5.86006 2.92617 5.86006Z"/>
<path id="path13_stroke" d="M -0.83205 2.4453C -1.1384 2.90483 -1.01423 3.5257 -0.5547 3.83205C -0.0951715 4.1384 0.525698 4.01423 0.83205 3.5547L -0.83205 2.4453ZM 7.29289 2.70711C 7.68342 3.09763 8.31658 3.09763 8.70711 2.70711C 9.09763 2.31658 9.09763 1.68342 8.70711 1.29289L 7.29289 2.70711ZM 0 3C 0.83205 3.5547 0.831933 3.55488 0.831823 3.55504C 0.831796 3.55508 0.831693 3.55524 0.83164 3.55532C 0.831663 3.55528 0.83136 3.55573 0.831407 3.55566C 0.831334 3.55577 0.831333 3.55577 0.831475 3.55556C 0.832098 3.55464 0.832499 3.55404 0.833717 3.55224C 0.836844 3.54762 0.840378 3.54243 0.846457 3.53361C 0.860042 3.51389 0.877626 3.48863 0.903577 3.45233C 0.958523 3.37537 1.03233 3.27459 1.1331 3.14519C 1.3414 2.87715 1.61342 2.54934 1.95711 2.20711C 2.6966 1.46761 3.43969 1 4 1L 4 -1C 2.56031 -1 1.3034 0.0323878 0.542893 0.792893C 0.136577 1.20066 -0.216397 1.62285 -0.445602 1.91731C -0.563583 2.06916 -0.661648 2.20275 -0.72389 2.28986C -0.756533 2.33558 -0.78387 2.37478 -0.800558 2.399C -0.809616 2.41216 -0.817557 2.42381 -0.82212 2.43055C -0.824747 2.43442 -0.827246 2.43813 -0.828561 2.44009C -0.829388 2.44132 -0.830264 2.44263 -0.830677 2.44324C -0.830967 2.44368 -0.831312 2.44419 -0.831457 2.44441C -0.831571 2.44458 -0.83172 2.4448 -0.831777 2.44489C -0.831917 2.4451 -0.83205 2.4453 0 3ZM 4 1C 4.69942 1 5.49511 1.36525 6.1953 1.83205C 6.53475 2.05722 6.79967 2.27017 7.00546 2.44676C 7.10382 2.53093 7.17405 2.59489 7.22784 2.64512C 7.25267 2.66827 7.26859 2.68352 7.28163 2.69614C 7.28717 2.7015 7.28991 2.70418 7.29277 2.707C 7.29373 2.70794 7.29374 2.70796 7.29424 2.70845C 7.29425 2.70846 7.29393 2.70814 7.29392 2.70813C 7.29403 2.70824 7.29344 2.70765 7.29349 2.70771C 7.29341 2.70762 7.29326 2.70747 7.29322 2.70743C 7.29306 2.70727 7.29289 2.70711 8 2C 8.70711 1.29289 8.70693 1.29271 8.70674 1.29252C 8.70667 1.29245 8.70647 1.29226 8.70632 1.29211C 8.70615 1.29193 8.70571 1.29149 8.70535 1.29114C 8.70487 1.29067 8.7038 1.2896 8.70285 1.28865C 8.7014 1.28722 8.69852 1.28436 8.69563 1.28152C 8.6908 1.27677 8.68206 1.26822 8.67247 1.25894C 8.65524 1.24227 8.62624 1.21454 8.59247 1.18301C 8.52907 1.12386 8.42743 1.03157 8.30704 0.928243C 8.07533 0.729827 7.71525 0.442781 7.3047 0.16795C 6.50489 -0.365254 5.30058 -1 4 -1L 4 1Z"/>
<path id="path14_fill" fill-rule="evenodd" d="M 0 5.51851L 0 0L 3.93976 0L 3.93976 5.51851L 0 5.51851Z"/>
<path id="path15_fill" fill-rule="evenodd" d="M 1.98964 0L 1.95027 0C 0.873158 0 0 0.888273 0 1.98389L 0 3.53467C 0 4.63029 0.873158 5.51856 1.95027 5.51856L 1.98964 5.51856C 3.06675 5.51856 3.93991 4.63029 3.93991 3.53467L 3.93991 1.98389C 3.93991 0.888273 3.06675 0 1.98964 0Z"/>
<path id="path16_fill" fill-rule="evenodd" d="M 16 0L 21 57L 11 59L 0 4L 16 0Z"/>
</defs>
</svg>
