<svg width="150" height="150" viewBox="0 0 150 150" version="1.1" xmlns="http://www.w3.org/2000/svg" xmlns:xlink="http://www.w3.org/1999/xlink">
<title>Mascot_008</title>
<desc>Created using Figma</desc>
<g id="Canvas" transform="translate(-2177 -5312)">
<clipPath id="clip-0" clip-rule="evenodd">
<path d="M 2177 5312L 2327 5312L 2327 5462L 2177 5462L 2177 5312Z" fill="#FFFFFF"/>
</clipPath>
<g id="Mascot_008" clip-path="url(#clip-0)">
<path d="M 2177 5312L 2327 5312L 2327 5462L 2177 5462L 2177 5312Z" fill="#FFFFFF"/>
<g id="mascot_arm_right copy">
<g id="Path 2">
<use xlink:href="#path0_stroke" transform="matrix(0.731354 -0.681998 0.681998 0.731354 2271.25 5398.57)" fill="#2F2B64"/>
</g>
<g id="Group 5">
<g id="Line">
<use xlink:href="#path1_stroke" transform="matrix(-0.999848 -0.0174524 -0.0174524 0.999848 2306.04 5394.07)" fill="#A499FF"/>
</g>
<g id="Line Copy">
<use xlink:href="#path2_stroke" transform="matrix(-0.999848 -0.0174524 -0.0174524 0.999848 2304.96 5399.05)" fill="#A499FF"/>
</g>
<g id="Line Copy">
<use xlink:href="#path3_stroke" transform="matrix(-0.999848 -0.0174524 -0.0174524 0.999848 2305.06 5393.05)" fill="#A499FF"/>
</g>
<g id="Line Copy 2">
<use xlink:href="#path4_stroke" transform="matrix(-0.999848 -0.0174524 -0.0174524 0.999848 2302.89 5403.02)" fill="#A499FF"/>
</g>
</g>
</g>
<g id="mascot_arm_left">
<g id="Group 4">
<g id="Path 2">
<use xlink:href="#path5_stroke" transform="matrix(0.731354 -0.681998 0.681998 0.731354 2210.11 5418.97)" fill="#2F2B64"/>
</g>
</g>
<g id="Group 5">
<g id="Line">
<use xlink:href="#path1_stroke" transform="matrix(0.992546 -0.121869 0.121869 0.992546 2204.73 5417.51)" fill="#A499FF"/>
</g>
<g id="Line Copy">
<use xlink:href="#path2_stroke" transform="matrix(0.992546 -0.121869 0.121869 0.992546 2206.33 5422.35)" fill="#A499FF"/>
</g>
<g id="Line Copy">
<use xlink:href="#path6_stroke" transform="matrix(0.992546 -0.121869 0.121869 0.992546 2204.73 5417.51)" fill="#A499FF"/>
</g>
<g id="Line Copy 2">
<use xlink:href="#path4_stroke" transform="matrix(0.992546 -0.121869 0.121869 0.992546 2208.8 5426.07)" fill="#A499FF"/>
</g>
</g>
</g>
<g id="Group">
<g id="Rectangle 4" opacity="0.178159">
<use xlink:href="#path7_fill" transform="translate(2206.37 5400.05)" fill="url(#paint10_linear)"/>
</g>
<g id="Group 2">
<g id="Rectangle 5 Copy" filter="url(#filter0_i)">
<use xlink:href="#path8_fill" transform="matrix(0.978148 -0.207912 0.207912 0.978148 2223.94 5362.73)" fill="#2F2B64"/>
</g>
<g id="Line Copy 8">
<use xlink:href="#path9_stroke" transform="matrix(0.544639 -0.838671 0.838671 0.544639 2238.81 5362.94)" fill="#B0B1B1"/>
</g>
<g id="Rectangle 6 Copy">
<use xlink:href="#path10_fill" transform="matrix(0.978148 -0.207912 0.207912 0.978148 2229.48 5368.53)" fill="#FFFFFF"/>
</g>
<g id="Oval 7 Copy">
<use xlink:href="#path11_fill" transform="matrix(0.544639 -0.838671 0.838671 0.544639 2254.58 5426.85)" fill="#FFFFFF"/>
</g>
</g>
<g id="mascot_mouth_happy">
<g id="Path 6">
<use xlink:href="#path12_stroke" transform="translate(2249 5399)" fill="#FF5657"/>
</g>
</g>
<g id="Page 1">
<g id="Group 3">
<mask id="mask0_outline" mask-type="alpha">
<g id="Clip 2">
<use xlink:href="#path13_fill" transform="matrix(0.97437 -0.224951 0.224951 0.97437 2240.35 5383.87)" fill="#FFFFFF"/>
</g>
</mask>
<g id="Fill 1" mask="url(#mask0_outline)">
<use xlink:href="#path14_fill" transform="matrix(0.97437 -0.224951 0.224951 0.97437 2240.35 5383.87)" fill="#2F2564"/>
</g>
</g>
<g id="Group 3">
<mask id="mask1_outline" mask-type="alpha">
<g id="Clip 2">
<use xlink:href="#path13_fill" transform="matrix(0.97437 -0.224951 0.224951 0.97437 2254.03 5381.03)" fill="#FFFFFF"/>
</g>
</mask>
<g id="Fill 1" mask="url(#mask1_outline)">
<use xlink:href="#path14_fill" transform="matrix(0.97437 -0.224951 0.224951 0.97437 2254.03 5381.03)" fill="#2F2564"/>
</g>
</g>
</g>
<g id="Path 8">
<use xlink:href="#path15_fill" transform="translate(2230 5365)" fill="#D8D8D8" fill-opacity="0.27" style="mix-blend-mode:multiply"/>
</g>
</g>
</g>
</g>
<defs>
<filter id="filter0_i" filterUnits="userSpaceOnUse" x="2222" y="5355" width="59" height="82" color-interpolation-filters="sRGB">
<feFlood flood-opacity="0" result="BackgroundImageFix"/>
<feBlend mode="normal" in="SourceGraphic" in2="BackgroundImageFix" result="shape"/>
<feColorMatrix in="SourceAlpha" type="matrix" values="0 0 0 0 0 0 0 0 0 0 0 0 0 0 0 0 0 0 255 0" result="hardAlpha"/>
<feOffset dx="0" dy="3"/>
<feGaussianBlur stdDeviation="1.5"/>
<feComposite in2="hardAlpha" operator="arithmetic" k2="-1" k3="1"/>
<feColorMatrix type="matrix" values="0 0 0 0 0 0 0 0 0 0 0 0 0 0 0 0 0 0 0.064906 0"/>
<feBlend mode="normal" in2="shape" result="effect1_innerShadow"/>
</filter>
<linearGradient id="paint10_linear" x1="0" y1="0" x2="1" y2="0" gradientUnits="userSpaceOnUse" gradientTransform="matrix(-0.0125902 39.4036 -80.7141 -0.00614636 49.6664 -6.8802)">
<stop offset="0" stop-color="#FFFFFF"/>
<stop offset="0.637244" stop-color="#5D5D5D"/>
<stop offset="0.637244" stop-color="#5D5D5D"/>
<stop offset="1"/>
</linearGradient>
<path id="path0_stroke" d="M 1.14546 -2.55498C -0.26561 -3.1876 -1.92235 -2.55654 -2.55498 -1.14546C -3.1876 0.26561 -2.55654 1.92235 -1.14546 2.55498L 1.14546 -2.55498ZM 18.7169 18.392C 19.6348 19.6365 21.3878 19.9013 22.6323 18.9833C 23.8768 18.0654 24.1416 16.3125 23.2237 15.068L 18.7169 18.392ZM 0 0C -1.14546 2.55498 -1.14601 2.55473 -1.1465 2.55451C -1.1466 2.55447 -1.14704 2.55427 -1.14724 2.55418C -1.14724 2.55418 -1.14786 2.5539 -1.14785 2.5539C -1.14863 2.55356 -1.14713 2.55423 -1.14561 2.55492C -1.14099 2.55701 -1.13652 2.55904 -1.12744 2.5632C -1.10606 2.57297 -1.0793 2.58529 -1.03775 2.6047C -0.948143 2.64652 -0.826592 2.70403 -0.65648 2.78696C -0.302888 2.95917 0.185879 3.20424 0.821868 3.54417C 2.12199 4.23824 3.87002 5.23515 5.90678 6.59096C 10.0403 9.33545 14.9155 13.1975 18.7169 18.392L 23.2237 15.068C 18.9496 9.31348 13.3396 4.81058 9.00684 1.92731C 6.81046 0.469249 4.8301 -0.663408 3.46009 -1.39544C 2.76102 -1.76855 2.1793 -2.06067 1.79616 -2.24738C 1.59791 -2.34391 1.43454 -2.4213 1.33132 -2.4695C 1.27646 -2.49511 1.22983 -2.51659 1.20191 -2.52936C 1.18635 -2.53648 1.1722 -2.54291 1.16437 -2.54645C 1.15966 -2.54859 1.15492 -2.55072 1.15256 -2.55179C 1.15098 -2.5525 1.14921 -2.5533 1.14842 -2.55365C 1.14783 -2.55392 1.14709 -2.55425 1.14679 -2.55438C 1.14611 -2.55469 1.14546 -2.55498 0 0Z"/>
<path id="path1_stroke" d="M 8.48842 2.60473C 9.92697 1.7827 10.4268 -0.0498645 9.60473 -1.48842C 8.7827 -2.92697 6.95014 -3.42676 5.51158 -2.60473L 8.48842 2.60473ZM -1.48842 1.39527C -2.92697 2.2173 -3.42676 4.04986 -2.60473 5.48842C -1.7827 6.92697 0.0498645 7.42676 1.48842 6.60473L -1.48842 1.39527ZM 5.51158 -2.60473L -1.48842 1.39527L 1.48842 6.60473L 8.48842 2.60473L 5.51158 -2.60473Z"/>
<path id="path2_stroke" d="M 8.18176 2.75744C 9.70465 2.10477 10.4101 0.341131 9.75743 -1.18176C 9.10477 -2.70465 7.34113 -3.4101 5.81824 -2.75744L 8.18176 2.75744ZM -1.18176 0.242565C -2.70465 0.895232 -3.4101 2.65887 -2.75744 4.18176C -2.10477 5.70465 -0.341131 6.4101 1.18176 5.75744L -1.18176 0.242565ZM 5.81824 -2.75744L -1.18176 0.242565L 1.18176 5.75744L 8.18176 2.75744L 5.81824 -2.75744Z"/>
<path id="path3_stroke" d="M 3.57811 7.80355C 4.85032 8.86498 6.74211 8.69411 7.80355 7.42189C 8.86498 6.14968 8.69411 4.25789 7.42189 3.19645L 3.57811 7.80355ZM 1.96598 -1.35552C 0.693769 -2.41695 -1.19802 -2.24608 -2.25946 -0.973871C -3.32089 0.298343 -3.15002 2.19014 -1.87781 3.25157L 1.96598 -1.35552ZM 7.42189 3.19645L 1.96598 -1.35552L -1.87781 3.25157L 3.57811 7.80355L 7.42189 3.19645Z"/>
<path id="path4_stroke" d="M 6.54349 2.57248C 7.96423 1.72003 8.42492 -0.122746 7.57248 -1.54349C 6.72003 -2.96423 4.87725 -3.42492 3.45651 -2.57248L 6.54349 2.57248ZM -1.54349 0.427521C -2.96423 1.27997 -3.42492 3.12275 -2.57248 4.54349C -1.72003 5.96423 0.122746 6.42492 1.54349 5.57248L -1.54349 0.427521ZM 3.45651 -2.57248L -1.54349 0.427521L 1.54349 5.57248L 6.54349 2.57248L 3.45651 -2.57248Z"/>
<path id="path5_stroke" d="M 24.0008 8.11845C 25.2106 9.08158 26.9722 8.88159 27.9353 7.67175C 28.8985 6.4619 28.6985 4.70036 27.4886 3.73722L 24.0008 8.11845ZM -1.28622 0.286828C -2.65981 0.99719 -3.19745 2.68656 -2.48709 4.06014C -1.77673 5.43373 -0.0873597 5.97137 1.28622 5.26101L -1.28622 0.286828ZM 25.7447 5.92783C 27.4886 3.73722 27.4877 3.73646 27.4867 3.73567C 27.4863 3.73535 27.4852 3.73451 27.4844 3.73388C 27.4834 3.73309 27.481 3.73119 27.479 3.72962C 27.4763 3.72744 27.4703 3.72272 27.4648 3.71838C 27.4562 3.71165 27.4395 3.69862 27.4224 3.68534C 27.3931 3.66265 27.3412 3.62289 27.2829 3.57906C 27.1767 3.49927 27.0005 3.36978 26.7923 3.22292C 26.3976 2.94524 25.7708 2.52552 25.0196 2.07375C 23.5662 1.2031 21.3227 0.038664 18.7329 -0.858406C 13.4941 -2.65602 6.2125 -3.59121 -1.28622 0.286828L 1.28622 5.26101C 6.99225 2.31009 12.583 2.95186 16.9154 4.43844C 19.1112 5.18347 20.8279 6.08794 22.1384 6.87567C 22.7692 7.2531 23.2252 7.55994 23.5679 7.80152C 23.7283 7.91429 23.8345 7.99261 23.9184 8.05572C 23.9552 8.08334 23.9754 8.0988 23.9943 8.11348C 24.0013 8.11887 24.0028 8.12006 24.0064 8.12287C 24.0069 8.1233 24.0061 8.12266 24.0058 8.12242C 24.0063 8.12279 24.0036 8.1207 24.0039 8.12088C 24.0034 8.12055 24.0027 8.11994 24.0025 8.11977C 24.0017 8.11913 24.0008 8.11845 25.7447 5.92783Z"/>
<path id="path6_stroke" d="M 4.89649 7.0355C 6.2968 7.92109 8.1499 7.50383 9.0355 6.10351C 9.92109 4.7032 9.50383 2.8501 8.10351 1.9645L 4.89649 7.0355ZM 1.81613 -2.01179C 0.415815 -2.89739 -1.43728 -2.48013 -2.32288 -1.07981C -3.20847 0.320508 -2.79121 2.17361 -1.39089 3.0592L 1.81613 -2.01179ZM 8.10351 1.9645L 1.81613 -2.01179L -1.39089 3.0592L 4.89649 7.0355L 8.10351 1.9645Z"/>
<path id="path7_fill" fill-rule="evenodd" d="M 1.88448 12.9538C -1.09815 10.957 -0.144791 6.34627 3.38515 5.69607L 33.9595 0.0644337C 34.9724 -0.122138 36.0182 0.0891868 36.8792 0.654405L 64.4734 18.7692C 68.1548 21.1859 67.1402 26.8371 62.8481 27.8223L 45.3568 31.8372C 38.1019 33.5024 30.4813 32.0987 24.2959 27.9577L 1.88448 12.9538Z"/>
<path id="path8_fill" fill-rule="evenodd" d="M 0 8C 0 3.58172 3.58172 0 8 0L 32.7642 0C 37.1825 0 40.7642 3.58172 40.7642 8L 40.7642 66.1018C 40.7642 70.5201 37.1825 74.1018 32.7642 74.1018L 8 74.1018C 3.58172 74.1018 0 70.5201 0 66.1018L 0 8Z"/>
<path id="path9_stroke" d="M 8.07754 9.07878C 8.35072 9.35233 8.79394 9.35262 9.06749 9.07944C 9.34103 8.80625 9.34133 8.36303 9.06814 8.08949L 8.07754 9.07878ZM 0.771844 -0.217741C 0.498657 -0.491288 0.0554414 -0.49158 -0.218106 -0.218393C -0.491652 0.0547939 -0.491944 0.498009 -0.218757 0.771556L 0.771844 -0.217741ZM 9.06814 8.08949L 0.771844 -0.217741L -0.218757 0.771556L 8.07754 9.07878L 9.06814 8.08949Z"/>
<path id="path10_fill" fill-rule="evenodd" d="M 0 1C 0 0.447715 0.447715 0 1 0L 31.6025 0C 32.1548 0 32.6025 0.447715 32.6025 1L 32.6025 55.4138C 32.6025 55.9661 32.1548 56.4138 31.6025 56.4138L 1 56.4138C 0.447715 56.4138 0 55.9661 0 55.4138L 0 1Z"/>
<path id="path11_fill" fill-rule="evenodd" d="M 2.92617 5.86006C 4.54225 5.86006 5.85235 4.54824 5.85235 2.93003C 5.85235 1.31182 4.54225 0 2.92617 0C 1.31009 0 0 1.31182 0 2.93003C 0 4.54824 1.31009 5.86006 2.92617 5.86006Z"/>
<path id="path12_stroke" d="M 0 0C -0.552285 0 -1 0.447715 -1 1C -1 1.55228 -0.552285 2 0 2L 0 0ZM 8 2C 8.55229 2 9 1.55228 9 1C 9 0.447715 8.55229 0 8 0L 8 2ZM 0 1C 0 2 7.62939e-06 2 2.28733e-05 2C 3.81172e-05 2 6.09756e-05 2 9.14335e-05 2C 0.000152349 2 0.000243664 2 0.000365257 2C 0.000608444 2 0.000972748 2 0.00145721 2C 0.00242615 2 0.00387573 2 0.00579834 2C 0.00964355 2 0.0153809 2 0.0229492 2C 0.0380859 2 0.0605469 2 0.0898438 2C 0.148438 2 0.234375 2 0.34375 2C 0.5625 2 0.875 2 1.25 2C 2 2 3 2 4 2L 4 0C 3 0 2 0 1.25 0C 0.875 0 0.5625 0 0.34375 0C 0.234375 0 0.148438 0 0.0898438 0C 0.0605469 0 0.0380859 0 0.0229492 0C 0.0153809 0 0.00964355 0 0.00579834 0C 0.00387573 0 0.00242615 0 0.00145721 0C 0.000972748 0 0.000608444 0 0.000365257 0C 0.000243664 0 0.000152349 0 9.14335e-05 0C 6.09756e-05 0 3.81172e-05 0 2.28733e-05 0C 7.62939e-06 0 0 0 0 1ZM 4 2C 5 2 6 2 6.75 2C 7.125 2 7.4375 2 7.65625 2C 7.76562 2 7.85156 2 7.91016 2C 7.93945 2 7.96191 2 7.97705 2C 7.98462 2 7.99036 2 7.9942 2C 7.99612 2 7.99757 2 7.99854 2C 7.99903 2 7.99939 2 7.99963 2C 7.99976 2 7.99985 2 7.99991 2C 7.99994 2 7.99996 2 7.99998 2C 7.99999 2 8 2 8 1C 8 0 7.99999 0 7.99998 0C 7.99996 0 7.99994 0 7.99991 0C 7.99985 0 7.99976 0 7.99963 0C 7.99939 0 7.99903 0 7.99854 0C 7.99757 0 7.99612 0 7.9942 0C 7.99036 0 7.98462 0 7.97705 0C 7.96191 0 7.93945 0 7.91016 0C 7.85156 0 7.76562 0 7.65625 0C 7.4375 0 7.125 0 6.75 0C 6 0 5 0 4 0L 4 2Z"/>
<path id="path13_fill" fill-rule="evenodd" d="M 0 5.51851L 0 0L 3.93976 0L 3.93976 5.51851L 0 5.51851Z"/>
<path id="path14_fill" fill-rule="evenodd" d="M 1.98964 0L 1.95027 0C 0.873158 0 0 0.888273 0 1.98389L 0 3.53467C 0 4.63029 0.873158 5.51856 1.95027 5.51856L 1.98964 5.51856C 3.06675 5.51856 3.93991 4.63029 3.93991 3.53467L 3.93991 1.98389C 3.93991 0.888273 3.06675 0 1.98964 0Z"/>
<path id="path15_fill" fill-rule="evenodd" d="M 16 0L 21 57L 11 59L 0 4L 16 0Z"/>
</defs>
</svg>
