<svg width="150" height="150" viewBox="0 0 150 150" version="1.1" xmlns="http://www.w3.org/2000/svg" xmlns:xlink="http://www.w3.org/1999/xlink">
<title>Mascot_010</title>
<desc>Created using Figma</desc>
<g id="Canvas" transform="translate(-2580 -5312)">
<clipPath id="clip-0" clip-rule="evenodd">
<path d="M 2580 5312L 2730 5312L 2730 5462L 2580 5462L 2580 5312Z" fill="#FFFFFF"/>
</clipPath>
<g id="Mascot_010" clip-path="url(#clip-0)">
<path d="M 2580 5312L 2730 5312L 2730 5462L 2580 5462L 2580 5312Z" fill="#FFFFFF"/>
<g id="Rectangle 4" opacity="0.178159">
<use xlink:href="#path0_fill" transform="translate(2609.37 5400.05)" fill="url(#paint0_linear)"/>
</g>
<g id="mascot_arm_right copy">
<g id="Path 2">
<use xlink:href="#path1_stroke" transform="matrix(0.731354 -0.681998 0.681998 0.731354 2674.1 5399.02)" fill="#2F2B64"/>
</g>
<g id="Group 5">
<g id="Line">
<use xlink:href="#path2_stroke" transform="matrix(-0.999848 -0.0174524 -0.0174524 0.999848 2705.04 5408.07)" fill="#A499FF"/>
</g>
<g id="Line Copy">
<use xlink:href="#path3_stroke" transform="matrix(-0.999848 -0.0174524 -0.0174524 0.999848 2703.96 5413.05)" fill="#A499FF"/>
</g>
<g id="Line Copy 2">
<use xlink:href="#path4_stroke" transform="matrix(-0.999848 -0.0174524 -0.0174524 0.999848 2701.89 5417.02)" fill="#A499FF"/>
</g>
</g>
</g>
<g id="Group">
<g id="Group 2">
<g id="Rectangle 5 Copy" filter="url(#filter0_i)">
<use xlink:href="#path5_fill" transform="matrix(0.978148 -0.207912 0.207912 0.978148 2626.94 5362.73)" fill="#2F2B64"/>
</g>
<g id="Line Copy 8">
<use xlink:href="#path6_stroke" transform="matrix(0.544639 -0.838671 0.838671 0.544639 2641.81 5362.94)" fill="#B0B1B1"/>
</g>
<g id="Rectangle 6 Copy">
<use xlink:href="#path7_fill" transform="matrix(0.978148 -0.207912 0.207912 0.978148 2632.48 5368.53)" fill="#FFFFFF"/>
</g>
<g id="Oval 7 Copy">
<use xlink:href="#path8_fill" transform="matrix(0.544639 -0.838671 0.838671 0.544639 2657.58 5426.85)" fill="#FFFFFF"/>
</g>
</g>
<g id="mascot_mouth_happy">
<g id="Path 6">
<use xlink:href="#path9_stroke" transform="translate(2652 5399)" fill="#FF5657"/>
</g>
</g>
<g id="Page 1">
<g id="Group 3">
<mask id="mask0_outline" mask-type="alpha">
<g id="Clip 2">
<use xlink:href="#path10_fill" transform="matrix(0.97437 -0.224951 0.224951 0.97437 2643.35 5383.87)" fill="#FFFFFF"/>
</g>
</mask>
<g id="Fill 1" mask="url(#mask0_outline)">
<use xlink:href="#path11_fill" transform="matrix(0.97437 -0.224951 0.224951 0.97437 2643.35 5383.87)" fill="#2F2564"/>
</g>
</g>
<g id="Group 3">
<mask id="mask1_outline" mask-type="alpha">
<g id="Clip 2">
<use xlink:href="#path10_fill" transform="matrix(0.97437 -0.224951 0.224951 0.97437 2657.03 5381.03)" fill="#FFFFFF"/>
</g>
</mask>
<g id="Fill 1" mask="url(#mask1_outline)">
<use xlink:href="#path11_fill" transform="matrix(0.97437 -0.224951 0.224951 0.97437 2657.03 5381.03)" fill="#2F2564"/>
</g>
</g>
</g>
<g id="Path 8">
<use xlink:href="#path12_fill" transform="translate(2633 5365)" fill="#D8D8D8" fill-opacity="0.27" style="mix-blend-mode:multiply"/>
</g>
</g>
<g id="mascot_arm_left">
<g id="Group 4">
<g id="Path 2">
<use xlink:href="#path13_stroke" transform="matrix(0.731354 -0.681998 0.681998 0.731354 2610.47 5424.78)" fill="#2F2B64"/>
</g>
</g>
<g id="Group 5">
<g id="Line">
<use xlink:href="#path2_stroke" transform="matrix(0.956305 -0.292372 0.292372 0.956305 2611.44 5426.28)" fill="#A499FF"/>
</g>
<g id="Line Copy">
<use xlink:href="#path3_stroke" transform="matrix(0.956305 -0.292372 0.292372 0.956305 2613.86 5430.77)" fill="#A499FF"/>
</g>
<g id="Line Copy">
<use xlink:href="#path14_stroke" transform="matrix(0.956305 -0.292372 0.292372 0.956305 2613.22 5418.42)" fill="#A499FF"/>
</g>
<g id="Line Copy 2">
<use xlink:href="#path4_stroke" transform="matrix(0.956305 -0.292372 0.292372 0.956305 2616.94 5434.01)" fill="#A499FF"/>
</g>
</g>
</g>
</g>
</g>
<defs>
<filter id="filter0_i" filterUnits="userSpaceOnUse" x="2625" y="5355" width="59" height="82" color-interpolation-filters="sRGB">
<feFlood flood-opacity="0" result="BackgroundImageFix"/>
<feBlend mode="normal" in="SourceGraphic" in2="BackgroundImageFix" result="shape"/>
<feColorMatrix in="SourceAlpha" type="matrix" values="0 0 0 0 0 0 0 0 0 0 0 0 0 0 0 0 0 0 255 0" result="hardAlpha"/>
<feOffset dx="0" dy="3"/>
<feGaussianBlur stdDeviation="1.5"/>
<feComposite in2="hardAlpha" operator="arithmetic" k2="-1" k3="1"/>
<feColorMatrix type="matrix" values="0 0 0 0 0 0 0 0 0 0 0 0 0 0 0 0 0 0 0.064906 0"/>
<feBlend mode="normal" in2="shape" result="effect1_innerShadow"/>
</filter>
<linearGradient id="paint0_linear" x1="0" y1="0" x2="1" y2="0" gradientUnits="userSpaceOnUse" gradientTransform="matrix(-0.0125902 39.4036 -80.7141 -0.00614636 49.6664 -6.8802)">
<stop offset="0" stop-color="#FFFFFF"/>
<stop offset="0.637244" stop-color="#5D5D5D"/>
<stop offset="0.637244" stop-color="#5D5D5D"/>
<stop offset="1"/>
</linearGradient>
<path id="path0_fill" fill-rule="evenodd" d="M 1.88448 12.9538C -1.09815 10.957 -0.144791 6.34627 3.38515 5.69607L 33.9595 0.0644337C 34.9724 -0.122138 36.0182 0.0891868 36.8792 0.654405L 64.4734 18.7692C 68.1548 21.1859 67.1402 26.8371 62.8481 27.8223L 45.3568 31.8372C 38.1019 33.5024 30.4813 32.0987 24.2959 27.9577L 1.88448 12.9538Z"/>
<path id="path1_stroke" d="M 1.7377 -2.19554C 0.525135 -3.15525 -1.23584 -2.95026 -2.19554 -1.7377C -3.15525 -0.525135 -2.95026 1.23584 -1.7377 2.19554L 1.7377 -2.19554ZM 7.31144 24.5649C 6.2568 25.6959 6.31867 27.4677 7.44963 28.5223C 8.5806 29.577 10.3524 29.5151 11.407 28.3841L 7.31144 24.5649ZM 0 0C -1.7377 2.19554 -1.73827 2.19509 -1.73876 2.1947C -1.73883 2.19465 -1.73925 2.19431 -1.73938 2.19421C -1.73954 2.19408 -1.73962 2.19402 -1.7393 2.19427C -1.73781 2.19546 -1.73689 2.19619 -1.73395 2.19854C -1.72634 2.20462 -1.71773 2.21152 -1.70294 2.22346C -1.66985 2.25017 -1.62668 2.28525 -1.56371 2.33719C -1.43059 2.44693 -1.24968 2.59821 -1.00845 2.80668C -0.510942 3.23623 0.154758 3.83086 0.952322 4.60461C 2.57923 6.18011 4.5247 8.25455 6.2108 10.713C 7.91572 13.1735 9.1387 15.5375 9.43699 18.0784C 9.73407 20.3154 9.25088 22.4851 7.31144 24.5649L 11.407 28.3841C 14.5826 24.9788 15.487 21.0966 14.9883 17.3412C 14.4907 13.8896 12.7346 10.3206 10.8209 7.53383C 8.88846 4.7449 6.576 2.25764 4.84962 0.58328C 3.97054 -0.267901 3.18575 -0.970246 2.65194 -1.43143C 2.37751 -1.66834 2.14754 -1.86086 1.99871 -1.98359C 1.9207 -2.04789 1.85512 -2.10121 1.81471 -2.13384C 1.79275 -2.15157 1.77342 -2.16707 1.76227 -2.17598C 1.75583 -2.18113 1.74967 -2.18604 1.74643 -2.18861C 1.74438 -2.19024 1.74219 -2.19198 1.74117 -2.19279C 1.74044 -2.19337 1.73957 -2.19406 1.73921 -2.19435C 1.73842 -2.19497 1.7377 -2.19554 0 0Z"/>
<path id="path2_stroke" d="M 8.48842 2.60473C 9.92697 1.7827 10.4268 -0.0498645 9.60473 -1.48842C 8.7827 -2.92697 6.95014 -3.42676 5.51158 -2.60473L 8.48842 2.60473ZM -1.48842 1.39527C -2.92697 2.2173 -3.42676 4.04986 -2.60473 5.48842C -1.7827 6.92697 0.0498645 7.42676 1.48842 6.60473L -1.48842 1.39527ZM 5.51158 -2.60473L -1.48842 1.39527L 1.48842 6.60473L 8.48842 2.60473L 5.51158 -2.60473Z"/>
<path id="path3_stroke" d="M 8.18176 2.75744C 9.70465 2.10477 10.4101 0.341131 9.75743 -1.18176C 9.10477 -2.70465 7.34113 -3.4101 5.81824 -2.75744L 8.18176 2.75744ZM -1.18176 0.242565C -2.70465 0.895232 -3.4101 2.65887 -2.75744 4.18176C -2.10477 5.70465 -0.341131 6.4101 1.18176 5.75744L -1.18176 0.242565ZM 5.81824 -2.75744L -1.18176 0.242565L 1.18176 5.75744L 8.18176 2.75744L 5.81824 -2.75744Z"/>
<path id="path4_stroke" d="M 6.54349 2.57248C 7.96423 1.72003 8.42492 -0.122746 7.57248 -1.54349C 6.72003 -2.96423 4.87725 -3.42492 3.45651 -2.57248L 6.54349 2.57248ZM -1.54349 0.427521C -2.96423 1.27997 -3.42492 3.12275 -2.57248 4.54349C -1.72003 5.96423 0.122746 6.42492 1.54349 5.57248L -1.54349 0.427521ZM 3.45651 -2.57248L -1.54349 0.427521L 1.54349 5.57248L 6.54349 2.57248L 3.45651 -2.57248Z"/>
<path id="path5_fill" fill-rule="evenodd" d="M 0 8C 0 3.58172 3.58172 0 8 0L 32.7642 0C 37.1825 0 40.7642 3.58172 40.7642 8L 40.7642 66.1018C 40.7642 70.5201 37.1825 74.1018 32.7642 74.1018L 8 74.1018C 3.58172 74.1018 0 70.5201 0 66.1018L 0 8Z"/>
<path id="path6_stroke" d="M 8.07754 9.07878C 8.35072 9.35233 8.79394 9.35262 9.06749 9.07944C 9.34103 8.80625 9.34133 8.36303 9.06814 8.08949L 8.07754 9.07878ZM 0.771844 -0.217741C 0.498657 -0.491288 0.0554414 -0.49158 -0.218106 -0.218393C -0.491652 0.0547939 -0.491944 0.498009 -0.218757 0.771556L 0.771844 -0.217741ZM 9.06814 8.08949L 0.771844 -0.217741L -0.218757 0.771556L 8.07754 9.07878L 9.06814 8.08949Z"/>
<path id="path7_fill" fill-rule="evenodd" d="M 0 1C 0 0.447715 0.447715 0 1 0L 31.6025 0C 32.1548 0 32.6025 0.447715 32.6025 1L 32.6025 55.4138C 32.6025 55.9661 32.1548 56.4138 31.6025 56.4138L 1 56.4138C 0.447715 56.4138 0 55.9661 0 55.4138L 0 1Z"/>
<path id="path8_fill" fill-rule="evenodd" d="M 2.92617 5.86006C 4.54225 5.86006 5.85235 4.54824 5.85235 2.93003C 5.85235 1.31182 4.54225 0 2.92617 0C 1.31009 0 0 1.31182 0 2.93003C 0 4.54824 1.31009 5.86006 2.92617 5.86006Z"/>
<path id="path9_stroke" d="M 0 0C -0.552285 0 -1 0.447715 -1 1C -1 1.55228 -0.552285 2 0 2L 0 0ZM 8 2C 8.55229 2 9 1.55228 9 1C 9 0.447715 8.55229 0 8 0L 8 2ZM 0 1C 0 2 7.62939e-06 2 2.28733e-05 2C 3.81172e-05 2 6.09756e-05 2 9.14335e-05 2C 0.000152349 2 0.000243664 2 0.000365257 2C 0.000608444 2 0.000972748 2 0.00145721 2C 0.00242615 2 0.00387573 2 0.00579834 2C 0.00964355 2 0.0153809 2 0.0229492 2C 0.0380859 2 0.0605469 2 0.0898438 2C 0.148438 2 0.234375 2 0.34375 2C 0.5625 2 0.875 2 1.25 2C 2 2 3 2 4 2L 4 0C 3 0 2 0 1.25 0C 0.875 0 0.5625 0 0.34375 0C 0.234375 0 0.148438 0 0.0898438 0C 0.0605469 0 0.0380859 0 0.0229492 0C 0.0153809 0 0.00964355 0 0.00579834 0C 0.00387573 0 0.00242615 0 0.00145721 0C 0.000972748 0 0.000608444 0 0.000365257 0C 0.000243664 0 0.000152349 0 9.14335e-05 0C 6.09756e-05 0 3.81172e-05 0 2.28733e-05 0C 7.62939e-06 0 0 0 0 1ZM 4 2C 5 2 6 2 6.75 2C 7.125 2 7.4375 2 7.65625 2C 7.76562 2 7.85156 2 7.91016 2C 7.93945 2 7.96191 2 7.97705 2C 7.98462 2 7.99036 2 7.9942 2C 7.99612 2 7.99757 2 7.99854 2C 7.99903 2 7.99939 2 7.99963 2C 7.99976 2 7.99985 2 7.99991 2C 7.99994 2 7.99996 2 7.99998 2C 7.99999 2 8 2 8 1C 8 0 7.99999 0 7.99998 0C 7.99996 0 7.99994 0 7.99991 0C 7.99985 0 7.99976 0 7.99963 0C 7.99939 0 7.99903 0 7.99854 0C 7.99757 0 7.99612 0 7.9942 0C 7.99036 0 7.98462 0 7.97705 0C 7.96191 0 7.93945 0 7.91016 0C 7.85156 0 7.76562 0 7.65625 0C 7.4375 0 7.125 0 6.75 0C 6 0 5 0 4 0L 4 2Z"/>
<path id="path10_fill" fill-rule="evenodd" d="M 0 5.51851L 0 0L 3.93976 0L 3.93976 5.51851L 0 5.51851Z"/>
<path id="path11_fill" fill-rule="evenodd" d="M 1.98964 0L 1.95027 0C 0.873158 0 0 0.888273 0 1.98389L 0 3.53467C 0 4.63029 0.873158 5.51856 1.95027 5.51856L 1.98964 5.51856C 3.06675 5.51856 3.93991 4.63029 3.93991 3.53467L 3.93991 1.98389C 3.93991 0.888273 3.06675 0 1.98964 0Z"/>
<path id="path12_fill" fill-rule="evenodd" d="M 16 0L 21 57L 11 59L 0 4L 16 0Z"/>
<path id="path13_stroke" d="M 29.6936 5.32383C 31.0879 5.99264 32.7603 5.40452 33.4291 4.01024C 34.098 2.61595 33.5098 0.943478 32.1156 0.274669L 29.6936 5.32383ZM -2.40671 12.5453C -3.19703 13.8745 -2.76019 15.5927 -1.431 16.383C -0.101813 17.1733 1.61639 16.7365 2.40671 15.4073L -2.40671 12.5453ZM 30.9046 2.79925C 32.1156 0.274669 32.1141 0.273972 32.1126 0.273241C 32.112 0.272951 32.1104 0.272184 32.1091 0.271605C 32.1076 0.270888 32.104 0.269147 32.101 0.267717C 32.0968 0.265741 32.0877 0.261447 32.0794 0.25753C 32.0664 0.251463 32.0412 0.239731 32.0153 0.22789C 31.9713 0.207744 31.8931 0.17259 31.8059 0.134649C 31.6475 0.0658303 31.3844 -0.0440972 31.0773 -0.162812C 30.4969 -0.386251 29.5769 -0.706877 28.5026 -1.00108C 26.4295 -1.56261 23.2675 -2.12493 19.8439 -1.99636C 12.7433 -1.69355 4.12373 1.56216 -2.40671 12.5453L 2.40671 15.4073C 7.90547 6.15927 14.7382 3.82647 20.0825 3.59855C 22.8814 3.46175 25.1901 3.89851 27.0321 4.4024C 27.9153 4.64091 28.5639 4.86958 29.0627 5.06226C 29.2952 5.1516 29.4495 5.21644 29.5734 5.27037C 29.6274 5.2938 29.6567 5.30702 29.6848 5.3199C 29.695 5.32457 29.697 5.32552 29.7023 5.328C 29.7031 5.32836 29.7017 5.3277 29.7013 5.32751C 29.702 5.32785 29.6979 5.3259 29.6983 5.32607C 29.6976 5.32577 29.6965 5.32521 29.6961 5.32505C 29.6949 5.32446 29.6936 5.32383 30.9046 2.79925Z"/>
<path id="path14_stroke" d="M -0.431529 12.1373C -0.0795641 13.7563 1.51825 14.7835 3.13729 14.4315C 4.75633 14.0796 5.78349 12.4817 5.43153 10.8627L -0.431529 12.1373ZM 2.93153 -0.637289C 2.57956 -2.25633 0.98175 -3.28349 -0.637289 -2.93153C -2.25633 -2.57956 -3.28349 -0.98175 -2.93153 0.637289L 2.93153 -0.637289ZM 5.43153 10.8627L 2.93153 -0.637289L -2.93153 0.637289L -0.431529 12.1373L 5.43153 10.8627Z"/>
</defs>
</svg>
