<svg width="150" height="150" viewBox="0 0 150 150" version="1.1" xmlns="http://www.w3.org/2000/svg" xmlns:xlink="http://www.w3.org/1999/xlink">
<title>Mascot_011</title>
<desc>Created using Figma</desc>
<g id="Canvas" transform="translate(-2779 -5312)">
<clipPath id="clip-0" clip-rule="evenodd">
<path d="M 2779 5312L 2929 5312L 2929 5462L 2779 5462L 2779 5312Z" fill="#FFFFFF"/>
</clipPath>
<g id="Mascot_011" clip-path="url(#clip-0)">
<path d="M 2779 5312L 2929 5312L 2929 5462L 2779 5462L 2779 5312Z" fill="#FFFFFF"/>
<g id="Rectangle 4" opacity="0.178159">
<use xlink:href="#path0_fill" transform="translate(2808.37 5400.05)" fill="url(#paint0_linear)"/>
</g>
<g id="mascot_arm_right copy">
<g id="Path 2">
<use xlink:href="#path1_stroke" transform="matrix(0.731354 -0.681998 0.681998 0.731354 2873.1 5399.02)" fill="#2F2B64"/>
</g>
<g id="Group 4">
<g id="Group 5">
<g id="Line">
<use xlink:href="#path2_stroke" transform="matrix(-0.0871557 0.996195 0.996195 0.0871557 2883.43 5414.68)" fill="#A499FF"/>
</g>
<g id="Line Copy">
<use xlink:href="#path3_stroke" transform="matrix(-0.0871557 0.996195 0.996195 0.0871557 2888.33 5416.12)" fill="#A499FF"/>
</g>
<g id="Line Copy 2">
<use xlink:href="#path4_stroke" transform="matrix(-0.0871557 0.996195 0.996195 0.0871557 2892.14 5418.46)" fill="#A499FF"/>
</g>
</g>
</g>
</g>
<g id="mascot_arm_left">
<g id="Group 4">
<g id="Path 2">
<use xlink:href="#path5_stroke" transform="matrix(0.731354 -0.681998 0.681998 0.731354 2810 5413.61)" fill="#2F2B64"/>
</g>
</g>
<g id="Group 5">
<g id="Line">
<use xlink:href="#path2_stroke" transform="translate(2803 5407)" fill="#A499FF"/>
</g>
<g id="Line Copy">
<use xlink:href="#path3_stroke" transform="translate(2804 5412)" fill="#A499FF"/>
</g>
<g id="Line Copy">
<use xlink:href="#path6_stroke" transform="translate(2807 5400)" fill="#A499FF"/>
</g>
<g id="Line Copy 2">
<use xlink:href="#path4_stroke" transform="translate(2806 5416)" fill="#A499FF"/>
</g>
</g>
</g>
<g id="Group">
<g id="Group 2">
<g id="Rectangle 5 Copy" filter="url(#filter0_i)">
<use xlink:href="#path7_fill" transform="matrix(0.978148 -0.207912 0.207912 0.978148 2825.94 5362.73)" fill="#2F2B64"/>
</g>
<g id="Line Copy 8">
<use xlink:href="#path8_stroke" transform="matrix(0.544639 -0.838671 0.838671 0.544639 2840.81 5362.94)" fill="#B0B1B1"/>
</g>
<g id="Rectangle 6 Copy">
<use xlink:href="#path9_fill" transform="matrix(0.978148 -0.207912 0.207912 0.978148 2831.48 5368.53)" fill="#FFFFFF"/>
</g>
<g id="Oval 7 Copy">
<use xlink:href="#path10_fill" transform="matrix(0.544639 -0.838671 0.838671 0.544639 2856.58 5426.85)" fill="#FFFFFF"/>
</g>
</g>
<g id="mascot_mouth_happy">
<g id="Path 6">
<use xlink:href="#path11_stroke" transform="translate(2851 5400)" fill="#FF5657"/>
</g>
</g>
<g id="Page 1">
<g id="Group 3">
<mask id="mask0_outline" mask-type="alpha">
<g id="Clip 2">
<use xlink:href="#path12_fill" transform="matrix(0.97437 -0.224951 0.224951 0.97437 2842.35 5383.87)" fill="#FFFFFF"/>
</g>
</mask>
<g id="Fill 1" mask="url(#mask0_outline)">
<use xlink:href="#path13_fill" transform="matrix(0.97437 -0.224951 0.224951 0.97437 2842.35 5383.87)" fill="#2F2564"/>
</g>
</g>
<g id="Group 3">
<mask id="mask1_outline" mask-type="alpha">
<g id="Clip 2">
<use xlink:href="#path12_fill" transform="matrix(0.97437 -0.224951 0.224951 0.97437 2856.03 5381.03)" fill="#FFFFFF"/>
</g>
</mask>
<g id="Fill 1" mask="url(#mask1_outline)">
<use xlink:href="#path13_fill" transform="matrix(0.97437 -0.224951 0.224951 0.97437 2856.03 5381.03)" fill="#2F2564"/>
</g>
</g>
</g>
<g id="Path 8">
<use xlink:href="#path14_fill" transform="translate(2832 5365)" fill="#D8D8D8" fill-opacity="0.27" style="mix-blend-mode:multiply"/>
</g>
</g>
</g>
</g>
<defs>
<filter id="filter0_i" filterUnits="userSpaceOnUse" x="2824" y="5355" width="59" height="82" color-interpolation-filters="sRGB">
<feFlood flood-opacity="0" result="BackgroundImageFix"/>
<feBlend mode="normal" in="SourceGraphic" in2="BackgroundImageFix" result="shape"/>
<feColorMatrix in="SourceAlpha" type="matrix" values="0 0 0 0 0 0 0 0 0 0 0 0 0 0 0 0 0 0 255 0" result="hardAlpha"/>
<feOffset dx="0" dy="3"/>
<feGaussianBlur stdDeviation="1.5"/>
<feComposite in2="hardAlpha" operator="arithmetic" k2="-1" k3="1"/>
<feColorMatrix type="matrix" values="0 0 0 0 0 0 0 0 0 0 0 0 0 0 0 0 0 0 0.064906 0"/>
<feBlend mode="normal" in2="shape" result="effect1_innerShadow"/>
</filter>
<linearGradient id="paint0_linear" x1="0" y1="0" x2="1" y2="0" gradientUnits="userSpaceOnUse" gradientTransform="matrix(-0.0125902 39.4036 -80.7141 -0.00614636 49.6664 -6.8802)">
<stop offset="0" stop-color="#FFFFFF"/>
<stop offset="0.637244" stop-color="#5D5D5D"/>
<stop offset="0.637244" stop-color="#5D5D5D"/>
<stop offset="1"/>
</linearGradient>
<path id="path0_fill" fill-rule="evenodd" d="M 1.88448 12.9538C -1.09815 10.957 -0.144791 6.34627 3.38515 5.69607L 33.9595 0.0644337C 34.9724 -0.122138 36.0182 0.0891868 36.8792 0.654405L 64.4734 18.7692C 68.1548 21.1859 67.1402 26.8371 62.8481 27.8223L 45.3568 31.8372C 38.1019 33.5024 30.4813 32.0987 24.2959 27.9577L 1.88448 12.9538Z"/>
<path id="path1_stroke" d="M 1.9856 -1.97418C 0.89529 -3.0708 -0.877564 -3.07591 -1.97418 -1.9856C -3.0708 -0.89529 -3.07591 0.877564 -1.9856 1.97418L 1.9856 -1.97418ZM 0.534159 22.0022C -0.914923 22.5421 -1.65195 24.1545 -1.11203 25.6035C -0.572118 27.0526 1.04028 27.7897 2.48936 27.2497L 0.534159 22.0022ZM 0 0C -1.9856 1.97418 -1.98614 1.97364 -1.98661 1.97317C -1.98667 1.9731 -1.98707 1.9727 -1.9872 1.97257C -1.98735 1.97242 -1.98745 1.97232 -1.98716 1.97261C -1.98578 1.974 -1.98497 1.97483 -1.98226 1.97757C -1.97522 1.98473 -1.96732 1.99277 -1.95369 2.00677C -1.9231 2.03817 -1.88348 2.07911 -1.82577 2.13969C -1.70352 2.26793 -1.53895 2.44321 -1.3214 2.68319C -0.872048 3.17838 -0.28194 3.85316 0.403961 4.71479C 1.80554 6.47123 3.37966 8.68164 4.49824 11.1412C 5.62957 13.6001 6.049 15.7755 5.62941 17.4704C 5.26405 18.9462 4.10403 20.6721 0.534159 22.0022L 2.48936 27.2497C 7.3009 25.457 10.1426 22.5432 11.0653 18.8161C 11.9338 15.3081 10.9276 11.7173 9.58563 8.80054C 8.23092 5.88427 6.28406 3.10926 4.783 1.22423C 4.01758 0.265111 3.31095 -0.544861 2.82639 -1.07923C 2.57698 -1.35404 2.36531 -1.57975 2.22804 -1.72381C 2.15601 -1.79937 2.09506 -1.8624 2.05751 -1.90094C 2.03708 -1.92191 2.01902 -1.94032 2.00863 -1.95088C 2.00261 -1.95699 1.99683 -1.96284 1.99381 -1.9659C 1.99189 -1.96785 1.98983 -1.96992 1.98887 -1.97089C 1.98818 -1.97158 1.98737 -1.9724 1.98702 -1.97275C 1.98628 -1.9735 1.9856 -1.97418 0 0Z"/>
<path id="path2_stroke" d="M 8.48842 2.60473C 9.92697 1.7827 10.4268 -0.0498645 9.60473 -1.48842C 8.7827 -2.92697 6.95014 -3.42676 5.51158 -2.60473L 8.48842 2.60473ZM -1.48842 1.39527C -2.92697 2.2173 -3.42676 4.04986 -2.60473 5.48842C -1.7827 6.92697 0.0498645 7.42676 1.48842 6.60473L -1.48842 1.39527ZM 5.51158 -2.60473L -1.48842 1.39527L 1.48842 6.60473L 8.48842 2.60473L 5.51158 -2.60473Z"/>
<path id="path3_stroke" d="M 8.18176 2.75744C 9.70465 2.10477 10.4101 0.341131 9.75743 -1.18176C 9.10477 -2.70465 7.34113 -3.4101 5.81824 -2.75744L 8.18176 2.75744ZM -1.18176 0.242565C -2.70465 0.895232 -3.4101 2.65887 -2.75744 4.18176C -2.10477 5.70465 -0.341131 6.4101 1.18176 5.75744L -1.18176 0.242565ZM 5.81824 -2.75744L -1.18176 0.242565L 1.18176 5.75744L 8.18176 2.75744L 5.81824 -2.75744Z"/>
<path id="path4_stroke" d="M 6.54349 2.57248C 7.96423 1.72003 8.42492 -0.122746 7.57248 -1.54349C 6.72003 -2.96423 4.87725 -3.42492 3.45651 -2.57248L 6.54349 2.57248ZM -1.54349 0.427521C -2.96423 1.27997 -3.42492 3.12275 -2.57248 4.54349C -1.72003 5.96423 0.122746 6.42492 1.54349 5.57248L -1.54349 0.427521ZM 3.45651 -2.57248L -1.54349 0.427521L 1.54349 5.57248L 6.54349 2.57248L 3.45651 -2.57248Z"/>
<path id="path5_stroke" d="M 21.336 12.8969C 22.2241 14.1628 23.9703 14.4691 25.2362 13.5809C 26.5022 12.6928 26.8084 10.9466 25.9203 9.68068L 21.336 12.8969ZM 0.0732861 -2.79904C -1.47258 -2.83952 -2.75857 -1.61915 -2.79904 -0.0732861C -2.83952 1.47258 -1.61915 2.75857 -0.0732861 2.79904L 0.0732861 -2.79904ZM 23.6281 11.2888C 25.9203 9.68068 25.9195 9.67955 25.9187 9.67838C 25.9184 9.67794 25.9175 9.67673 25.9169 9.67584C 25.9161 9.67478 25.9142 9.6721 25.9128 9.66999C 25.9108 9.66722 25.9063 9.66086 25.9023 9.65532C 25.8965 9.64716 25.8846 9.63049 25.8728 9.61428C 25.8535 9.58772 25.8178 9.53904 25.7789 9.48707C 25.7098 9.39496 25.5908 9.2401 25.4508 9.06577C 25.1895 8.74123 24.7584 8.23269 24.2258 7.66512C 23.2031 6.57994 21.5433 5.02097 19.4343 3.51734C 15.3265 0.617551 8.6556 -2.51294 0.0732861 -2.79904L -0.0732861 2.79904C 7.34655 2.93191 12.4897 5.44582 16.1954 8.08568C 17.9932 9.35188 19.2401 10.5366 20.1473 11.5025C 20.5796 11.9606 20.8694 12.3045 21.0876 12.5761C 21.1873 12.6998 21.2478 12.7788 21.2982 12.8462C 21.3191 12.8739 21.3281 12.8863 21.3387 12.9009C 21.3419 12.9053 21.3444 12.9088 21.3427 12.9065C 21.343 12.9068 21.3406 12.9035 21.3407 12.9036C 21.3413 12.9044 21.3384 12.9004 21.3387 12.9008C 21.3383 12.9002 21.3376 12.8992 21.3374 12.899C 21.3367 12.8979 21.336 12.8969 23.6281 11.2888Z"/>
<path id="path6_stroke" d="M -0.431529 12.1373C -0.0795641 13.7563 1.51825 14.7835 3.13729 14.4315C 4.75633 14.0796 5.78349 12.4817 5.43153 10.8627L -0.431529 12.1373ZM 2.93153 -0.637289C 2.57956 -2.25633 0.98175 -3.28349 -0.637289 -2.93153C -2.25633 -2.57956 -3.28349 -0.98175 -2.93153 0.637289L 2.93153 -0.637289ZM 5.43153 10.8627L 2.93153 -0.637289L -2.93153 0.637289L -0.431529 12.1373L 5.43153 10.8627Z"/>
<path id="path7_fill" fill-rule="evenodd" d="M 0 8C 0 3.58172 3.58172 0 8 0L 32.7642 0C 37.1825 0 40.7642 3.58172 40.7642 8L 40.7642 66.1018C 40.7642 70.5201 37.1825 74.1018 32.7642 74.1018L 8 74.1018C 3.58172 74.1018 0 70.5201 0 66.1018L 0 8Z"/>
<path id="path8_stroke" d="M 8.07754 9.07878C 8.35072 9.35233 8.79394 9.35262 9.06749 9.07944C 9.34103 8.80625 9.34133 8.36303 9.06814 8.08949L 8.07754 9.07878ZM 0.771844 -0.217741C 0.498657 -0.491288 0.0554414 -0.49158 -0.218106 -0.218393C -0.491652 0.0547939 -0.491944 0.498009 -0.218757 0.771556L 0.771844 -0.217741ZM 9.06814 8.08949L 0.771844 -0.217741L -0.218757 0.771556L 8.07754 9.07878L 9.06814 8.08949Z"/>
<path id="path9_fill" fill-rule="evenodd" d="M 0 1C 0 0.447715 0.447715 0 1 0L 31.6025 0C 32.1548 0 32.6025 0.447715 32.6025 1L 32.6025 55.4138C 32.6025 55.9661 32.1548 56.4138 31.6025 56.4138L 1 56.4138C 0.447715 56.4138 0 55.9661 0 55.4138L 0 1Z"/>
<path id="path10_fill" fill-rule="evenodd" d="M 2.92617 5.86006C 4.54225 5.86006 5.85235 4.54824 5.85235 2.93003C 5.85235 1.31182 4.54225 0 2.92617 0C 1.31009 0 0 1.31182 0 2.93003C 0 4.54824 1.31009 5.86006 2.92617 5.86006Z"/>
<path id="path11_stroke" d="M -0.124035 0.00772212C -0.672055 0.0762246 -1.06078 0.576015 -0.992278 1.12403C -0.923775 1.67205 -0.423985 2.06078 0.124035 1.99228L -0.124035 0.00772212ZM 8.12403 0.992278C 8.67205 0.923775 9.06078 0.423985 8.99228 -0.124035C 8.92378 -0.672055 8.42399 -1.06078 7.87597 -0.992278L 8.12403 0.992278ZM 0.124035 1.99228L 8.12403 0.992278L 7.87597 -0.992278L -0.124035 0.00772212L 0.124035 1.99228Z"/>
<path id="path12_fill" fill-rule="evenodd" d="M 0 5.51851L 0 0L 3.93976 0L 3.93976 5.51851L 0 5.51851Z"/>
<path id="path13_fill" fill-rule="evenodd" d="M 1.98964 0L 1.95027 0C 0.873158 0 0 0.888273 0 1.98389L 0 3.53467C 0 4.63029 0.873158 5.51856 1.95027 5.51856L 1.98964 5.51856C 3.06675 5.51856 3.93991 4.63029 3.93991 3.53467L 3.93991 1.98389C 3.93991 0.888273 3.06675 0 1.98964 0Z"/>
<path id="path14_fill" fill-rule="evenodd" d="M 16 0L 21 57L 11 59L 0 4L 16 0Z"/>
</defs>
</svg>
