<svg width="83" height="79" viewBox="0 0 83 79" version="1.1" xmlns="http://www.w3.org/2000/svg" xmlns:xlink="http://www.w3.org/1999/xlink">
<title>Group 19</title>
<desc>Created using Figma</desc>
<g id="Canvas" transform="translate(-1851 -5787)">
<g id="Group 19">
<g id="Group 5">
<g id="Group 8">
<g id="Rectangle 4" opacity="0.178159">
<use xlink:href="#path0_fill" transform="translate(1853.37 5832.05)" fill="url(#paint0_linear)"/>
</g>
<g id="Mascot">
<g id="Path 5 Copy">
<use xlink:href="#path1_stroke" transform="matrix(0.906308 -0.422618 0.422618 0.906308 1923.33 5842.73)" fill="#A499FF"/>
</g>
<g id="Group 7">
<g id="Group 4">
<g id="Group">
<g id="Group 2">
<g id="Rectangle 5 Copy" filter="url(#filter0_i)">
<use xlink:href="#path2_fill" transform="matrix(0.978148 -0.207912 0.207912 0.978148 1870.94 5794.73)" fill="#2F2B64"/>
</g>
<g id="Line Copy 8">
<use xlink:href="#path3_stroke" transform="matrix(0.544639 -0.838671 0.838671 0.544639 1885.81 5794.94)" fill="#B0B1B1"/>
</g>
<g id="Rectangle 6 Copy">
<use xlink:href="#path4_fill" transform="matrix(0.978148 -0.207912 0.207912 0.978148 1876.48 5800.53)" fill="#FFFFFF"/>
</g>
<g id="Oval 7 Copy">
<use xlink:href="#path5_fill" transform="matrix(0.544639 -0.838671 0.838671 0.544639 1901.58 5858.85)" fill="#FFFFFF"/>
</g>
</g>
<g id="Page 1">
<g id="Group 3">
<mask id="mask0_outline" mask-type="alpha">
<g id="Clip 2">
<use xlink:href="#path6_fill" transform="matrix(0.97437 -0.224951 0.224951 0.97437 1887.35 5815.87)" fill="#FFFFFF"/>
</g>
</mask>
<g id="Fill 1" mask="url(#mask0_outline)">
<use xlink:href="#path7_fill" transform="matrix(0.97437 -0.224951 0.224951 0.97437 1887.35 5815.87)" fill="#2F2564"/>
</g>
</g>
<g id="Group 3">
<mask id="mask1_outline" mask-type="alpha">
<g id="Clip 2">
<use xlink:href="#path6_fill" transform="matrix(0.97437 -0.224951 0.224951 0.97437 1901.03 5813.03)" fill="#FFFFFF"/>
</g>
</mask>
<g id="Fill 1" mask="url(#mask1_outline)">
<use xlink:href="#path7_fill" transform="matrix(0.97437 -0.224951 0.224951 0.97437 1901.03 5813.03)" fill="#2F2564"/>
</g>
</g>
<g id="Oval">
<use xlink:href="#path8_stroke" transform="matrix(0.97437 -0.224951 0.224951 0.97437 1895.34 5830.27)" fill="#FF5657"/>
</g>
</g>
<g id="Path 2">
<use xlink:href="#path9_stroke" transform="matrix(0.731354 -0.681998 0.681998 0.731354 1860.34 5821.78)" fill="#2F2B64"/>
</g>
</g>
</g>
<g id="Path 4">
<use xlink:href="#path10_stroke" transform="matrix(0.838671 -0.544639 0.544639 0.838671 1917.9 5827.57)" fill="#2F2564"/>
</g>
<g id="Path 5 Copy 2">
<use xlink:href="#path11_stroke" transform="matrix(0.906308 -0.422618 0.422618 0.906308 1922.67 5840.33)" fill="#A499FF"/>
</g>
</g>
<g id="Path 5">
<use xlink:href="#path1_stroke" transform="matrix(0.978148 -0.207912 0.207912 0.978148 1922.58 5843.74)" fill="#A499FF"/>
</g>
</g>
</g>
<g id="Path 8">
<use xlink:href="#path12_fill" transform="translate(1877 5797)" fill="#D8D8D8" fill-opacity="0.27" style="mix-blend-mode:multiply"/>
</g>
<g id="Line">
<use xlink:href="#path13_stroke" transform="translate(1854 5807)" fill="#A499FF"/>
</g>
<g id="Line Copy">
<use xlink:href="#path14_stroke" transform="translate(1855 5812)" fill="#A499FF"/>
</g>
<g id="Line Copy">
<use xlink:href="#path15_stroke" transform="translate(1858 5800)" fill="#A499FF"/>
</g>
<g id="Line Copy 2">
<use xlink:href="#path16_stroke" transform="translate(1857 5816)" fill="#A499FF"/>
</g>
</g>
</g>
</g>
<defs>
<filter id="filter0_i" filterUnits="userSpaceOnUse" x="1872" y="5787" width="53" height="82" color-interpolation-filters="sRGB">
<feFlood flood-opacity="0" result="BackgroundImageFix"/>
<feBlend mode="normal" in="SourceGraphic" in2="BackgroundImageFix" result="shape"/>
<feColorMatrix in="SourceAlpha" type="matrix" values="0 0 0 0 0 0 0 0 0 0 0 0 0 0 0 0 0 0 255 0" result="hardAlpha"/>
<feOffset dx="0" dy="3"/>
<feGaussianBlur stdDeviation="1.5"/>
<feComposite in2="hardAlpha" operator="arithmetic" k2="-1" k3="1"/>
<feColorMatrix type="matrix" values="0 0 0 0 0 0 0 0 0 0 0 0 0 0 0 0 0 0 0.064906 0"/>
<feBlend mode="normal" in2="shape" result="effect1_innerShadow"/>
</filter>
<linearGradient id="paint0_linear" x1="0" y1="0" x2="1" y2="0" gradientUnits="userSpaceOnUse" gradientTransform="matrix(-0.0125902 39.4036 -80.7141 -0.00614636 49.6664 -6.8802)">
<stop offset="0" stop-color="#FFFFFF"/>
<stop offset="0.637244" stop-color="#5D5D5D"/>
<stop offset="0.637244" stop-color="#5D5D5D"/>
<stop offset="1"/>
</linearGradient>
<path id="path0_fill" fill-rule="evenodd" d="M 1.88448 12.9538C -1.09815 10.957 -0.144791 6.34627 3.38515 5.69607L 33.9595 0.0644337C 34.9724 -0.122138 36.0182 0.0891868 36.8792 0.654405L 64.4734 18.7692C 68.1548 21.1859 67.1402 26.8371 62.8481 27.8223L 45.3568 31.8372C 38.1019 33.5024 30.4813 32.0987 24.2959 27.9577L 1.88448 12.9538Z"/>
<path id="path1_stroke" d="M 4.21737 1.55C 5.07341 0.262155 4.72336 -1.47581 3.43552 -2.33185C 2.14768 -3.18789 0.409715 -2.83784 -0.446325 -1.55L 4.21737 1.55ZM 0 2.83661L -2.33185 1.28662C -3.13418 2.49366 -2.88276 4.11349 -1.75228 5.02053L 0 2.83661ZM 2.96152 8.80269C 4.16767 9.77045 5.92996 9.5772 6.89772 8.37105C 7.86548 7.1649 7.67223 5.40261 6.46609 4.43485L 2.96152 8.80269ZM -0.446325 -1.55L -2.33185 1.28662L 2.33185 4.38661L 4.21737 1.55L -0.446325 -1.55ZM -1.75228 5.02053L 2.96152 8.80269L 6.46609 4.43485L 1.75228 0.652695L -1.75228 5.02053Z"/>
<path id="path2_fill" fill-rule="evenodd" d="M 0 8C 0 3.58172 3.58172 0 8 0L 32.7642 0C 37.1825 0 40.7642 3.58172 40.7642 8L 40.7642 66.1018C 40.7642 70.5201 37.1825 74.1018 32.7642 74.1018L 8 74.1018C 3.58172 74.1018 0 70.5201 0 66.1018L 0 8Z"/>
<path id="path3_stroke" d="M 8.07754 9.07878C 8.35072 9.35233 8.79394 9.35262 9.06749 9.07944C 9.34103 8.80625 9.34133 8.36303 9.06814 8.08949L 8.07754 9.07878ZM 0.771844 -0.217741C 0.498657 -0.491288 0.0554414 -0.49158 -0.218106 -0.218393C -0.491652 0.0547939 -0.491944 0.498009 -0.218757 0.771556L 0.771844 -0.217741ZM 9.06814 8.08949L 0.771844 -0.217741L -0.218757 0.771556L 8.07754 9.07878L 9.06814 8.08949Z"/>
<path id="path4_fill" fill-rule="evenodd" d="M 0 1C 0 0.447715 0.447715 0 1 0L 31.6025 0C 32.1548 0 32.6025 0.447715 32.6025 1L 32.6025 55.4138C 32.6025 55.9661 32.1548 56.4138 31.6025 56.4138L 1 56.4138C 0.447715 56.4138 0 55.9661 0 55.4138L 0 1Z"/>
<path id="path5_fill" fill-rule="evenodd" d="M 2.92617 5.86006C 4.54225 5.86006 5.85235 4.54824 5.85235 2.93003C 5.85235 1.31182 4.54225 0 2.92617 0C 1.31009 0 0 1.31182 0 2.93003C 0 4.54824 1.31009 5.86006 2.92617 5.86006Z"/>
<path id="path6_fill" fill-rule="evenodd" d="M 0 5.51851L 0 0L 3.93976 0L 3.93976 5.51851L 0 5.51851Z"/>
<path id="path7_fill" fill-rule="evenodd" d="M 1.98964 0L 1.95027 0C 0.873158 0 0 0.888273 0 1.98389L 0 3.53467C 0 4.63029 0.873158 5.51856 1.95027 5.51856L 1.98964 5.51856C 3.06675 5.51856 3.93991 4.63029 3.93991 3.53467L 3.93991 1.98389C 3.93991 0.888273 3.06675 0 1.98964 0Z"/>
<path id="path8_stroke" d="M 1 0C 1 -0.552285 0.552285 -1 0 -1C -0.552285 -1 -1 -0.552285 -1 0L 1 0ZM -1 0C -1 1.43384 0.179248 2.43734 1.40212 3.02317C 2.64429 3.61057 4.42752 3.99443 6.26223 4L 6.26223 2C 4.63841 2.00557 3.29052 1.71785 2.26621 1.21947C 1.2226 0.719514 1 0.223018 1 0L -1 0Z"/>
<path id="path9_stroke" d="M 2.77504 25.5108C 3.82436 26.6467 5.59583 26.7169 6.73174 25.6676C 7.86764 24.6182 7.93782 22.8468 6.8885 21.7109L 2.77504 25.5108ZM 4.10835 0.695685C 4.49257 -0.802221 3.58974 -2.32798 2.09184 -2.7122C 0.59393 -3.09642 -0.931831 -2.19359 -1.31605 -0.695685L 4.10835 0.695685ZM 4.83177 23.6108C 6.8885 21.7109 6.88962 21.7121 6.89071 21.7133C 6.89103 21.7136 6.89209 21.7148 6.89274 21.7155C 6.8922 21.7149 6.8974 21.7206 6.89632 21.7194C 6.89568 21.7187 6.9028 21.7265 6.90151 21.7251C 6.90198 21.7256 6.90501 21.729 6.90421 21.7281C 6.8965 21.7194 6.89465 21.7174 6.8804 21.7005C 6.83964 21.6528 6.80011 21.6055 6.72774 21.5122C 6.55847 21.2959 6.36256 21.0304 6.09618 20.6086C 5.51473 19.6976 4.86067 18.4997 4.26476 16.7347C 3.0765 13.2729 2.25326 7.92792 4.10835 0.695685L -1.31605 -0.695685C -3.4544 7.64089 -2.55982 14.1014 -1.03191 18.5527C -0.26974 20.7444 0.683872 22.53 1.37058 23.6134C 1.73827 24.1888 2.09156 24.6733 2.31297 24.9575C 2.43594 25.1146 2.55212 25.2552 2.61823 25.3329C 2.65742 25.3788 2.6968 25.4238 2.71695 25.4465C 2.73009 25.4613 2.74466 25.4775 2.7513 25.4848C 2.75614 25.4902 2.76209 25.4967 2.76452 25.4994C 2.7665 25.5015 2.76913 25.5044 2.77012 25.5055C 2.771 25.5064 2.77223 25.5078 2.77267 25.5082C 2.77387 25.5095 2.77504 25.5108 4.83177 23.6108Z"/>
<path id="path10_stroke" d="M 2.68874 -1.25443C 1.99594 -2.63695 0.313556 -3.19608 -1.06897 -2.50328C -2.45149 -1.81047 -3.01062 -0.12809 -2.31781 1.25443L 2.68874 -1.25443ZM 6.92287 8.75613L 9.72287 8.75613C 9.72287 7.87621 9.30923 7.04746 8.60604 6.51851L 6.92287 8.75613ZM -2.16513 12.1488C -3.14568 13.3446 -2.97121 15.1089 -1.77544 16.0894C -0.579673 17.07 1.18458 16.8955 2.16513 15.6997L -2.16513 12.1488ZM 0.185466 0C -2.31781 1.25443 -2.31761 1.25484 -2.31739 1.25528C -2.3173 1.25545 -2.31707 1.25591 -2.3169 1.25626C -2.31667 1.2567 -2.31615 1.25775 -2.3157 1.25863C -2.31508 1.25987 -2.31375 1.26252 -2.3125 1.265C -2.31052 1.26892 -2.30675 1.27638 -2.3028 1.28416C -2.29597 1.29762 -2.28405 1.32101 -2.27045 1.34746C -2.24546 1.39606 -2.20445 1.47509 -2.15522 1.56827C -2.06139 1.74574 -1.91338 2.02016 -1.73266 2.34175C -1.38141 2.96602 -0.84096 3.88093 -0.19557 4.85867C 1.07418 6.77575 3.06829 9.32851 5.23971 10.9938L 8.60604 6.51851C 7.00641 5.34715 5.63182 3.52183 4.47563 1.77C 3.90805 0.913284 3.47122 0.171032 3.14842 -0.403255C 2.99213 -0.680944 2.87893 -0.891151 2.7958 -1.04848C 2.75655 -1.1227 2.73016 -1.17362 2.70986 -1.21311C 2.7008 -1.23071 2.69561 -1.24091 2.69098 -1.25003C 2.6892 -1.25353 2.68866 -1.2546 2.68776 -1.2564C 2.68757 -1.25677 2.68762 -1.25667 2.68772 -1.25647C 2.68764 -1.25663 2.68814 -1.25564 2.6881 -1.25572C 2.68818 -1.25555 2.68835 -1.25523 2.68839 -1.25514C 2.68856 -1.2548 2.68874 -1.25443 0.185466 0ZM 6.92287 8.75613C 5.53917 6.32193 5.53893 6.32207 5.53867 6.32221C 5.53856 6.32228 5.53828 6.32243 5.53805 6.32256C 5.53775 6.32273 5.53708 6.32312 5.53648 6.32346C 5.53557 6.32398 5.53376 6.32501 5.53195 6.32604C 5.52892 6.32777 5.52348 6.33088 5.51747 6.33431C 5.50666 6.3405 5.48864 6.35084 5.46746 6.36305C 5.42754 6.38607 5.36446 6.42263 5.28834 6.46718C 5.14124 6.55332 4.91839 6.6853 4.65478 6.84523C 4.13849 7.15863 3.39629 7.62249 2.61049 8.14976C 1.11929 9.15125 -0.929365 10.6418 -2.16513 12.1488L 2.16513 15.6997C 2.82307 14.8974 4.23586 13.8039 5.73266 12.7986C 6.44087 12.3225 7.07432 11.9274 7.56017 11.6326C 7.79764 11.4884 7.98249 11.379 8.11781 11.2998C 8.18292 11.2617 8.22974 11.2345 8.26441 11.2146C 8.28052 11.2053 8.29098 11.1993 8.29931 11.1945C 8.30288 11.1925 8.30467 11.1914 8.30649 11.1904C 8.30711 11.19 8.30713 11.19 8.30744 11.1899C 8.30745 11.1898 8.30724 11.19 8.30724 11.19C 8.30717 11.19 8.307 11.1901 8.30697 11.1901C 8.30678 11.1902 8.30658 11.1903 6.92287 8.75613Z"/>
<path id="path11_stroke" d="M 2.07573 0L 4.30857 -1.6895C 3.74778 -2.43064 2.85579 -2.84522 1.9277 -2.79608C 0.999608 -2.74695 0.156377 -2.2405 -0.323022 -1.4443L 2.07573 0ZM 0 3.44746L -2.39875 2.00316C -3.12172 3.2039 -2.84549 4.75423 -1.75228 5.63138L 0 3.44746ZM 4.7138 7.22961L 2.96152 9.41353C 3.95492 10.2106 5.36109 10.2368 6.3835 9.4773L 4.7138 7.22961ZM 6.52694 5.88272L 8.19664 8.13041C 8.79621 7.68502 9.19298 7.01854 9.29873 6.27917C 9.40448 5.5398 9.21045 4.78883 8.75978 4.19322L 6.52694 5.88272ZM -0.323022 -1.4443L -2.39875 2.00316L 2.39875 4.89175L 4.47448 1.4443L -0.323022 -1.4443ZM -1.75228 5.63138L 2.96152 9.41353L 6.46609 5.04569L 1.75228 1.26354L -1.75228 5.63138ZM 6.3835 9.4773L 8.19664 8.13041L 4.85724 3.63503L 3.04411 4.98192L 6.3835 9.4773ZM 8.75978 4.19322L 4.30857 -1.6895L -0.157115 1.6895L 4.2941 7.57222L 8.75978 4.19322Z"/>
<path id="path12_fill" fill-rule="evenodd" d="M 16 0L 21 57L 11 59L 0 4L 16 0Z"/>
<path id="path13_stroke" d="M 8.48842 2.60473C 9.92697 1.7827 10.4268 -0.0498645 9.60473 -1.48842C 8.7827 -2.92697 6.95014 -3.42676 5.51158 -2.60473L 8.48842 2.60473ZM -1.48842 1.39527C -2.92697 2.2173 -3.42676 4.04986 -2.60473 5.48842C -1.7827 6.92697 0.0498645 7.42676 1.48842 6.60473L -1.48842 1.39527ZM 5.51158 -2.60473L -1.48842 1.39527L 1.48842 6.60473L 8.48842 2.60473L 5.51158 -2.60473Z"/>
<path id="path14_stroke" d="M 8.18176 2.75744C 9.70465 2.10477 10.4101 0.341131 9.75743 -1.18176C 9.10477 -2.70465 7.34113 -3.4101 5.81824 -2.75744L 8.18176 2.75744ZM -1.18176 0.242565C -2.70465 0.895232 -3.4101 2.65887 -2.75744 4.18176C -2.10477 5.70465 -0.341131 6.4101 1.18176 5.75744L -1.18176 0.242565ZM 5.81824 -2.75744L -1.18176 0.242565L 1.18176 5.75744L 8.18176 2.75744L 5.81824 -2.75744Z"/>
<path id="path15_stroke" d="M -0.431529 12.1373C -0.0795641 13.7563 1.51825 14.7835 3.13729 14.4315C 4.75633 14.0796 5.78349 12.4817 5.43153 10.8627L -0.431529 12.1373ZM 2.93153 -0.637289C 2.57956 -2.25633 0.98175 -3.28349 -0.637289 -2.93153C -2.25633 -2.57956 -3.28349 -0.98175 -2.93153 0.637289L 2.93153 -0.637289ZM 5.43153 10.8627L 2.93153 -0.637289L -2.93153 0.637289L -0.431529 12.1373L 5.43153 10.8627Z"/>
<path id="path16_stroke" d="M 6.54349 2.57248C 7.96423 1.72003 8.42492 -0.122746 7.57248 -1.54349C 6.72003 -2.96423 4.87725 -3.42492 3.45651 -2.57248L 6.54349 2.57248ZM -1.54349 0.427521C -2.96423 1.27997 -3.42492 3.12275 -2.57248 4.54349C -1.72003 5.96423 0.122746 6.42492 1.54349 5.57248L -1.54349 0.427521ZM 3.45651 -2.57248L -1.54349 0.427521L 1.54349 5.57248L 6.54349 2.57248L 3.45651 -2.57248Z"/>
</defs>
</svg>
