<svg width="88" height="89" viewBox="0 0 88 89" version="1.1" xmlns="http://www.w3.org/2000/svg" xmlns:xlink="http://www.w3.org/1999/xlink">
<title>Group 5</title>
<desc>Created using Figma</desc>
<g id="Canvas" transform="translate(-1140 -4749)">
<g id="Group 5">
<g id="Group 8">
<g id="Rectangle 4" opacity="0.178159">
<use xlink:href="#path0_fill" transform="translate(1130.37 4802.05)" fill="url(#paint0_linear)"/>
</g>
<g id="Mascot">
<g id="Group 7">
<g id="Arm on waiste">
<g id="Path 4">
<use xlink:href="#path1_stroke" transform="matrix(-0.920505 -0.390731 -0.390731 0.920505 1156.82 4803.07)" fill="#2F2564"/>
</g>
<g id="Path 5 Copy 2">
<use xlink:href="#path2_stroke" transform="matrix(-0.965926 -0.258819 -0.258819 0.965926 1154.34 4816.46)" fill="#A499FF"/>
</g>
<g id="Path 5">
<use xlink:href="#path3_stroke" transform="matrix(-0.999391 -0.0348995 -0.0348995 0.999391 1155.03 4819.8)" fill="#A499FF"/>
</g>
</g>
<g id="Group 4">
<g id="Group">
<g id="Group 2">
<g id="Rectangle 5 Copy" filter="url(#filter0_i)">
<use xlink:href="#path4_fill" transform="matrix(0.978148 -0.207912 0.207912 0.978148 1147.94 4764.73)" fill="#2F2B64"/>
</g>
<g id="Line Copy 8">
<use xlink:href="#path5_stroke" transform="matrix(0.544639 -0.838671 0.838671 0.544639 1162.81 4764.94)" fill="#B0B1B1"/>
</g>
<g id="Rectangle 6 Copy">
<use xlink:href="#path6_fill" transform="matrix(0.978148 -0.207912 0.207912 0.978148 1153.48 4770.53)" fill="#FFFFFF"/>
</g>
<g id="Oval 7 Copy">
<use xlink:href="#path7_fill" transform="matrix(0.544639 -0.838671 0.838671 0.544639 1178.58 4828.85)" fill="#FFFFFF"/>
</g>
</g>
<g id="Page 1">
<g id="Group 3">
<mask id="mask0_outline" mask-type="alpha">
<g id="Clip 2">
<use xlink:href="#path8_fill" transform="matrix(0.97437 -0.224951 0.224951 0.97437 1164.35 4785.87)" fill="#FFFFFF"/>
</g>
</mask>
<g id="Fill 1" mask="url(#mask0_outline)">
<use xlink:href="#path9_fill" transform="matrix(0.97437 -0.224951 0.224951 0.97437 1164.35 4785.87)" fill="#2F2564"/>
</g>
</g>
<g id="Group 6">
<mask id="mask1_outline" mask-type="alpha">
<g id="Clip 5">
<use xlink:href="#path10_fill" transform="matrix(0.97437 -0.224951 0.224951 0.97437 1175.75 4783.5)" fill="#FFFFFF"/>
</g>
</mask>
<g id="Fill 4" mask="url(#mask1_outline)">
<use xlink:href="#path11_fill" transform="matrix(0.97437 -0.224951 0.224951 0.97437 1175.75 4783.5)" fill="#2F2564"/>
</g>
</g>
<g id="Fill 7">
<use xlink:href="#path12_fill" transform="matrix(0.97437 -0.224951 0.224951 0.97437 1168.34 4796.62)" fill="#FF585B"/>
</g>
</g>
</g>
</g>
</g>
</g>
</g>
<g id="Arm pointing up Copy">
<g id="Path 2">
<use xlink:href="#path13_stroke" transform="matrix(0.839449 -0.543438 0.545825 0.837899 1189.54 4785.35)" fill="#2F2B64"/>
</g>
<g id="Group 12">
<g id="Rectangle 5 Copy 2">
<use xlink:href="#path14_fill" transform="matrix(0.179317 0.983798 0.985805 -0.167938 1201.43 4765.8)" fill="#A499FF"/>
</g>
<g id="Line 3 Copy">
<use xlink:href="#path15_stroke" transform="matrix(0.179034 0.983847 0.985753 -0.168225 1209.23 4765.63)" fill="#A499FF"/>
</g>
<g id="Line 3 Copy 2">
<use xlink:href="#path16_stroke" transform="matrix(0.17916 0.983825 0.985776 -0.168096 1206.68 4764.86)" fill="#A499FF"/>
</g>
<g id="Line 3 Copy 3">
<use xlink:href="#path17_stroke" transform="matrix(0.179123 0.983832 0.985769 -0.168135 1204.83 4764.57)" fill="#A499FF"/>
</g>
<g id="Line 3 Copy 3">
<use xlink:href="#path18_stroke" transform="matrix(0.179218 0.983815 0.985786 -0.168038 1203.77 4765.36)" fill="#A499FF"/>
</g>
<g id="Line 3 Copy 4">
<use xlink:href="#path19_stroke" transform="matrix(0.179003 0.983852 0.985747 -0.168255 1201.64 4760.29)" fill="#A499FF"/>
</g>
</g>
</g>
</g>
</g>
<defs>
<filter id="filter0_i" filterUnits="userSpaceOnUse" x="1147" y="4756" width="57" height="85" color-interpolation-filters="sRGB">
<feFlood flood-opacity="0" result="BackgroundImageFix"/>
<feBlend mode="normal" in="SourceGraphic" in2="BackgroundImageFix" result="shape"/>
<feColorMatrix in="SourceAlpha" type="matrix" values="0 0 0 0 0 0 0 0 0 0 0 0 0 0 0 0 0 0 255 0" result="hardAlpha"/>
<feOffset dx="0" dy="3"/>
<feGaussianBlur stdDeviation="1.5"/>
<feComposite in2="hardAlpha" operator="arithmetic" k2="-1" k3="1"/>
<feColorMatrix type="matrix" values="0 0 0 0 0 0 0 0 0 0 0 0 0 0 0 0 0 0 0.064906 0"/>
<feBlend mode="normal" in2="shape" result="effect1_innerShadow"/>
</filter>
<linearGradient id="paint0_linear" x1="0" y1="0" x2="1" y2="0" gradientUnits="userSpaceOnUse" gradientTransform="matrix(-0.0125902 39.4036 -80.7141 -0.00614636 49.6664 -6.8802)">
<stop offset="0" stop-color="#FFFFFF"/>
<stop offset="0.637244" stop-color="#5D5D5D"/>
<stop offset="0.637244" stop-color="#5D5D5D"/>
<stop offset="1"/>
</linearGradient>
<path id="path0_fill" fill-rule="evenodd" d="M 1.88448 12.9538C -1.09815 10.957 -0.144791 6.34627 3.38515 5.69607L 33.9595 0.0644337C 34.9724 -0.122138 36.0182 0.0891868 36.8792 0.654405L 64.4734 18.7692C 68.1548 21.1859 67.1402 26.8371 62.8481 27.8223L 45.3568 31.8372C 38.1019 33.5024 30.4813 32.0987 24.2959 27.9577L 1.88448 12.9538Z"/>
<path id="path1_stroke" d="M 2.68874 -1.25443C 1.99594 -2.63695 0.313556 -3.19608 -1.06897 -2.50328C -2.45149 -1.81047 -3.01062 -0.12809 -2.31781 1.25443L 2.68874 -1.25443ZM 6.92287 8.75613L 9.72287 8.75613C 9.72287 7.87621 9.30923 7.04746 8.60604 6.51851L 6.92287 8.75613ZM 3.10231 11.2167L 1.46675 8.94404L 3.10231 11.2167ZM -2.16513 12.1488C -3.14568 13.3446 -2.97121 15.1089 -1.77544 16.0894C -0.579673 17.07 1.18458 16.8955 2.16513 15.6997L -2.16513 12.1488ZM 0.185466 0C -2.31781 1.25443 -2.31761 1.25484 -2.31739 1.25528C -2.3173 1.25545 -2.31707 1.25591 -2.3169 1.25626C -2.31667 1.2567 -2.31615 1.25775 -2.3157 1.25863C -2.31508 1.25987 -2.31375 1.26252 -2.3125 1.265C -2.31052 1.26892 -2.30675 1.27638 -2.3028 1.28416C -2.29597 1.29762 -2.28405 1.32101 -2.27045 1.34746C -2.24546 1.39606 -2.20445 1.47509 -2.15522 1.56827C -2.06139 1.74574 -1.91338 2.02016 -1.73266 2.34175C -1.38141 2.96602 -0.84096 3.88093 -0.19557 4.85867C 1.07418 6.77575 3.06829 9.32851 5.23971 10.9938L 8.60604 6.51851C 7.00641 5.34715 5.63182 3.52183 4.47563 1.77C 3.90805 0.913284 3.47122 0.171032 3.14842 -0.403255C 2.99213 -0.680944 2.87893 -0.891151 2.7958 -1.04848C 2.75655 -1.1227 2.73016 -1.17362 2.70986 -1.21311C 2.7008 -1.23071 2.69561 -1.24091 2.69098 -1.25003C 2.6892 -1.25353 2.68866 -1.2546 2.68776 -1.2564C 2.68757 -1.25677 2.68762 -1.25667 2.68772 -1.25647C 2.68764 -1.25663 2.68814 -1.25564 2.6881 -1.25572C 2.68818 -1.25555 2.68835 -1.25523 2.68839 -1.25514C 2.68856 -1.2548 2.68874 -1.25443 0.185466 0ZM 6.92287 8.75613C 5.53917 6.32193 5.53902 6.32201 5.53887 6.3221C 5.53881 6.32213 5.53866 6.32222 5.53854 6.32229C 5.53839 6.32237 5.53803 6.32258 5.53773 6.32275C 5.53731 6.32298 5.53642 6.32349 5.53559 6.32397C 5.53429 6.3247 5.5318 6.32613 5.52922 6.3276C 5.5248 6.33012 5.51705 6.33455 5.5083 6.33957C 5.49229 6.34875 5.46609 6.36382 5.43491 6.38185C 5.37561 6.41616 5.28312 6.47002 5.17157 6.53582C 4.95489 6.66369 4.63104 6.85764 4.25527 7.09009C 3.51743 7.54681 2.48075 8.21544 1.46675 8.94404L 4.73787 13.4893C 5.63344 12.8437 6.50704 12.282 7.2021 11.852C 7.54277 11.6411 7.81602 11.4776 8.01732 11.3589C 8.11477 11.3013 8.18649 11.2596 8.23915 11.2291C 8.26396 11.2148 8.28068 11.2052 8.2936 11.1978C 8.29931 11.1945 8.30252 11.1927 8.30545 11.191C 8.30654 11.1904 8.30682 11.1902 8.30738 11.1899C 8.30747 11.1898 8.30737 11.1899 8.30732 11.1899C 8.30739 11.1899 8.30701 11.1901 8.30704 11.1901C 8.30698 11.1901 8.30686 11.1902 8.30683 11.1902C 8.30671 11.1903 8.30658 11.1903 6.92287 8.75613ZM 1.46675 8.94404C 0.211803 9.84871 -1.24988 11.0549 -2.16513 12.1488L 2.16513 15.6997C 2.70263 15.022 3.61633 14.295 4.73787 13.4893L 1.46675 8.94404Z"/>
<path id="path2_stroke" d="M 2.07573 0L 4.30857 -1.6895C 3.74778 -2.43064 2.85579 -2.84522 1.9277 -2.79608C 0.999608 -2.74695 0.156377 -2.2405 -0.323022 -1.4443L 2.07573 0ZM 0 3.44746L -2.39875 2.00316C -3.12172 3.2039 -2.84549 4.75423 -1.75228 5.63138L 0 3.44746ZM 4.7138 7.22961L 2.96152 9.41353C 3.95492 10.2106 5.36109 10.2368 6.3835 9.4773L 4.7138 7.22961ZM 6.52694 5.88272L 8.19664 8.13041C 8.79621 7.68502 9.19298 7.01854 9.29873 6.27917C 9.40448 5.5398 9.21045 4.78883 8.75978 4.19322L 6.52694 5.88272ZM -0.323022 -1.4443L -2.39875 2.00316L 2.39875 4.89175L 4.47448 1.4443L -0.323022 -1.4443ZM -1.75228 5.63138L 2.96152 9.41353L 6.46609 5.04569L 1.75228 1.26354L -1.75228 5.63138ZM 6.3835 9.4773L 8.19664 8.13041L 4.85724 3.63503L 3.04411 4.98192L 6.3835 9.4773ZM 8.75978 4.19322L 4.30857 -1.6895L -0.157115 1.6895L 4.2941 7.57222L 8.75978 4.19322Z"/>
<path id="path3_stroke" d="M 4.21737 1.55C 5.07341 0.262155 4.72336 -1.47581 3.43552 -2.33185C 2.14768 -3.18789 0.409715 -2.83784 -0.446325 -1.55L 4.21737 1.55ZM 0 2.83661L -2.33185 1.28662C -3.13418 2.49366 -2.88276 4.11349 -1.75228 5.02053L 0 2.83661ZM 2.96152 8.80269C 4.16767 9.77045 5.92996 9.5772 6.89772 8.37105C 7.86548 7.1649 7.67223 5.40261 6.46609 4.43485L 2.96152 8.80269ZM -0.446325 -1.55L -2.33185 1.28662L 2.33185 4.38661L 4.21737 1.55L -0.446325 -1.55ZM -1.75228 5.02053L 2.96152 8.80269L 6.46609 4.43485L 1.75228 0.652695L -1.75228 5.02053Z"/>
<path id="path4_fill" fill-rule="evenodd" d="M 0 8C 0 3.58172 3.58172 0 8 0L 32.7642 0C 37.1825 0 40.7642 3.58172 40.7642 8L 40.7642 66.1018C 40.7642 70.5201 37.1825 74.1018 32.7642 74.1018L 8 74.1018C 3.58172 74.1018 0 70.5201 0 66.1018L 0 8Z"/>
<path id="path5_stroke" d="M 8.07754 9.07878C 8.35072 9.35233 8.79394 9.35262 9.06749 9.07944C 9.34103 8.80625 9.34133 8.36303 9.06814 8.08949L 8.07754 9.07878ZM 0.771844 -0.217741C 0.498657 -0.491288 0.0554414 -0.49158 -0.218106 -0.218393C -0.491652 0.0547939 -0.491944 0.498009 -0.218757 0.771556L 0.771844 -0.217741ZM 9.06814 8.08949L 0.771844 -0.217741L -0.218757 0.771556L 8.07754 9.07878L 9.06814 8.08949Z"/>
<path id="path6_fill" fill-rule="evenodd" d="M 0 1C 0 0.447715 0.447715 0 1 0L 31.6025 0C 32.1548 0 32.6025 0.447715 32.6025 1L 32.6025 55.4138C 32.6025 55.9661 32.1548 56.4138 31.6025 56.4138L 1 56.4138C 0.447715 56.4138 0 55.9661 0 55.4138L 0 1Z"/>
<path id="path7_fill" fill-rule="evenodd" d="M 2.92617 5.86006C 4.54225 5.86006 5.85235 4.54824 5.85235 2.93003C 5.85235 1.31182 4.54225 0 2.92617 0C 1.31009 0 0 1.31182 0 2.93003C 0 4.54824 1.31009 5.86006 2.92617 5.86006Z"/>
<path id="path8_fill" fill-rule="evenodd" d="M 0 5.51851L 0 0L 3.93976 0L 3.93976 5.51851L 0 5.51851Z"/>
<path id="path9_fill" fill-rule="evenodd" d="M 1.98964 0L 1.95027 0C 0.873158 0 0 0.888273 0 1.98389L 0 3.53467C 0 4.63029 0.873158 5.51856 1.95027 5.51856L 1.98964 5.51856C 3.06675 5.51856 3.93991 4.63029 3.93991 3.53467L 3.93991 1.98389C 3.93991 0.888273 3.06675 0 1.98964 0Z"/>
<path id="path10_fill" fill-rule="evenodd" d="M 6.93207 0L 6.93207 4.94658L 0 4.94658L 0 1.89736e-15L 6.93207 1.89736e-15L 6.93207 0Z"/>
<path id="path11_fill" fill-rule="evenodd" d="M 6.03441 4.94658C 5.53871 4.94658 5.13671 4.53749 5.13671 4.03334L 5.13671 3.50009C 5.13671 2.57737 4.3986 1.82635 3.49158 1.82635C 2.53338 1.82635 1.79527 2.57737 1.79527 3.50009L 1.79527 4.03334C 1.79527 4.53749 1.39354 4.94658 0.89757 4.94658C 0.401734 4.94658 0 4.53749 0 4.03334L 0 3.50009C 0 1.57013 1.54342 0 3.4404 0C 5.38857 0 6.93211 1.57013 6.93211 3.50009L 6.93211 4.03334C 6.93211 4.53749 6.53025 4.94658 6.03441 4.94658Z"/>
<path id="path12_fill" fill-rule="evenodd" d="M 7.07095 5.96487C 2.83273 5.96487 0.626667 2.86133 0.0522173 1.22043C -0.113936 0.745388 0.129519 0.223346 0.596744 0.0540494C 1.06331 -0.115514 1.57503 0.131888 1.74236 0.604664C 1.79919 0.76141 3.07159 4.13839 7.07095 4.13839C 11.1156 4.13839 12.3863 0.643116 12.3986 0.608001C 12.5648 0.132422 13.0768 -0.11725 13.5456 0.0540494C 14.0125 0.223346 14.2562 0.745388 14.0898 1.22043C 13.5155 2.86133 11.3092 5.96487 7.07095 5.96487Z"/>
<path id="path13_stroke" d="M 22.2811 1.70088C 23.2205 0.472497 22.9862 -1.28482 21.7578 -2.22419C 20.5294 -3.16356 18.7721 -2.92927 17.8327 -1.70088L 22.2811 1.70088ZM 0.291291 8.47487C -1.24672 8.314 -2.62393 9.43038 -2.78481 10.9684C -2.94568 12.5064 -1.8293 13.8836 -0.291291 14.0445L 0.291291 8.47487ZM 20.0569 0C 17.8327 -1.70088 17.8332 -1.70147 17.8336 -1.70201C 17.8337 -1.70213 17.8341 -1.70262 17.8342 -1.70286C 17.8342 -1.70281 17.835 -1.70384 17.8349 -1.70373C 17.8354 -1.70437 17.8347 -1.70343 17.8337 -1.70218C 17.8305 -1.69798 17.8277 -1.69436 17.8213 -1.68619C 17.8059 -1.66639 17.7872 -1.64259 17.757 -1.60471C 17.6912 -1.52192 17.6033 -1.4129 17.4766 -1.26058C 17.2113 -0.941371 16.8472 -0.51647 16.3542 0.0180123C 15.3418 1.11777 13.9806 2.48212 12.2531 3.85971C 8.73029 6.67983 4.46456 8.9114 0.291291 8.47487L -0.291291 14.0445C 6.13406 14.7166 11.8968 11.3183 15.7528 8.23143C 17.7146 6.65552 19.3805 4.99709 20.4727 3.81244C 21.032 3.20471 21.4896 2.672 21.783 2.31915C 21.9356 2.13544 22.0613 1.97982 22.1392 1.88198C 22.1809 1.82954 22.2166 1.78402 22.2376 1.75708C 22.2495 1.74189 22.2604 1.72778 22.2663 1.7201C 22.2699 1.71541 22.2736 1.71059 22.2755 1.70824C 22.2767 1.70663 22.2781 1.70479 22.2787 1.70399C 22.2792 1.70338 22.2798 1.7026 22.28 1.70229C 22.2806 1.70156 22.2811 1.70088 20.0569 0Z"/>
<path id="path14_fill" fill-rule="evenodd" d="M -0.298785 1.42451C -0.357152 1.08076 -0.121719 0.756135 0.223163 0.704835L 4.01345 0.141038C 6.999 -0.303057 9.68155 2.00998 9.68155 5.02838C 9.68155 7.75729 7.46934 9.9695 4.74043 9.9695L 1.66315 9.9695C 1.36802 9.9695 1.11593 9.75661 1.06653 9.46564L -0.298785 1.42451Z"/>
<path id="path15_stroke" d="M 0.0212311 -1.59357C -1.35104 -1.44116 -2.33994 -0.205164 -2.18754 1.16711C -2.03513 2.53938 -0.799133 3.52828 0.573142 3.37588L 0.0212311 -1.59357ZM 5.9225 2.78177C 7.29477 2.62937 8.28367 1.39337 8.13126 0.0210964C 7.97886 -1.35118 6.74286 -2.34008 5.37058 -2.18767L 5.9225 2.78177ZM 0.573142 3.37588L 5.9225 2.78177L 5.37058 -2.18767L 0.0212311 -1.59357L 0.573142 3.37588Z"/>
<path id="path16_stroke" d="M -0.360362 -1.52136C -1.69248 -1.15827 -2.47803 0.215959 -2.11495 1.54808C -1.75186 2.88019 -0.377629 3.66575 0.954487 3.30266L -0.360362 -1.52136ZM 4.22218 2.41201C 5.55429 2.04892 6.33985 0.674692 5.97676 -0.657424C 5.61368 -1.98954 4.23944 -2.7751 2.90733 -2.41201L 4.22218 2.41201ZM 0.954487 3.30266L 4.22218 2.41201L 2.90733 -2.41201L -0.360362 -1.52136L 0.954487 3.30266Z"/>
<path id="path17_stroke" d="M -0.11367 -1.57521C -1.47562 -1.34834 -2.39578 -0.0603575 -2.16892 1.30159C -1.94205 2.66354 -0.654068 3.5837 0.707878 3.35684L -0.11367 -1.57521ZM 4.27313 2.76296C 5.63507 2.5361 6.55524 1.24811 6.32837 -0.113836C 6.10151 -1.47578 4.81352 -2.39595 3.45158 -2.16908L 4.27313 2.76296ZM 0.707878 3.35684L 4.27313 2.76296L 3.45158 -2.16908L -0.11367 -1.57521L 0.707878 3.35684Z"/>
<path id="path18_stroke" d="M -0.493104 -0.887923C -1.80305 -0.451567 -2.51124 0.964091 -2.07488 2.27404C -1.63852 3.58398 -0.222866 4.29217 1.08708 3.85581L -0.493104 -0.887923ZM 4.65094 2.66866C 5.96088 2.2323 6.66907 0.816643 6.23271 -0.493304C 5.79635 -1.80325 4.3807 -2.51143 3.07075 -2.07508L 4.65094 2.66866ZM 1.08708 3.85581L 4.65094 2.66866L 3.07075 -2.07508L -0.493104 -0.887923L 1.08708 3.85581Z"/>
<path id="path19_stroke" d="M -0.0127485 -0.995276C -1.38281 -0.82409 -2.35469 0.425335 -2.1835 1.79539C -2.01231 3.16545 -0.762888 4.13733 0.60717 3.96615L -0.0127485 -0.995276ZM 10.1179 2.7778C 11.488 2.60661 12.4599 1.35719 12.2887 -0.0128725C 12.1175 -1.38293 10.8681 -2.35481 9.498 -2.18362L 10.1179 2.7778ZM 0.60717 3.96615L 10.1179 2.7778L 9.498 -2.18362L -0.0127485 -0.995276L 0.60717 3.96615Z"/>
</defs>
</svg>
