<?xml version="1.0" encoding="UTF-8" standalone="no"?><!DOCTYPE svg PUBLIC "-//W3C//DTD SVG 1.1//EN" "http://www.w3.org/Graphics/SVG/1.1/DTD/svg11.dtd">
<svg width="100%" height="100%" viewBox="0 0 596 842" version="1.1" xmlns="http://www.w3.org/2000/svg" xmlns:xlink="http://www.w3.org/1999/xlink" xml:space="preserve" style="fill-rule:evenodd;clip-rule:evenodd;stroke-linejoin:round;stroke-miterlimit:1.41421;"><g>
    <path d="M134.74,378.991l0,38.52c0,8.08 -2.289,14.02 -6.867,17.82c-4.578,3.8 -10.068,5.7 -16.47,5.7c-6.402,0 -11.929,-1.9 -16.582,-5.7c-4.652,-3.8 -6.979,-9.74 -6.979,-17.82l0,-38.64c0,-8.24 2.103,-14.48 6.309,-18.72c4.206,-4.24 9.994,-6.36 17.363,-6.36c7.37,0 13.083,2.24 17.14,6.72c4.057,4.48 6.086,10.64 6.086,18.48Zm-6.141,38.28l0,-39.48c0,-5.84 -1.582,-10.24 -4.746,-13.2c-3.164,-2.96 -7.351,-4.44 -12.562,-4.44c-5.211,0 -9.379,1.48 -12.506,4.44c-3.126,2.96 -4.69,7.36 -4.69,13.2l0,39.6c0,5.68 1.619,9.98 4.858,12.9c3.238,2.92 7.369,4.38 12.394,4.38c5.025,0 9.156,-1.42 12.394,-4.26c3.239,-2.84 4.858,-7.22 4.858,-13.14Z" style="fill-rule:nonzero;"/>
    <path d="M162.767,439.711l-6.253,0l0,-76.08c-1.191,1.2 -2.643,2.26 -4.355,3.18c-1.712,0.92 -3.126,1.54 -4.243,1.86l-1.675,0.48l-1.452,-6.36c1.638,0 3.629,-0.68 5.974,-2.04c2.345,-1.36 4.262,-3.04 5.751,-5.04l6.253,0l0,84Z"
          style="fill-rule:nonzero;"/>
</g></svg>
